<?xml version="1.0" encoding="UTF-8"?>
<svg xmlns="http://www.w3.org/2000/svg" xmlns:xlink="http://www.w3.org/1999/xlink" width="810pt" height="809.999993pt" viewBox="0 0 810 809.999993" version="1.2">
<defs>
<clipPath id="clip1">
  <path d="M 35 43.492188 L 774 43.492188 L 774 766.492188 L 35 766.492188 Z M 35 43.492188 "/>
</clipPath>
</defs>
<g id="surface1">
<g clip-path="url(#clip1)" clip-rule="nonzero">
<path style=" stroke:none;fill-rule:nonzero;fill:rgb(45.098877%,45.098877%,45.098877%);fill-opacity:1;" d="M 753.835938 727.128906 L 655.574219 727.128906 L 655.574219 668.082031 C 655.574219 659.019531 648.234375 651.679688 639.175781 651.679688 C 630.117188 651.679688 622.78125 659.019531 622.78125 668.082031 L 622.78125 727.128906 L 420.984375 727.128906 L 420.984375 660.015625 C 420.984375 650.957031 413.644531 643.613281 404.585938 643.613281 C 395.527344 643.613281 388.1875 650.957031 388.1875 660.015625 L 388.1875 727.128906 L 219.398438 727.128906 L 219.398438 668.082031 C 219.398438 659.019531 212.058594 651.679688 203 651.679688 C 193.941406 651.679688 186.601562 659.019531 186.601562 668.082031 L 186.601562 727.128906 L 75.007812 727.128906 L 75.007812 63.238281 C 75.007812 52.367188 66.199219 43.558594 55.332031 43.558594 C 44.460938 43.558594 35.652344 52.367188 35.652344 63.238281 L 35.652344 746.808594 C 35.652344 757.679688 44.460938 766.492188 55.332031 766.492188 L 753.867188 766.492188 C 764.738281 766.492188 773.546875 757.679688 773.546875 746.808594 C 773.546875 735.9375 764.738281 727.132812 753.867188 727.132812 Z M 753.835938 727.128906 "/>
</g>
<path style=" stroke:none;fill-rule:nonzero;fill:rgb(45.098877%,45.098877%,45.098877%);fill-opacity:1;" d="M 186.582031 554.492188 L 186.582031 589.316406 C 186.582031 598.378906 193.921875 605.71875 202.980469 605.71875 C 212.039062 605.71875 219.378906 598.378906 219.378906 589.316406 L 219.378906 554.492188 C 219.378906 545.433594 212.039062 538.089844 202.980469 538.089844 C 193.921875 538.089844 186.582031 545.433594 186.582031 554.492188 Z M 186.582031 554.492188 "/>
<path style=" stroke:none;fill-rule:nonzero;fill:rgb(45.098877%,45.098877%,45.098877%);fill-opacity:1;" d="M 388.167969 515.648438 L 388.167969 581.253906 C 388.167969 590.316406 395.507812 597.65625 404.566406 597.65625 C 413.625 597.65625 420.964844 590.316406 420.964844 581.253906 L 420.964844 515.648438 C 420.964844 506.585938 413.625 499.246094 404.566406 499.246094 C 395.507812 499.246094 388.167969 506.585938 388.167969 515.648438 Z M 388.167969 515.648438 "/>
<path style=" stroke:none;fill-rule:nonzero;fill:rgb(45.098877%,45.098877%,45.098877%);fill-opacity:1;" d="M 655.582031 353.128906 C 655.582031 344.070312 648.242188 336.726562 639.183594 336.726562 C 630.125 336.726562 622.785156 344.070312 622.785156 353.128906 L 622.785156 431.859375 C 622.785156 440.917969 630.125 448.261719 639.183594 448.261719 C 648.242188 448.261719 655.582031 440.917969 655.582031 431.859375 Z M 655.582031 353.128906 "/>
<path style=" stroke:none;fill-rule:nonzero;fill:rgb(45.098877%,45.098877%,45.098877%);fill-opacity:1;" d="M 639.15625 494.1875 C 630.097656 494.1875 622.757812 501.527344 622.757812 510.589844 L 622.757812 589.316406 C 622.757812 598.378906 630.097656 605.71875 639.15625 605.71875 C 648.214844 605.71875 655.554688 598.378906 655.554688 589.316406 L 655.554688 510.589844 C 655.554688 501.527344 648.207031 494.1875 639.15625 494.1875 Z M 639.15625 494.1875 "/>
<path style=" stroke:none;fill-rule:nonzero;fill:rgb(45.098877%,45.098877%,45.098877%);fill-opacity:1;" d="M 655.582031 249.933594 C 655.582031 240.875 648.242188 233.53125 639.183594 233.53125 C 630.125 233.53125 622.785156 240.875 622.785156 249.933594 L 622.785156 274.398438 C 622.785156 283.460938 630.125 290.800781 639.183594 290.800781 C 648.242188 290.800781 655.582031 283.460938 655.582031 274.398438 Z M 655.582031 249.933594 "/>
<path style=" stroke:none;fill-rule:nonzero;fill:rgb(45.098877%,45.098877%,45.098877%);fill-opacity:1;" d="M 206.960938 521.625 C 235.082031 517.957031 256.234375 495.859375 259.992188 469.066406 L 349.738281 457.367188 C 353.070312 463.867188 357.550781 469.910156 363.296875 475.085938 C 388.589844 497.886719 427.582031 495.859375 450.363281 470.5625 C 469.351562 449.488281 471.050781 418.941406 456.496094 396.136719 L 611.589844 223.960938 C 635.78125 236.078125 665.972656 231.210938 684.953125 210.144531 C 707.746094 184.84375 705.71875 145.839844 680.425781 123.054688 C 655.136719 100.257812 616.140625 102.285156 593.363281 127.582031 C 574.375 148.65625 572.675781 179.203125 587.230469 202.007812 L 432.128906 374.183594 C 407.9375 362.066406 377.746094 366.933594 358.765625 388 C 349.136719 398.6875 343.988281 411.820312 343.101562 425.148438 L 255.75 436.53125 C 245.242188 411.597656 219.140625 395.664062 191.023438 399.324219 C 157.269531 403.726562 133.460938 434.671875 137.863281 468.441406 C 142.265625 502.210938 173.210938 526.027344 206.960938 521.625 Z M 206.960938 521.625 "/>
</g>
</svg>
