<?xml version="1.0" encoding="UTF-8"?>
<svg xmlns="http://www.w3.org/2000/svg" xmlns:xlink="http://www.w3.org/1999/xlink" width="810pt" height="809.999993pt" viewBox="0 0 810 809.999993" version="1.2">
<defs>
<clipPath id="clip1">
  <path d="M 239 316 L 572 316 L 572 768.820312 L 239 768.820312 Z M 239 316 "/>
</clipPath>
</defs>
<g id="surface1">
<path style=" stroke:none;fill-rule:nonzero;fill:rgb(29.798889%,68.629456%,31.369019%);fill-opacity:1;" d="M 484.394531 124.746094 L 509.835938 65.476562 C 510.234375 64.566406 510.535156 63.625 510.746094 62.65625 C 510.957031 61.6875 511.074219 60.707031 511.089844 59.714844 C 511.109375 58.722656 511.027344 57.738281 510.851562 56.761719 C 510.675781 55.785156 510.40625 54.835938 510.042969 53.914062 C 509.679688 52.988281 509.226562 52.109375 508.691406 51.277344 C 508.15625 50.441406 507.542969 49.667969 506.851562 48.953125 C 506.164062 48.238281 505.410156 47.597656 504.597656 47.03125 C 503.78125 46.464844 502.917969 45.984375 502.007812 45.589844 C 501.097656 45.191406 500.15625 44.886719 499.1875 44.675781 C 498.214844 44.464844 497.234375 44.351562 496.242188 44.332031 C 495.25 44.3125 494.265625 44.394531 493.289062 44.570312 C 492.3125 44.742188 491.359375 45.011719 490.4375 45.375 C 489.511719 45.738281 488.632812 46.1875 487.796875 46.722656 C 486.960938 47.257812 486.183594 47.871094 485.46875 48.558594 C 484.753906 49.246094 484.113281 50 483.546875 50.8125 C 482.980469 51.628906 482.496094 52.488281 482.101562 53.398438 L 456.6875 112.910156 C 448.410156 110.199219 439.972656 108.15625 431.371094 106.785156 C 422.765625 105.410156 414.109375 104.726562 405.398438 104.726562 C 396.6875 104.726562 388.03125 105.410156 379.429688 106.785156 C 370.828125 108.15625 362.386719 110.199219 354.109375 112.910156 L 328.546875 53.398438 C 328.152344 52.488281 327.671875 51.625 327.105469 50.808594 C 326.539062 49.992188 325.898438 49.242188 325.183594 48.550781 C 324.464844 47.863281 323.691406 47.25 322.855469 46.710938 C 322.019531 46.175781 321.140625 45.722656 320.214844 45.359375 C 319.289062 44.996094 318.339844 44.726562 317.359375 44.550781 C 316.382812 44.375 315.394531 44.296875 314.402344 44.3125 C 313.410156 44.332031 312.425781 44.445312 311.457031 44.65625 C 310.484375 44.867188 309.542969 45.171875 308.632812 45.570312 C 307.722656 45.964844 306.859375 46.449219 306.042969 47.015625 C 305.226562 47.582031 304.472656 48.222656 303.785156 48.9375 C 303.09375 49.652344 302.480469 50.425781 301.945312 51.261719 C 301.40625 52.097656 300.957031 52.980469 300.59375 53.902344 C 300.230469 54.828125 299.960938 55.777344 299.785156 56.757812 C 299.609375 57.734375 299.53125 58.71875 299.550781 59.710938 C 299.570312 60.703125 299.683594 61.6875 299.898438 62.65625 C 300.109375 63.625 300.414062 64.566406 300.8125 65.476562 L 326.28125 124.867188 C 323.011719 126.632812 319.800781 128.511719 316.652344 130.492188 C 313.507812 132.476562 310.429688 134.5625 307.425781 136.753906 C 304.417969 138.945312 301.488281 141.234375 298.636719 143.621094 C 295.785156 146.007812 293.015625 148.488281 290.328125 151.058594 C 287.644531 153.632812 285.046875 156.292969 282.539062 159.039062 C 280.03125 161.785156 277.621094 164.613281 275.304688 167.519531 C 272.988281 170.429688 270.769531 173.414062 268.652344 176.472656 C 266.539062 179.527344 264.527344 182.652344 262.621094 185.847656 C 260.714844 189.039062 258.917969 192.292969 257.226562 195.605469 C 255.539062 198.917969 253.964844 202.285156 252.503906 205.703125 C 251.042969 209.121094 249.699219 212.585938 248.46875 216.09375 C 247.238281 219.601562 246.128906 223.148438 245.140625 226.734375 C 244.148438 230.316406 243.28125 233.929688 242.53125 237.570312 C 241.785156 241.210938 241.160156 244.875 240.660156 248.558594 C 240.15625 252.242188 239.78125 255.941406 239.527344 259.648438 C 239.273438 263.359375 239.144531 267.070312 239.144531 270.789062 C 239.144531 271.78125 239.238281 272.761719 239.433594 273.734375 C 239.625 274.707031 239.914062 275.648438 240.292969 276.566406 C 240.671875 277.480469 241.136719 278.351562 241.6875 279.175781 C 242.238281 280 242.867188 280.761719 243.566406 281.464844 C 244.269531 282.164062 245.03125 282.789062 245.855469 283.339844 C 246.683594 283.890625 247.550781 284.355469 248.46875 284.734375 C 249.386719 285.117188 250.332031 285.402344 251.304688 285.59375 C 252.277344 285.789062 253.257812 285.886719 254.25 285.886719 L 556.398438 285.886719 C 557.390625 285.886719 558.371094 285.789062 559.34375 285.59375 C 560.316406 285.402344 561.261719 285.117188 562.179688 284.734375 C 563.097656 284.355469 563.964844 283.890625 564.792969 283.339844 C 565.617188 282.789062 566.378906 282.164062 567.082031 281.464844 C 567.78125 280.761719 568.40625 280 568.960938 279.175781 C 569.511719 278.351562 569.976562 277.480469 570.355469 276.566406 C 570.734375 275.648438 571.023438 274.707031 571.214844 273.734375 C 571.410156 272.761719 571.503906 271.78125 571.503906 270.789062 C 571.503906 267.070312 571.378906 263.351562 571.128906 259.640625 C 570.878906 255.929688 570.503906 252.230469 570.007812 248.546875 C 569.507812 244.859375 568.886719 241.195312 568.140625 237.550781 C 567.394531 233.90625 566.527344 230.289062 565.539062 226.703125 C 564.550781 223.117188 563.441406 219.566406 562.214844 216.054688 C 560.988281 212.542969 559.644531 209.078125 558.183594 205.65625 C 556.722656 202.234375 555.148438 198.863281 553.460938 195.550781 C 551.773438 192.234375 549.980469 188.976562 548.074219 185.78125 C 546.167969 182.585938 544.15625 179.460938 542.039062 176.398438 C 539.921875 173.339844 537.707031 170.351562 535.390625 167.441406 C 533.074219 164.53125 530.660156 161.699219 528.152344 158.949219 C 525.644531 156.199219 523.050781 153.539062 520.363281 150.964844 C 517.675781 148.386719 514.90625 145.90625 512.054688 143.515625 C 509.199219 141.128906 506.269531 138.835938 503.261719 136.644531 C 500.253906 134.453125 497.175781 132.363281 494.027344 130.378906 C 490.882812 128.394531 487.671875 126.515625 484.394531 124.746094 Z M 484.394531 124.746094 "/>
<g clip-path="url(#clip1)" clip-rule="nonzero">
<path style=" stroke:none;fill-rule:nonzero;fill:rgb(29.798889%,68.629456%,31.369019%);fill-opacity:1;" d="M 556.398438 316.078125 L 254.25 316.078125 C 253.257812 316.078125 252.277344 316.175781 251.304688 316.367188 C 250.332031 316.5625 249.386719 316.847656 248.46875 317.226562 C 247.550781 317.605469 246.683594 318.070312 245.855469 318.621094 C 245.03125 319.171875 244.269531 319.800781 243.566406 320.5 C 242.867188 321.199219 242.238281 321.964844 241.6875 322.789062 C 241.136719 323.613281 240.671875 324.480469 240.292969 325.398438 C 239.914062 326.3125 239.625 327.257812 239.433594 328.230469 C 239.238281 329.203125 239.144531 330.183594 239.144531 331.175781 L 239.144531 572.71875 C 239.144531 574.875 239.234375 577.027344 239.417969 579.171875 C 239.601562 581.320312 239.878906 583.457031 240.246094 585.578125 C 240.613281 587.703125 241.070312 589.808594 241.617188 591.890625 C 242.164062 593.976562 242.800781 596.035156 243.523438 598.0625 C 244.246094 600.09375 245.054688 602.089844 245.949219 604.050781 C 246.84375 606.011719 247.824219 607.929688 248.882812 609.808594 C 249.941406 611.683594 251.078125 613.515625 252.292969 615.292969 C 253.511719 617.074219 254.800781 618.796875 256.164062 620.46875 C 257.527344 622.136719 258.960938 623.746094 260.460938 625.292969 C 261.964844 626.839844 263.53125 628.320312 265.15625 629.734375 C 266.785156 631.144531 268.472656 632.484375 270.214844 633.753906 C 271.960938 635.023438 273.753906 636.214844 275.601562 637.332031 C 277.445312 638.445312 279.335938 639.480469 281.269531 640.433594 C 283.203125 641.386719 285.175781 642.253906 287.183594 643.039062 C 289.191406 643.824219 291.230469 644.519531 293.300781 645.128906 C 295.367188 645.742188 297.460938 646.261719 299.574219 646.691406 L 299.574219 723.683594 C 299.574219 725.167969 299.644531 726.648438 299.789062 728.125 C 299.9375 729.601562 300.152344 731.066406 300.445312 732.519531 C 300.734375 733.976562 301.09375 735.410156 301.523438 736.832031 C 301.953125 738.25 302.453125 739.644531 303.023438 741.015625 C 303.589844 742.386719 304.222656 743.726562 304.925781 745.035156 C 305.625 746.34375 306.386719 747.613281 307.210938 748.847656 C 308.035156 750.078125 308.917969 751.269531 309.859375 752.414062 C 310.800781 753.5625 311.796875 754.660156 312.847656 755.710938 C 313.898438 756.757812 314.996094 757.753906 316.144531 758.695312 C 317.289062 759.632812 318.480469 760.515625 319.714844 761.339844 C 320.949219 762.164062 322.222656 762.925781 323.53125 763.625 C 324.839844 764.324219 326.179688 764.957031 327.550781 765.527344 C 328.921875 766.09375 330.316406 766.59375 331.738281 767.023438 C 333.160156 767.453125 334.597656 767.8125 336.054688 768.105469 C 337.507812 768.394531 338.976562 768.609375 340.453125 768.757812 C 341.929688 768.902344 343.410156 768.972656 344.894531 768.972656 C 346.378906 768.972656 347.859375 768.902344 349.335938 768.757812 C 350.8125 768.609375 352.28125 768.394531 353.738281 768.105469 C 355.191406 767.8125 356.628906 767.453125 358.050781 767.023438 C 359.472656 766.59375 360.867188 766.09375 362.238281 765.527344 C 363.609375 764.957031 364.949219 764.324219 366.257812 763.625 C 367.570312 762.925781 368.839844 762.164062 370.074219 761.339844 C 371.308594 760.515625 372.5 759.632812 373.648438 758.695312 C 374.792969 757.753906 375.894531 756.757812 376.941406 755.710938 C 377.992188 754.660156 378.988281 753.5625 379.929688 752.414062 C 380.871094 751.269531 381.753906 750.078125 382.578125 748.847656 C 383.402344 747.613281 384.164062 746.34375 384.867188 745.035156 C 385.566406 743.726562 386.199219 742.386719 386.765625 741.015625 C 387.335938 739.644531 387.835938 738.25 388.265625 736.832031 C 388.695312 735.410156 389.054688 733.976562 389.347656 732.519531 C 389.636719 731.066406 389.851562 729.601562 390 728.125 C 390.144531 726.648438 390.21875 725.167969 390.21875 723.683594 L 390.21875 648.203125 L 420.429688 648.203125 L 420.429688 723.683594 C 420.429688 725.167969 420.503906 726.648438 420.648438 728.125 C 420.796875 729.601562 421.011719 731.066406 421.300781 732.519531 C 421.59375 733.976562 421.953125 735.410156 422.382812 736.832031 C 422.8125 738.25 423.3125 739.644531 423.882812 741.015625 C 424.449219 742.386719 425.082031 743.726562 425.78125 745.035156 C 426.484375 746.34375 427.246094 747.613281 428.070312 748.847656 C 428.894531 750.078125 429.777344 751.269531 430.71875 752.414062 C 431.660156 753.5625 432.65625 754.660156 433.707031 755.710938 C 434.753906 756.757812 435.855469 757.753906 437 758.695312 C 438.148438 759.632812 439.339844 760.515625 440.574219 761.339844 C 441.808594 762.164062 443.078125 762.925781 444.390625 763.625 C 445.699219 764.324219 447.039062 764.957031 448.410156 765.527344 C 449.78125 766.09375 451.175781 766.59375 452.597656 767.023438 C 454.019531 767.453125 455.457031 767.8125 456.910156 768.105469 C 458.367188 768.394531 459.835938 768.609375 461.3125 768.757812 C 462.789062 768.902344 464.269531 768.972656 465.753906 768.972656 C 467.238281 768.972656 468.71875 768.902344 470.195312 768.757812 C 471.671875 768.609375 473.140625 768.394531 474.59375 768.105469 C 476.050781 767.8125 477.488281 767.453125 478.910156 767.023438 C 480.332031 766.59375 481.726562 766.09375 483.097656 765.527344 C 484.46875 764.957031 485.808594 764.324219 487.117188 763.625 C 488.425781 762.925781 489.699219 762.164062 490.933594 761.339844 C 492.167969 760.515625 493.359375 759.632812 494.507812 758.695312 C 495.652344 757.753906 496.75 756.757812 497.800781 755.710938 C 498.851562 754.660156 499.847656 753.5625 500.789062 752.414062 C 501.730469 751.269531 502.613281 750.078125 503.4375 748.847656 C 504.261719 747.613281 505.023438 746.34375 505.722656 745.035156 C 506.425781 743.726562 507.058594 742.386719 507.625 741.015625 C 508.195312 739.644531 508.695312 738.25 509.125 736.832031 C 509.554688 735.410156 509.914062 733.976562 510.203125 732.519531 C 510.496094 731.066406 510.710938 729.601562 510.859375 728.125 C 511.003906 726.648438 511.074219 725.167969 511.074219 723.683594 L 511.074219 646.691406 C 513.1875 646.261719 515.277344 645.742188 517.347656 645.132812 C 519.414062 644.523438 521.453125 643.824219 523.460938 643.042969 C 525.46875 642.257812 527.441406 641.390625 529.375 640.4375 C 531.308594 639.484375 533.199219 638.449219 535.042969 637.335938 C 536.890625 636.21875 538.683594 635.027344 540.425781 633.761719 C 542.171875 632.492188 543.855469 631.152344 545.484375 629.738281 C 547.113281 628.324219 548.679688 626.847656 550.179688 625.300781 C 551.683594 623.753906 553.113281 622.144531 554.480469 620.476562 C 555.84375 618.804688 557.132812 617.082031 558.347656 615.300781 C 559.566406 613.519531 560.703125 611.691406 561.761719 609.816406 C 562.820312 607.9375 563.796875 606.019531 564.691406 604.054688 C 565.589844 602.09375 566.398438 600.101562 567.121094 598.070312 C 567.84375 596.039062 568.480469 593.980469 569.027344 591.894531 C 569.578125 589.8125 570.035156 587.707031 570.402344 585.582031 C 570.769531 583.457031 571.042969 581.324219 571.230469 579.175781 C 571.414062 577.027344 571.503906 574.875 571.503906 572.71875 L 571.503906 331.175781 C 571.503906 330.183594 571.410156 329.203125 571.214844 328.230469 C 571.023438 327.257812 570.734375 326.3125 570.355469 325.398438 C 569.976562 324.480469 569.511719 323.613281 568.960938 322.789062 C 568.410156 321.964844 567.78125 321.199219 567.082031 320.5 C 566.378906 319.800781 565.617188 319.171875 564.792969 318.621094 C 563.964844 318.070312 563.097656 317.605469 562.179688 317.226562 C 561.261719 316.847656 560.316406 316.5625 559.34375 316.367188 C 558.371094 316.175781 557.390625 316.078125 556.398438 316.078125 Z M 556.398438 316.078125 "/>
</g>
<path style=" stroke:none;fill-rule:nonzero;fill:rgb(98.039246%,98.039246%,98.039246%);fill-opacity:1;" d="M 360.003906 210.402344 C 360.003906 211.394531 359.90625 212.375 359.710938 213.347656 C 359.519531 214.320312 359.230469 215.265625 358.851562 216.179688 C 358.472656 217.097656 358.007812 217.964844 357.457031 218.789062 C 356.90625 219.613281 356.277344 220.375 355.578125 221.078125 C 354.875 221.777344 354.113281 222.40625 353.289062 222.953125 C 352.464844 223.503906 351.59375 223.972656 350.675781 224.351562 C 349.757812 224.730469 348.816406 225.015625 347.84375 225.210938 C 346.867188 225.402344 345.886719 225.5 344.894531 225.5 C 343.902344 225.5 342.921875 225.402344 341.949219 225.210938 C 340.972656 225.015625 340.03125 224.730469 339.113281 224.351562 C 338.195312 223.972656 337.328125 223.503906 336.5 222.953125 C 335.675781 222.40625 334.914062 221.777344 334.210938 221.078125 C 333.511719 220.375 332.882812 219.613281 332.332031 218.789062 C 331.78125 217.964844 331.316406 217.097656 330.9375 216.179688 C 330.558594 215.265625 330.269531 214.320312 330.078125 213.347656 C 329.882812 212.375 329.789062 211.394531 329.789062 210.402344 C 329.789062 209.410156 329.882812 208.429688 330.078125 207.457031 C 330.269531 206.484375 330.558594 205.542969 330.9375 204.625 C 331.316406 203.710938 331.78125 202.839844 332.332031 202.015625 C 332.882812 201.191406 333.511719 200.429688 334.210938 199.726562 C 334.914062 199.027344 335.675781 198.402344 336.5 197.851562 C 337.328125 197.300781 338.195312 196.835938 339.113281 196.457031 C 340.03125 196.074219 340.972656 195.789062 341.949219 195.597656 C 342.921875 195.402344 343.902344 195.304688 344.894531 195.304688 C 345.886719 195.304688 346.867188 195.402344 347.84375 195.597656 C 348.816406 195.789062 349.757812 196.074219 350.675781 196.457031 C 351.59375 196.835938 352.464844 197.300781 353.289062 197.851562 C 354.113281 198.402344 354.875 199.027344 355.578125 199.726562 C 356.277344 200.429688 356.90625 201.191406 357.457031 202.015625 C 358.007812 202.839844 358.472656 203.710938 358.851562 204.625 C 359.230469 205.542969 359.519531 206.484375 359.710938 207.457031 C 359.90625 208.429688 360.003906 209.410156 360.003906 210.402344 Z M 360.003906 210.402344 "/>
<path style=" stroke:none;fill-rule:nonzero;fill:rgb(98.039246%,98.039246%,98.039246%);fill-opacity:1;" d="M 480.859375 210.402344 C 480.859375 211.394531 480.765625 212.375 480.570312 213.347656 C 480.378906 214.320312 480.089844 215.265625 479.710938 216.179688 C 479.332031 217.097656 478.867188 217.964844 478.316406 218.789062 C 477.765625 219.613281 477.136719 220.375 476.4375 221.078125 C 475.734375 221.777344 474.972656 222.40625 474.148438 222.953125 C 473.320312 223.503906 472.453125 223.972656 471.535156 224.351562 C 470.617188 224.730469 469.675781 225.015625 468.699219 225.210938 C 467.726562 225.402344 466.746094 225.5 465.753906 225.5 C 464.761719 225.5 463.78125 225.402344 462.804688 225.210938 C 461.832031 225.015625 460.890625 224.730469 459.972656 224.351562 C 459.054688 223.972656 458.183594 223.503906 457.359375 222.953125 C 456.535156 222.40625 455.773438 221.777344 455.070312 221.078125 C 454.371094 220.375 453.742188 219.613281 453.191406 218.789062 C 452.640625 217.964844 452.175781 217.097656 451.796875 216.179688 C 451.417969 215.265625 451.128906 214.320312 450.9375 213.347656 C 450.742188 212.375 450.644531 211.394531 450.644531 210.402344 C 450.644531 209.410156 450.742188 208.429688 450.9375 207.457031 C 451.128906 206.484375 451.417969 205.542969 451.796875 204.625 C 452.175781 203.710938 452.640625 202.839844 453.191406 202.015625 C 453.742188 201.191406 454.371094 200.429688 455.070312 199.726562 C 455.773438 199.027344 456.535156 198.402344 457.359375 197.851562 C 458.183594 197.300781 459.054688 196.835938 459.972656 196.457031 C 460.890625 196.074219 461.832031 195.789062 462.804688 195.597656 C 463.78125 195.402344 464.761719 195.304688 465.753906 195.304688 C 466.746094 195.304688 467.726562 195.402344 468.699219 195.597656 C 469.675781 195.789062 470.617188 196.074219 471.535156 196.457031 C 472.453125 196.835938 473.320312 197.300781 474.148438 197.851562 C 474.972656 198.402344 475.734375 199.027344 476.4375 199.726562 C 477.136719 200.429688 477.765625 201.191406 478.316406 202.015625 C 478.867188 202.839844 479.332031 203.710938 479.710938 204.625 C 480.089844 205.542969 480.378906 206.484375 480.570312 207.457031 C 480.765625 208.429688 480.859375 209.410156 480.859375 210.402344 Z M 480.859375 210.402344 "/>
<path style=" stroke:none;fill-rule:nonzero;fill:rgb(50.588989%,78.039551%,51.759338%);fill-opacity:1;" d="M 647.042969 316.078125 C 645.558594 316.078125 644.078125 316.152344 642.601562 316.296875 C 641.121094 316.441406 639.65625 316.660156 638.199219 316.949219 C 636.746094 317.238281 635.304688 317.597656 633.886719 318.027344 C 632.464844 318.460938 631.070312 318.957031 629.699219 319.527344 C 628.328125 320.09375 626.988281 320.726562 625.675781 321.425781 C 624.367188 322.125 623.097656 322.886719 621.863281 323.710938 C 620.628906 324.535156 619.4375 325.417969 618.289062 326.359375 C 617.144531 327.300781 616.042969 328.292969 614.996094 329.34375 C 613.945312 330.390625 612.949219 331.488281 612.007812 332.636719 C 611.066406 333.78125 610.183594 334.972656 609.359375 336.207031 C 608.535156 337.441406 607.773438 338.710938 607.070312 340.019531 C 606.371094 341.328125 605.738281 342.667969 605.171875 344.035156 C 604.601562 345.40625 604.101562 346.800781 603.671875 348.222656 C 603.242188 349.640625 602.878906 351.078125 602.589844 352.53125 C 602.300781 353.988281 602.085938 355.453125 601.9375 356.929688 C 601.792969 358.40625 601.71875 359.882812 601.71875 361.367188 L 601.71875 512.332031 C 601.71875 513.816406 601.792969 515.296875 601.9375 516.773438 C 602.082031 518.25 602.300781 519.714844 602.589844 521.167969 C 602.878906 522.625 603.242188 524.0625 603.671875 525.480469 C 604.101562 526.898438 604.601562 528.292969 605.171875 529.664062 C 605.738281 531.035156 606.371094 532.375 607.070312 533.683594 C 607.773438 534.992188 608.535156 536.261719 609.359375 537.496094 C 610.183594 538.726562 611.066406 539.917969 612.007812 541.066406 C 612.949219 542.210938 613.945312 543.308594 614.996094 544.359375 C 616.042969 545.40625 617.144531 546.402344 618.289062 547.34375 C 619.4375 548.285156 620.628906 549.164062 621.863281 549.988281 C 623.097656 550.8125 624.367188 551.574219 625.675781 552.273438 C 626.988281 552.972656 628.328125 553.609375 629.699219 554.175781 C 631.070312 554.742188 632.464844 555.242188 633.886719 555.671875 C 635.304688 556.101562 636.746094 556.464844 638.199219 556.753906 C 639.65625 557.042969 641.121094 557.257812 642.601562 557.40625 C 644.078125 557.550781 645.558594 557.621094 647.042969 557.621094 C 648.527344 557.621094 650.007812 557.550781 651.484375 557.40625 C 652.960938 557.257812 654.429688 557.042969 655.882812 556.753906 C 657.339844 556.464844 658.777344 556.101562 660.199219 555.671875 C 661.621094 555.242188 663.015625 554.742188 664.386719 554.175781 C 665.757812 553.609375 667.097656 552.972656 668.40625 552.273438 C 669.714844 551.574219 670.988281 550.8125 672.222656 549.988281 C 673.457031 549.164062 674.648438 548.285156 675.792969 547.34375 C 676.941406 546.402344 678.039062 545.40625 679.089844 544.359375 C 680.140625 543.308594 681.136719 542.210938 682.078125 541.066406 C 683.019531 539.917969 683.902344 538.726562 684.726562 537.496094 C 685.550781 536.261719 686.3125 534.992188 687.011719 533.683594 C 687.710938 532.375 688.347656 531.035156 688.914062 529.664062 C 689.484375 528.292969 689.980469 526.898438 690.414062 525.480469 C 690.84375 524.0625 691.203125 522.625 691.492188 521.167969 C 691.785156 519.714844 692 518.25 692.144531 516.773438 C 692.292969 515.296875 692.363281 513.816406 692.363281 512.332031 L 692.363281 361.367188 C 692.363281 359.882812 692.292969 358.40625 692.144531 356.929688 C 692 355.453125 691.785156 353.988281 691.492188 352.53125 C 691.203125 351.078125 690.84375 349.640625 690.414062 348.222656 C 689.980469 346.800781 689.484375 345.40625 688.914062 344.035156 C 688.347656 342.667969 687.710938 341.328125 687.011719 340.019531 C 686.3125 338.710938 685.550781 337.441406 684.726562 336.207031 C 683.902344 334.972656 683.019531 333.78125 682.078125 332.636719 C 681.136719 331.488281 680.140625 330.390625 679.089844 329.34375 C 678.039062 328.292969 676.941406 327.300781 675.792969 326.359375 C 674.648438 325.417969 673.457031 324.535156 672.222656 323.710938 C 670.988281 322.886719 669.714844 322.125 668.40625 321.425781 C 667.097656 320.726562 665.757812 320.09375 664.386719 319.527344 C 663.015625 318.957031 661.621094 318.460938 660.199219 318.027344 C 658.777344 317.597656 657.339844 317.238281 655.882812 316.949219 C 654.429688 316.660156 652.960938 316.441406 651.484375 316.296875 C 650.007812 316.152344 648.527344 316.078125 647.042969 316.078125 Z M 647.042969 316.078125 "/>
<path style=" stroke:none;fill-rule:nonzero;fill:rgb(50.588989%,78.039551%,51.759338%);fill-opacity:1;" d="M 163.605469 316.078125 C 162.121094 316.078125 160.640625 316.152344 159.164062 316.296875 C 157.6875 316.441406 156.21875 316.660156 154.765625 316.949219 C 153.308594 317.238281 151.871094 317.597656 150.449219 318.027344 C 149.03125 318.460938 147.632812 318.957031 146.261719 319.527344 C 144.890625 320.09375 143.550781 320.726562 142.242188 321.425781 C 140.933594 322.125 139.660156 322.886719 138.425781 323.710938 C 137.191406 324.535156 136 325.417969 134.855469 326.359375 C 133.707031 327.300781 132.609375 328.292969 131.558594 329.34375 C 130.507812 330.390625 129.511719 331.488281 128.570312 332.636719 C 127.628906 333.78125 126.746094 334.972656 125.921875 336.207031 C 125.097656 337.441406 124.335938 338.710938 123.636719 340.019531 C 122.9375 341.328125 122.300781 342.667969 121.734375 344.035156 C 121.164062 345.40625 120.667969 346.800781 120.234375 348.222656 C 119.804688 349.640625 119.445312 351.078125 119.15625 352.53125 C 118.867188 353.988281 118.648438 355.453125 118.503906 356.929688 C 118.355469 358.40625 118.285156 359.882812 118.285156 361.367188 L 118.285156 512.332031 C 118.285156 513.816406 118.355469 515.296875 118.503906 516.773438 C 118.648438 518.25 118.867188 519.714844 119.15625 521.167969 C 119.445312 522.625 119.804688 524.0625 120.234375 525.480469 C 120.667969 526.898438 121.164062 528.292969 121.734375 529.664062 C 122.300781 531.035156 122.9375 532.375 123.636719 533.683594 C 124.335938 534.992188 125.097656 536.261719 125.921875 537.496094 C 126.746094 538.726562 127.628906 539.917969 128.570312 541.066406 C 129.511719 542.210938 130.507812 543.308594 131.558594 544.359375 C 132.609375 545.40625 133.707031 546.402344 134.855469 547.34375 C 136 548.285156 137.191406 549.164062 138.425781 549.988281 C 139.660156 550.8125 140.933594 551.574219 142.242188 552.273438 C 143.550781 552.972656 144.890625 553.609375 146.261719 554.175781 C 147.632812 554.742188 149.03125 555.242188 150.449219 555.671875 C 151.871094 556.101562 153.308594 556.464844 154.765625 556.753906 C 156.21875 557.042969 157.6875 557.257812 159.164062 557.40625 C 160.640625 557.550781 162.121094 557.621094 163.605469 557.621094 C 165.089844 557.621094 166.570312 557.550781 168.046875 557.40625 C 169.527344 557.257812 170.992188 557.042969 172.449219 556.753906 C 173.902344 556.464844 175.34375 556.101562 176.761719 555.671875 C 178.183594 555.242188 179.578125 554.742188 180.949219 554.175781 C 182.320312 553.609375 183.660156 552.972656 184.972656 552.273438 C 186.28125 551.574219 187.550781 550.8125 188.785156 549.988281 C 190.019531 549.164062 191.210938 548.285156 192.359375 547.34375 C 193.503906 546.402344 194.605469 545.40625 195.652344 544.359375 C 196.703125 543.308594 197.699219 542.210938 198.640625 541.066406 C 199.582031 539.917969 200.464844 538.726562 201.289062 537.496094 C 202.113281 536.261719 202.878906 534.992188 203.578125 533.683594 C 204.277344 532.375 204.910156 531.035156 205.476562 529.664062 C 206.046875 528.292969 206.546875 526.898438 206.976562 525.480469 C 207.40625 524.0625 207.769531 522.625 208.058594 521.167969 C 208.347656 519.714844 208.566406 518.25 208.710938 516.773438 C 208.855469 515.296875 208.929688 513.816406 208.929688 512.332031 L 208.929688 361.367188 C 208.929688 359.882812 208.855469 358.40625 208.710938 356.929688 C 208.566406 355.453125 208.347656 353.988281 208.058594 352.53125 C 207.769531 351.078125 207.40625 349.640625 206.976562 348.222656 C 206.546875 346.800781 206.046875 345.40625 205.476562 344.035156 C 204.910156 342.667969 204.277344 341.328125 203.578125 340.019531 C 202.878906 338.710938 202.113281 337.441406 201.289062 336.207031 C 200.464844 334.972656 199.582031 333.78125 198.640625 332.636719 C 197.699219 331.488281 196.703125 330.390625 195.652344 329.34375 C 194.605469 328.292969 193.503906 327.300781 192.359375 326.359375 C 191.210938 325.417969 190.019531 324.535156 188.785156 323.710938 C 187.550781 322.886719 186.28125 322.125 184.972656 321.425781 C 183.660156 320.726562 182.320312 320.09375 180.949219 319.527344 C 179.578125 318.957031 178.183594 318.460938 176.761719 318.027344 C 175.34375 317.597656 173.902344 317.238281 172.449219 316.949219 C 170.992188 316.660156 169.527344 316.441406 168.046875 316.296875 C 166.570312 316.152344 165.089844 316.078125 163.605469 316.078125 Z M 163.605469 316.078125 "/>
</g>
</svg>
