<?xml version="1.0" encoding="UTF-8"?>
<svg xmlns="http://www.w3.org/2000/svg" xmlns:xlink="http://www.w3.org/1999/xlink" width="810pt" height="809.999993pt" viewBox="0 0 810 809.999993" version="1.2">
<defs>
<clipPath id="clip1">
  <path d="M 63 63 L 747 63 L 747 747 L 63 747 Z M 63 63 "/>
</clipPath>
</defs>
<g id="surface1">
<g clip-path="url(#clip1)" clip-rule="nonzero">
<path style=" stroke:none;fill-rule:nonzero;fill:rgb(33.729553%,23.919678%,48.629761%);fill-opacity:1;" d="M 63 658.800781 C 63 707.507812 102.488281 747 151.195312 747 L 658.796875 747 C 707.507812 747 746.996094 707.507812 746.996094 658.800781 L 746.996094 151.199219 C 746.996094 102.480469 707.507812 63 658.796875 63 L 151.195312 63 C 102.480469 63 62.996094 102.488281 62.996094 151.195312 L 62.996094 658.796875 Z M 63 658.800781 "/>
</g>
<path style=" stroke:none;fill-rule:nonzero;fill:rgb(100%,100%,100%);fill-opacity:1;" d="M 346.644531 365.5625 L 346.644531 268.695312 L 431.90625 268.695312 C 440.027344 268.695312 447.855469 269.371094 455.390625 270.722656 C 462.925781 272.078125 469.605469 274.492188 475.402344 277.972656 C 481.203125 281.457031 485.851562 286.289062 489.324219 292.472656 C 492.796875 298.660156 494.535156 306.589844 494.535156 316.257812 C 494.535156 333.660156 489.324219 346.21875 478.878906 353.96875 C 468.457031 361.6875 455.097656 365.5625 438.851562 365.5625 Z M 255.574219 197.929688 L 255.574219 612.070312 L 456.273438 612.070312 C 474.816406 612.070312 492.90625 609.746094 510.484375 605.097656 C 528.09375 600.472656 543.75 593.3125 557.484375 583.640625 C 571.21875 573.96875 582.117188 561.519531 590.242188 546.234375 C 598.363281 530.953125 602.425781 512.890625 602.425781 491.996094 C 602.425781 466.105469 596.144531 443.957031 583.589844 425.601562 C 571.003906 407.21875 551.980469 394.367188 526.4375 387.019531 C 545.007812 378.121094 559.035156 366.710938 568.492188 352.792969 C 577.976562 338.871094 582.707031 321.476562 582.707031 300.59375 C 582.707031 281.261719 579.527344 265.019531 573.140625 251.871094 C 566.753906 238.722656 557.777344 228.1875 546.183594 220.261719 C 534.558594 212.332031 520.640625 206.628906 504.421875 203.152344 C 488.175781 199.667969 470.195312 197.929688 450.476562 197.929688 Z M 346.644531 541.320312 L 346.644531 427.628906 L 445.828125 427.628906 C 465.542969 427.628906 481.390625 432.171875 493.386719 441.257812 C 505.382812 450.339844 511.367188 465.519531 511.367188 486.785156 C 511.367188 497.605469 509.523438 506.503906 505.863281 513.476562 C 502.175781 520.425781 497.261719 525.929688 491.0625 529.992188 C 484.890625 534.050781 477.726562 536.964844 469.605469 538.699219 C 461.484375 540.4375 452.988281 541.320312 444.089844 541.320312 Z M 346.644531 541.320312 "/>
</g>
</svg>
