<?xml version="1.0" encoding="iso-8859-1"?>
<!-- Generator: Adobe Illustrator 19.0.0, SVG Export Plug-In . SVG Version: 6.00 Build 0)  -->
<svg version="1.1" id="Layer_1" xmlns="http://www.w3.org/2000/svg" xmlns:xlink="http://www.w3.org/1999/xlink" x="0px" y="0px"
	 viewBox="0 0 511.999 511.999" style="enable-background:new 0 0 511.999 511.999;" xml:space="preserve">
<circle style="fill:#8ECAC1;" cx="320.375" cy="153.592" r="120.203"/>
<path style="fill:#FFAA7C;" d="M320.203,33.394c-66.029,0-120.025,51.253-120.025,123.57h120.025V33.394z"/>
<path style="fill:#FFFFFF;" d="M408.435,233.724l-88.232-80.132V33.394c0,0,118.38-1.596,120.241,128.212
	C440.444,161.605,440.79,205.101,408.435,233.724z"/>
<rect x="7.861" y="329.888" style="fill:#FF7124;" width="112.186" height="168.278"/>
<path style="fill:#F2D59F;" d="M216.204,353.922h88.145c22.128,0,40.066-17.938,40.066-40.066l0,0H176.138l-16.026,16.026h-16.026
	v88.145h16.026l128.212,24.04l216.357-72.119v-32.053H352.428"/>
<path style="fill:#F7E6C5;" d="M296.336,369.948h-80.132v-16.026h82.224c13.872,0,26.992-6.306,35.659-17.138l18.342-22.928l0,0
	C352.428,344.836,327.315,369.948,296.336,369.948z"/>
<path d="M127.906,506.02H0V322.022h127.906V506.02z M15.721,490.298h96.464V337.743H15.721V490.298z"/>
<rect x="31.983" y="463.004" style="fill:#FFFFFF;" width="15.721" height="15.721"/>
<path d="M347.277,335.136c3.193-6.416,5-13.64,5-21.28v-7.861H172.883l-16.027,16.026h-12.771v15.721h19.281l16.027-16.026h156.191
	c-3.517,13.971-16.187,24.345-31.236,24.345h-88.145v15.721h88.145c11.543,0,22.146-4.103,30.428-10.926h161.502v13.484
	L287.39,436.29l-125.963-21.392l-0.654-0.11h-16.648v15.721h15.323l129.266,21.953l223.284-76.91v-40.419H347.277V335.136z"/>
<rect x="464.776" y="-17.844" transform="matrix(-0.0116 -0.9999 0.9999 -0.0116 463.9091 486.9793)" width="15.72" height="64.108"/>
<rect x="440.735" y="35.387" width="15.721" height="15.721"/>
<rect x="464.841" y="35.387" style="fill:#8ECAC1;" width="15.721" height="15.721"/>
<rect x="488.947" y="35.387" width="15.721" height="15.721"/>
<path d="M407.193,59.546V21.763h17.817V6.042h-33.538v41.093c-20.353-13.636-44.81-21.602-71.096-21.602
	c-70.612,0-128.059,57.448-128.059,128.06c0,22.077,5.616,42.866,15.493,61.016h-79.405v15.721h89.513
	c23.382,31.14,60.607,51.322,102.457,51.322c70.612,0,128.059-57.446,128.059-128.059
	C448.434,116.451,432.535,82.958,407.193,59.546z M311.818,41.578v109.098H208.076C209.555,92.936,254.815,45.892,311.818,41.578z
	 M320.376,265.929c-32.298,0-61.453-13.705-81.962-35.601h33.577v-15.721h-45.888c-9.218-14.195-15.322-30.59-17.331-48.211h111.43
	l76.387,69.644C376.548,254.58,349.765,265.929,320.376,265.929z M407.363,224.592l-79.824-74.419V41.488
	c24.169,1.528,46.282,10.739,63.932,25.202v50.446h15.721V82.382c15.94,19.395,25.521,44.203,25.521,71.211
	C432.713,180.501,423.199,205.227,407.363,224.592z"/>
<rect x="128.41" y="238.716" width="15.721" height="15.721"/>
<rect x="152.515" y="238.716" style="fill:#8ECAC1;" width="15.721" height="15.721"/>
<rect x="176.621" y="238.716" width="15.721" height="15.721"/>
<g>
</g>
<g>
</g>
<g>
</g>
<g>
</g>
<g>
</g>
<g>
</g>
<g>
</g>
<g>
</g>
<g>
</g>
<g>
</g>
<g>
</g>
<g>
</g>
<g>
</g>
<g>
</g>
<g>
</g>
</svg>
