<?xml version="1.0" encoding="UTF-8"?>
<svg xmlns="http://www.w3.org/2000/svg" xmlns:xlink="http://www.w3.org/1999/xlink" width="810pt" height="809.999993pt" viewBox="0 0 810 809.999993" version="1.2">
<g id="surface1">
<path style=" stroke:none;fill-rule:nonzero;fill:rgb(0%,78.42865%,32.548523%);fill-opacity:1;" d="M 385.484375 30.925781 C 397.757812 24.046875 412.871094 24.046875 425.125 30.925781 C 485.765625 64.921875 668.257812 167.257812 728.917969 201.253906 C 741.191406 208.117188 748.746094 220.828125 748.746094 234.585938 C 748.746094 302.578125 748.746094 507.234375 748.746094 575.226562 C 748.746094 588.984375 741.191406 601.695312 728.917969 608.574219 C 668.273438 642.574219 485.785156 744.90625 425.125 778.90625 C 412.851562 785.785156 397.742188 785.785156 385.484375 778.90625 C 324.84375 744.90625 142.351562 642.574219 81.691406 608.574219 C 69.4375 601.695312 61.882812 589.003906 61.882812 575.246094 C 61.882812 507.25 61.882812 302.597656 61.882812 234.601562 C 61.882812 220.84375 69.4375 208.132812 81.710938 201.253906 C 142.335938 167.257812 324.859375 64.921875 385.484375 30.925781 Z M 385.484375 30.925781 "/>
<path style=" stroke:none;fill-rule:nonzero;fill:rgb(41.178894%,94.119263%,68.238831%);fill-opacity:1;" d="M 67.375 592.757812 C 62.566406 586.332031 61.882812 580.230469 61.882812 572.015625 C 61.882812 504.417969 61.882812 300.9375 61.882812 233.320312 C 61.882812 219.636719 69.417969 206.996094 81.65625 200.171875 C 142.082031 166.375 323.957031 64.632812 384.382812 30.816406 C 396.621094 23.972656 413.195312 24.117188 425.433594 30.960938 C 485.859375 64.761719 667.117188 165.632812 727.542969 199.433594 C 732.425781 202.175781 736.148438 205.480469 739.472656 209.832031 Z M 67.375 592.757812 "/>
<path style=" stroke:none;fill-rule:nonzero;fill:rgb(100%,100%,100%);fill-opacity:1;" d="M 405.3125 152.144531 C 265.589844 152.144531 152.257812 265.351562 152.257812 404.914062 C 152.257812 544.480469 265.589844 657.683594 405.3125 657.683594 C 545.035156 657.683594 658.371094 544.480469 658.371094 404.914062 C 658.371094 265.351562 545.035156 152.144531 405.3125 152.144531 Z M 405.3125 531.300781 C 335.542969 531.300781 278.785156 474.609375 278.785156 404.914062 C 278.785156 335.222656 335.542969 278.53125 405.3125 278.53125 C 475.085938 278.53125 531.839844 335.222656 531.839844 404.914062 C 531.839844 474.609375 475.085938 531.300781 405.3125 531.300781 Z M 405.3125 531.300781 "/>
<path style=" stroke:none;fill-rule:nonzero;fill:rgb(0%,90.19928%,46.269226%);fill-opacity:1;" d="M 739.4375 210.011719 C 748.765625 218.734375 748.582031 231.878906 748.582031 242.222656 C 748.582031 310.742188 748.003906 505.625 748.746094 574.144531 C 748.820312 581.292969 746.449219 588.824219 742.90625 594.492188 L 397.957031 404.914062 Z M 739.4375 210.011719 "/>
<path style=" stroke:none;fill-rule:nonzero;fill:rgb(100%,100%,100%);fill-opacity:1;" d="M 586.066406 332.695312 L 604.144531 332.695312 L 604.144531 477.136719 L 586.066406 477.136719 Z M 640.292969 332.695312 L 658.371094 332.695312 L 658.371094 477.136719 L 640.292969 477.136719 Z M 640.292969 332.695312 "/>
<path style=" stroke:none;fill-rule:nonzero;fill:rgb(100%,100%,100%);fill-opacity:1;" d="M 549.917969 422.96875 L 694.519531 422.96875 L 694.519531 441.023438 L 549.917969 441.023438 Z M 549.917969 368.804688 L 694.519531 368.804688 L 694.519531 386.859375 L 549.917969 386.859375 Z M 549.917969 368.804688 "/>
</g>
</svg>
