<?xml version="1.0" encoding="UTF-8"?>
<svg xmlns="http://www.w3.org/2000/svg" xmlns:xlink="http://www.w3.org/1999/xlink" width="810pt" height="809.999993pt" viewBox="0 0 810 809.999993" version="1.2">
<defs>
<clipPath id="clip1">
  <path d="M 202 25.3125 L 608 25.3125 L 608 785.0625 L 202 785.0625 Z M 202 25.3125 "/>
</clipPath>
</defs>
<g id="surface1">
<path style=" stroke:none;fill-rule:nonzero;fill:rgb(23.919678%,41.958618%,74.119568%);fill-opacity:1;" d="M 506.25 304.023438 L 506.25 418.042969 L 493.59375 430.710938 L 316.40625 430.710938 L 303.75 418.042969 L 303.75 304.023438 C 303.75 297.046875 309.433594 291.355469 316.40625 291.355469 L 493.59375 291.355469 C 500.566406 291.355469 506.25 297.046875 506.25 304.023438 "/>
<path style=" stroke:none;fill-rule:nonzero;fill:rgb(68.629456%,72.158813%,77.648926%);fill-opacity:1;" d="M 442.96875 519.394531 L 367.03125 519.394531 L 367.03125 456.050781 L 442.96875 456.050781 L 442.96875 519.394531 "/>
<path style=" stroke:none;fill-rule:nonzero;fill:rgb(42.749023%,78.039551%,19.60907%);fill-opacity:1;" d="M 113.90625 595.40625 C 113.90625 616.390625 96.898438 633.414062 75.9375 633.414062 C 54.976562 633.414062 37.96875 616.390625 37.96875 595.40625 C 37.96875 574.421875 54.976562 557.398438 75.9375 557.398438 C 96.898438 557.398438 113.90625 574.421875 113.90625 595.40625 "/>
<path style=" stroke:none;fill-rule:nonzero;fill:rgb(42.749023%,78.039551%,19.60907%);fill-opacity:1;" d="M 772.03125 215.34375 C 772.03125 236.328125 755.023438 253.351562 734.0625 253.351562 C 713.101562 253.351562 696.09375 236.328125 696.09375 215.34375 C 696.09375 194.359375 713.101562 177.335938 734.0625 177.335938 C 755.023438 177.335938 772.03125 194.359375 772.03125 215.34375 "/>
<path style=" stroke:none;fill-rule:nonzero;fill:rgb(96.469116%,52.159119%,9.408569%);fill-opacity:1;" d="M 354.375 75.988281 C 354.375 96.96875 337.367188 113.992188 316.40625 113.992188 C 295.445312 113.992188 278.4375 96.96875 278.4375 75.988281 C 278.4375 55.003906 295.445312 37.980469 316.40625 37.980469 C 337.367188 37.980469 354.375 55.003906 354.375 75.988281 "/>
<path style=" stroke:none;fill-rule:nonzero;fill:rgb(81.568909%,84.309387%,87.449646%);fill-opacity:1;" d="M 506.25 418.042969 L 506.25 456.050781 C 506.25 463.027344 500.566406 468.71875 493.59375 468.71875 L 316.40625 468.71875 C 309.433594 468.71875 303.75 463.027344 303.75 456.050781 L 303.75 418.042969 L 506.25 418.042969 "/>
<path style=" stroke:none;fill-rule:nonzero;fill:rgb(35.688782%,56.858826%,82.749939%);fill-opacity:1;" d="M 468.28125 291.355469 C 468.28125 294.128906 467.390625 296.949219 465.511719 299.226562 L 370.691406 418.042969 L 338.40625 418.042969 L 439.558594 291.355469 L 468.28125 291.355469 "/>
<path style=" stroke:none;fill-rule:nonzero;fill:rgb(81.568909%,84.309387%,87.449646%);fill-opacity:1;" d="M 480.9375 532.0625 L 329.0625 532.0625 C 322.089844 532.0625 316.40625 526.371094 316.40625 519.394531 C 316.40625 512.417969 322.089844 506.726562 329.0625 506.726562 L 480.9375 506.726562 C 487.910156 506.726562 493.59375 512.417969 493.59375 519.394531 C 493.59375 526.371094 487.910156 532.0625 480.9375 532.0625 "/>
<g clip-path="url(#clip1)" clip-rule="nonzero">
<path style=" stroke:none;fill-rule:nonzero;fill:rgb(96.469116%,52.159119%,9.408569%);fill-opacity:1;" d="M 405 785.4375 C 344.386719 785.4375 287.730469 736.097656 249.664062 650.089844 C 233.496094 613.816406 221.238281 572.9375 213.328125 528.597656 C 206.160156 489.503906 202.5 448.03125 202.5 405.375 C 202.5 362.71875 206.160156 321.246094 213.328125 282.101562 C 221.238281 237.8125 233.496094 196.933594 249.664062 160.660156 C 259.601562 137.945312 271.171875 117.308594 284.121094 99.445312 C 288.226562 93.804688 296.1875 92.515625 301.820312 96.625 C 307.457031 100.78125 308.742188 108.699219 304.640625 114.339844 C 292.773438 130.71875 282.046875 149.722656 272.800781 170.902344 C 257.425781 205.398438 245.808594 244.292969 238.242188 286.605469 C 231.324219 324.316406 227.8125 364.25 227.8125 405.375 C 227.8125 446.5 231.324219 486.433594 238.242188 524.046875 C 245.808594 566.457031 257.425781 605.351562 272.753906 639.796875 C 306.667969 716.253906 354.820312 760.101562 405 760.101562 C 455.179688 760.101562 503.332031 716.253906 537.199219 639.796875 C 552.574219 605.351562 564.191406 566.457031 571.757812 524.144531 C 578.675781 486.433594 582.1875 446.5 582.1875 405.375 C 582.1875 364.25 578.675781 324.316406 571.757812 286.703125 C 564.191406 244.292969 552.574219 205.398438 537.246094 170.953125 C 503.332031 94.496094 455.179688 50.648438 405 50.648438 C 387.796875 50.648438 370.839844 55.699219 354.671875 65.644531 C 348.691406 69.308594 340.878906 67.425781 337.269531 61.4375 C 333.609375 55.5 335.488281 47.679688 341.421875 44.019531 C 361.691406 31.597656 383.097656 25.3125 405 25.3125 C 465.613281 25.3125 522.269531 74.652344 560.335938 160.660156 C 576.503906 196.933594 588.761719 237.8125 596.671875 282.152344 C 603.839844 321.246094 607.5 362.71875 607.5 405.375 C 607.5 448.03125 603.839844 489.503906 596.671875 528.648438 C 588.761719 572.9375 576.503906 613.816406 560.335938 650.140625 C 522.269531 736.097656 465.613281 785.4375 405 785.4375 "/>
</g>
<path style=" stroke:none;fill-rule:nonzero;fill:rgb(23.919678%,41.958618%,74.119568%);fill-opacity:1;" d="M 231.421875 177.089844 C 196.074219 177.089844 164.085938 182.039062 137.140625 192.132812 C 104.464844 204.457031 82.265625 223.460938 71.140625 248.699219 C 30.503906 340.695312 147.425781 485.742188 331.78125 572.148438 C 459.382812 631.878906 590.097656 649.644531 672.859375 618.617188 C 705.535156 606.292969 727.734375 587.289062 738.859375 562.050781 C 779.496094 470.054688 662.574219 325.007812 478.21875 238.601562 C 392.144531 198.320312 304.640625 177.089844 231.421875 177.089844 Z M 578.925781 658.800781 C 501.652344 658.800781 410.289062 636.875 321.003906 595.058594 C 120.976562 501.378906 1.039062 344.703125 48.003906 238.453125 C 61.75 207.226562 89.484375 182.980469 128.242188 168.429688 C 217.132812 135.027344 355.363281 153.136719 488.996094 215.691406 C 689.023438 309.371094 808.914062 465.996094 762.042969 572.296875 C 748.25 603.570312 720.515625 627.769531 681.757812 642.320312 C 652.242188 653.40625 617.339844 658.800781 578.925781 658.800781 "/>
<path style=" stroke:none;fill-rule:nonzero;fill:rgb(42.749023%,78.039551%,19.60907%);fill-opacity:1;" d="M 57.597656 574.769531 C 52.453125 574.769531 47.707031 571.652344 45.730469 566.605469 C 27.585938 518.800781 41.925781 458.871094 86.222656 397.902344 C 117.464844 354.453125 162.800781 311.894531 217.382812 274.777344 C 217.824219 274.433594 218.222656 274.085938 218.667969 273.789062 C 250.605469 252.015625 285.0625 232.464844 321.054688 215.640625 C 347.699219 203.21875 374.59375 192.429688 400.996094 183.671875 C 452.066406 166.597656 501.503906 156.355469 547.925781 153.1875 C 614.371094 148.488281 670.386719 158.433594 709.886719 181.890625 C 715.917969 185.503906 717.894531 193.273438 714.335938 199.261719 C 710.726562 205.296875 702.964844 207.277344 696.984375 203.714844 C 661.882812 182.832031 611.011719 174.070312 549.65625 178.425781 C 505.359375 181.496094 458.046875 191.34375 409.003906 207.722656 C 383.496094 216.183594 357.539062 226.578125 331.78125 238.601562 C 297.472656 254.636719 264.644531 273.242188 234.191406 293.878906 C 233.746094 294.226562 233.300781 294.574219 232.855469 294.871094 C 180.152344 330.550781 136.550781 371.328125 106.6875 412.796875 C 67.632812 466.640625 54.382812 518.058594 69.410156 557.597656 C 71.882812 564.128906 68.621094 571.453125 62.09375 573.929688 C 60.613281 574.472656 59.078125 574.769531 57.597656 574.769531 "/>
<path style=" stroke:none;fill-rule:nonzero;fill:rgb(42.749023%,78.039551%,19.60907%);fill-opacity:1;" d="M 230.777344 658.699219 C 178.226562 658.699219 133.632812 648.65625 100.558594 629.105469 C 96.554688 626.980469 93.835938 622.773438 93.835938 617.972656 C 93.835938 610.945312 99.421875 605.304688 106.441406 605.304688 L 106.539062 605.304688 C 108.863281 605.304688 111.089844 605.898438 113.015625 607.035156 C 148.066406 627.917969 198.988281 636.628906 260.34375 632.324219 C 304.640625 629.253906 351.953125 619.457031 400.996094 603.027344 C 426.503906 594.566406 452.460938 584.171875 478.21875 572.148438 C 512.527344 556.113281 545.40625 537.507812 575.859375 516.820312 C 576.253906 516.523438 576.699219 516.175781 577.144531 515.878906 C 629.847656 480.199219 673.5 439.421875 703.3125 397.953125 C 742.367188 344.109375 755.617188 292.691406 740.589844 253.152344 C 738.117188 246.621094 741.378906 239.296875 747.90625 236.820312 C 754.480469 234.347656 761.746094 237.613281 764.269531 244.144531 C 782.414062 291.949219 768.074219 351.878906 723.777344 412.847656 C 692.535156 456.296875 647.199219 498.855469 592.570312 535.972656 C 592.175781 536.367188 591.777344 536.664062 591.332031 536.960938 C 559.394531 558.738281 524.9375 578.285156 488.945312 595.109375 C 462.300781 607.582031 435.355469 618.320312 409.003906 627.078125 C 357.933594 644.152344 308.496094 654.394531 262.074219 657.5625 C 251.34375 658.355469 240.914062 658.699219 230.777344 658.699219 "/>
</g>
</svg>
