<?xml version="1.0" encoding="UTF-8"?>
<svg xmlns="http://www.w3.org/2000/svg" xmlns:xlink="http://www.w3.org/1999/xlink" width="810pt" height="809.999993pt" viewBox="0 0 810 809.999993" version="1.2">
<defs>
<clipPath id="clip1">
  <path d="M 128 167 L 681.945312 167 L 681.945312 795.289062 L 128 795.289062 Z M 128 167 "/>
</clipPath>
<clipPath id="clip2">
  <path d="M 258 14.09375 L 343 14.09375 L 343 120 L 258 120 Z M 258 14.09375 "/>
</clipPath>
<clipPath id="clip3">
  <path d="M 359 14.09375 L 444 14.09375 L 444 121 L 359 121 Z M 359 14.09375 "/>
</clipPath>
<clipPath id="clip4">
  <path d="M 459 14.09375 L 544 14.09375 L 544 121 L 459 121 Z M 459 14.09375 "/>
</clipPath>
</defs>
<g id="surface1">
<g clip-path="url(#clip1)" clip-rule="nonzero">
<path style=" stroke:none;fill-rule:nonzero;fill:rgb(14.898682%,30.198669%,89.408875%);fill-opacity:1;" d="M 404.640625 795.265625 L 178.550781 732.527344 L 128.171875 167.621094 L 681.777344 167.609375 L 631.367188 732.433594 L 404.648438 795.257812 Z M 404.640625 795.265625 "/>
</g>
<path style=" stroke:none;fill-rule:nonzero;fill:rgb(16.079712%,39.608765%,94.509888%);fill-opacity:1;" d="M 588.191406 696.472656 L 631.289062 213.804688 L 404.984375 213.800781 L 404.984375 747.230469 L 588.191406 696.464844 Z M 588.191406 696.472656 "/>
<path style=" stroke:none;fill-rule:nonzero;fill:rgb(92.158508%,92.158508%,92.158508%);fill-opacity:1;" d="M 243.675781 423.324219 L 249.886719 492.59375 L 404.984375 492.59375 L 404.984375 423.324219 Z M 243.675781 423.324219 "/>
<path style=" stroke:none;fill-rule:nonzero;fill:rgb(92.158508%,92.158508%,92.158508%);fill-opacity:1;" d="M 231.191406 283.074219 L 237.492188 352.363281 L 404.984375 352.363281 L 404.984375 283.074219 Z M 231.191406 283.074219 "/>
<path style=" stroke:none;fill-rule:nonzero;fill:rgb(92.158508%,92.158508%,92.158508%);fill-opacity:1;" d="M 404.984375 603.253906 L 404.683594 603.339844 L 327.492188 582.492188 L 322.558594 527.238281 L 252.984375 527.238281 L 262.691406 636.035156 L 404.660156 675.429688 L 404.984375 675.34375 Z M 404.984375 603.253906 "/>
<g clip-path="url(#clip2)" clip-rule="nonzero">
<path style=" stroke:none;fill-rule:nonzero;fill:rgb(0%,0%,0%);fill-opacity:1;" d="M 258.464844 14.09375 L 342.410156 14.09375 L 342.410156 49.183594 L 293.566406 49.183594 L 293.566406 84.277344 L 342.410156 84.277344 L 342.410156 119.367188 L 258.464844 119.367188 Z M 258.464844 14.09375 "/>
</g>
<g clip-path="url(#clip3)" clip-rule="nonzero">
<path style=" stroke:none;fill-rule:nonzero;fill:rgb(0%,0%,0%);fill-opacity:1;" d="M 359.195312 14.09375 L 443.136719 14.09375 L 443.136719 44.605469 L 394.308594 44.605469 L 394.308594 50.710938 L 443.136719 50.710938 L 443.136719 120.894531 L 359.195312 120.894531 L 359.195312 88.855469 L 408.046875 88.855469 L 408.046875 82.75 L 359.195312 82.75 Z M 359.195312 14.09375 "/>
</g>
<g clip-path="url(#clip4)" clip-rule="nonzero">
<path style=" stroke:none;fill-rule:nonzero;fill:rgb(0%,0%,0%);fill-opacity:1;" d="M 459.933594 14.09375 L 543.875 14.09375 L 543.875 44.605469 L 495.027344 44.605469 L 495.027344 50.710938 L 543.875 50.710938 L 543.875 120.894531 L 459.933594 120.894531 L 459.933594 88.855469 L 508.761719 88.855469 L 508.761719 82.75 L 459.933594 82.75 Z M 459.933594 14.09375 "/>
</g>
<path style=" stroke:none;fill-rule:nonzero;fill:rgb(100%,100%,100%);fill-opacity:1;" d="M 565.859375 423.324219 L 578.359375 283.074219 L 404.746094 283.074219 L 404.746094 352.363281 L 502.40625 352.363281 L 496.109375 423.324219 L 404.746094 423.324219 L 404.746094 492.59375 L 490.097656 492.59375 L 482.046875 582.449219 L 404.746094 603.320312 L 404.746094 675.386719 L 546.828125 636.035156 L 547.871094 624.320312 L 564.167969 441.917969 Z M 565.859375 423.324219 "/>
</g>
</svg>
