<?xml version="1.0" encoding="UTF-8"?>
<svg xmlns="http://www.w3.org/2000/svg" xmlns:xlink="http://www.w3.org/1999/xlink" width="810pt" height="809.999993pt" viewBox="0 0 810 809.999993" version="1.2">
<defs>
<clipPath id="clip1">
  <path d="M 39 49 L 593 49 L 593 761.429688 L 39 761.429688 Z M 39 49 "/>
</clipPath>
</defs>
<g id="surface1">
<g clip-path="url(#clip1)" clip-rule="nonzero">
<path style=" stroke:none;fill-rule:nonzero;fill:rgb(45.098877%,45.098877%,45.098877%);fill-opacity:1;" d="M 522.261719 128.753906 C 516.589844 128.753906 511.976562 124.132812 511.976562 118.445312 L 511.976562 77.441406 L 560.929688 128.753906 Z M 140.335938 652.523438 L 502.347656 652.523438 L 502.347656 735.09375 C 502.347656 740.765625 497.730469 745.382812 492.0625 745.382812 L 66.292969 745.382812 C 60.613281 745.382812 55.996094 740.765625 55.996094 735.09375 L 55.996094 184.707031 C 55.996094 179.023438 60.613281 174.402344 66.292969 174.402344 L 113.816406 174.402344 L 113.816406 625.972656 C 113.816406 640.605469 125.714844 652.523438 140.335938 652.523438 Z M 584.507812 490.898438 C 589 490.898438 592.625 487.257812 592.625 482.777344 L 592.625 157.167969 C 592.625 144.996094 585.96875 128.613281 577.46875 119.894531 L 523.667969 64.6875 C 515.121094 55.917969 498.835938 49.050781 486.597656 49.050781 L 140.335938 49.050781 C 125.714844 49.050781 113.816406 60.957031 113.816406 75.589844 L 113.816406 158.15625 L 66.292969 158.15625 C 51.671875 158.15625 39.761719 170.074219 39.761719 184.707031 L 39.761719 735.09375 C 39.761719 749.726562 51.671875 761.628906 66.292969 761.628906 L 492.0625 761.628906 C 506.6875 761.628906 518.582031 749.726562 518.582031 735.09375 L 518.582031 652.523438 L 566.105469 652.523438 C 580.730469 652.523438 592.625 640.605469 592.625 625.972656 L 592.625 560.496094 C 592.625 556.019531 589 552.375 584.507812 552.375 C 580.03125 552.375 576.390625 556.019531 576.390625 560.496094 L 576.390625 625.972656 C 576.390625 631.65625 571.773438 636.277344 566.105469 636.277344 L 140.335938 636.277344 C 134.667969 636.277344 130.050781 631.65625 130.050781 625.972656 L 130.050781 75.589844 C 130.050781 69.914062 134.667969 65.296875 140.335938 65.296875 L 486.597656 65.296875 C 489.679688 65.296875 493.34375 66.058594 497.007812 67.300781 C 496.210938 69.574219 495.742188 72.3125 495.742188 75.589844 L 495.742188 118.445312 C 495.742188 133.078125 507.636719 144.996094 522.261719 144.996094 L 561.503906 144.996094 C 566.613281 144.996094 570.175781 143.828125 572.753906 142.28125 C 574.945312 147.34375 576.390625 152.839844 576.390625 157.167969 L 576.390625 482.777344 C 576.390625 487.257812 580.03125 490.898438 584.507812 490.898438 "/>
</g>
<path style=" stroke:none;fill-rule:nonzero;fill:rgb(18.429565%,18.03894%,17.649841%);fill-opacity:1;" d="M 487.320312 448.207031 C 471.910156 468.167969 448.597656 479.628906 423.359375 479.628906 C 405.386719 479.628906 388.355469 473.804688 374.085938 462.789062 C 338.863281 435.550781 332.332031 384.722656 359.550781 349.464844 C 374.949219 329.503906 398.257812 318.054688 423.511719 318.054688 C 441.484375 318.054688 458.515625 323.882812 472.785156 334.898438 C 508.003906 362.121094 514.523438 412.949219 487.320312 448.207031 Z M 482.703125 322.039062 C 465.566406 308.804688 445.097656 301.8125 423.511719 301.8125 C 393.199219 301.8125 365.195312 315.566406 346.703125 339.542969 C 314.019531 381.878906 321.855469 442.9375 364.167969 475.644531 C 381.300781 488.878906 401.757812 495.875 423.359375 495.875 C 453.671875 495.875 481.664062 482.117188 500.167969 458.140625 C 532.851562 415.792969 525.011719 354.746094 482.703125 322.039062 "/>
<path style=" stroke:none;fill-rule:nonzero;fill:rgb(18.429565%,18.03894%,17.649841%);fill-opacity:1;" d="M 751.113281 643.21875 L 741.878906 655.199219 C 739.914062 657.726562 736.933594 659.183594 733.699219 659.183594 C 731.402344 659.183594 729.234375 658.449219 727.433594 657.054688 L 575.238281 539.441406 C 570.75 535.976562 569.921875 529.492188 573.386719 525 L 582.621094 513.03125 C 584.574219 510.507812 587.554688 509.046875 590.800781 509.046875 C 593.09375 509.046875 595.25 509.785156 597.050781 511.179688 L 749.261719 628.789062 C 751.417969 630.453125 752.800781 632.875 753.15625 635.617188 C 753.511719 638.359375 752.773438 641.0625 751.113281 643.21875 Z M 545.722656 525.9375 C 543.492188 525.9375 541.398438 525.230469 539.660156 523.882812 C 537.558594 522.257812 536.210938 519.871094 535.882812 517.167969 C 535.550781 514.441406 536.289062 511.738281 537.960938 509.566406 L 558.738281 482.648438 C 560.714844 480.085938 563.710938 478.613281 566.957031 478.613281 C 569.175781 478.613281 571.28125 479.324219 573.019531 480.667969 C 577.417969 484.070312 578.179688 490.492188 574.707031 494.984375 L 553.929688 521.902344 C 551.964844 524.46875 548.972656 525.9375 545.722656 525.9375 Z M 352.21875 491.128906 C 301.359375 451.820312 291.9375 378.453125 331.203125 327.574219 C 353.4375 298.765625 387.074219 282.242188 423.511719 282.242188 C 449.460938 282.242188 474.054688 290.640625 494.648438 306.558594 C 519.28125 325.59375 535.03125 353.082031 539.003906 383.972656 C 542.933594 414.636719 534.792969 444.996094 516.070312 469.539062 L 515.285156 470.566406 C 493.050781 499.085938 459.582031 515.429688 423.347656 515.429688 C 397.398438 515.429688 372.804688 507.027344 352.21875 491.128906 Z M 532.355469 475.007812 L 538.851562 480.035156 L 530.417969 490.976562 L 523.921875 485.949219 L 528.082031 480.542969 C 528.222656 480.363281 528.375 480.210938 528.5 480.035156 C 528.664062 479.832031 528.804688 479.617188 528.957031 479.414062 Z M 769.25 633.550781 C 768.347656 626.503906 764.773438 620.25 759.179688 615.921875 L 606.984375 498.324219 C 602.835938 495.113281 597.941406 493.347656 592.765625 492.96875 C 594.289062 483.691406 590.839844 473.90625 582.9375 467.800781 C 578.332031 464.246094 572.800781 462.367188 566.957031 462.367188 C 560.742188 462.367188 554.894531 464.476562 550.203125 468.28125 L 540.753906 460.984375 C 553.5625 436.898438 558.648438 409.523438 555.097656 381.90625 C 550.582031 346.710938 532.636719 315.390625 504.566406 293.699219 C 481.117188 275.578125 453.074219 265.996094 423.511719 265.996094 C 382.011719 265.996094 343.683594 284.816406 318.355469 317.636719 C 273.609375 375.609375 284.351562 459.207031 342.300781 503.984375 C 365.753906 522.105469 393.78125 531.675781 423.347656 531.675781 C 456.777344 531.675781 488.15625 519.441406 512.332031 497.523438 L 521.945312 504.960938 C 519.953125 509.363281 519.167969 514.238281 519.773438 519.148438 C 520.636719 526.191406 524.175781 532.4375 529.742188 536.738281 C 534.347656 540.292969 539.878906 542.183594 545.722656 542.183594 C 549.503906 542.183594 553.132812 541.359375 556.453125 539.898438 C 558.078125 544.660156 561.058594 549.011719 565.320312 552.300781 L 717.515625 669.910156 C 722.183594 673.515625 727.777344 675.429688 733.699219 675.429688 C 742.007812 675.429688 749.667969 671.671875 754.726562 665.125 L 763.960938 653.15625 C 768.285156 647.558594 770.164062 640.59375 769.25 633.550781 "/>
<path style=" stroke:none;fill-rule:nonzero;fill:rgb(45.098877%,45.098877%,45.098877%);fill-opacity:1;" d="M 477.4375 194.367188 L 188.582031 194.367188 C 184.105469 194.367188 180.464844 190.738281 180.464844 186.242188 C 180.464844 181.765625 184.105469 178.121094 188.582031 178.121094 L 477.4375 178.121094 C 481.929688 178.121094 485.554688 181.765625 485.554688 186.242188 C 485.554688 190.738281 481.929688 194.367188 477.4375 194.367188 "/>
<path style=" stroke:none;fill-rule:nonzero;fill:rgb(45.098877%,45.098877%,45.098877%);fill-opacity:1;" d="M 477.4375 255.273438 L 188.582031 255.273438 C 184.105469 255.273438 180.464844 251.640625 180.464844 247.148438 C 180.464844 242.667969 184.105469 239.027344 188.582031 239.027344 L 477.4375 239.027344 C 481.929688 239.027344 485.554688 242.667969 485.554688 247.148438 C 485.554688 251.640625 481.929688 255.273438 477.4375 255.273438 "/>
<path style=" stroke:none;fill-rule:nonzero;fill:rgb(45.098877%,45.098877%,45.098877%);fill-opacity:1;" d="M 477.4375 559.8125 L 188.582031 559.8125 C 184.105469 559.8125 180.464844 556.171875 180.464844 551.691406 C 180.464844 547.195312 184.105469 543.566406 188.582031 543.566406 L 477.4375 543.566406 C 481.929688 543.566406 485.554688 547.195312 485.554688 551.691406 C 485.554688 556.171875 481.929688 559.8125 477.4375 559.8125 "/>
<path style=" stroke:none;fill-rule:nonzero;fill:rgb(45.098877%,45.098877%,45.098877%);fill-opacity:1;" d="M 285.164062 316.175781 L 188.582031 316.175781 C 184.105469 316.175781 180.464844 312.546875 180.464844 308.054688 C 180.464844 303.574219 184.105469 299.933594 188.582031 299.933594 L 285.164062 299.933594 C 289.640625 299.933594 293.28125 303.574219 293.28125 308.054688 C 293.28125 312.546875 289.640625 316.175781 285.164062 316.175781 "/>
<path style=" stroke:none;fill-rule:nonzero;fill:rgb(45.098877%,45.098877%,45.098877%);fill-opacity:1;" d="M 285.164062 498.90625 L 188.582031 498.90625 C 184.105469 498.90625 180.464844 495.265625 180.464844 490.785156 C 180.464844 486.292969 184.105469 482.660156 188.582031 482.660156 L 285.164062 482.660156 C 289.640625 482.660156 293.28125 486.292969 293.28125 490.785156 C 293.28125 495.265625 289.640625 498.90625 285.164062 498.90625 "/>
<path style=" stroke:none;fill-rule:nonzero;fill:rgb(45.098877%,45.098877%,45.098877%);fill-opacity:1;" d="M 270.628906 377.097656 L 188.582031 377.097656 C 184.105469 377.097656 180.464844 373.453125 180.464844 368.972656 C 180.464844 364.480469 184.105469 360.851562 188.582031 360.851562 L 270.628906 360.851562 C 275.121094 360.851562 278.746094 364.480469 278.746094 368.972656 C 278.746094 373.453125 275.121094 377.097656 270.628906 377.097656 "/>
<path style=" stroke:none;fill-rule:nonzero;fill:rgb(45.098877%,45.098877%,45.098877%);fill-opacity:1;" d="M 270.628906 437.988281 L 188.582031 437.988281 C 184.105469 437.988281 180.464844 434.359375 180.464844 429.867188 C 180.464844 425.386719 184.105469 421.742188 188.582031 421.742188 L 270.628906 421.742188 C 275.121094 421.742188 278.746094 425.386719 278.746094 429.867188 C 278.746094 434.359375 275.121094 437.988281 270.628906 437.988281 "/>
</g>
</svg>
