<?xml version="1.0" encoding="UTF-8"?>
<svg xmlns="http://www.w3.org/2000/svg" xmlns:xlink="http://www.w3.org/1999/xlink" width="810pt" height="809.999993pt" viewBox="0 0 810 809.999993" version="1.2">
<defs>
<clipPath id="clip1">
  <path d="M 270 17.71875 L 541 17.71875 L 541 792.46875 L 270 792.46875 Z M 270 17.71875 "/>
</clipPath>
</defs>
<g id="surface1">
<path style=" stroke:none;fill-rule:nonzero;fill:rgb(45.098877%,45.098877%,45.098877%);fill-opacity:1;" d="M 405.054688 403.945312 C 369.84375 403.945312 334.199219 393.816406 334.199219 374.453125 L 334.199219 344.808594 C 334.199219 341.089844 337.210938 338.074219 340.929688 338.074219 C 344.644531 338.074219 347.660156 341.089844 347.660156 344.808594 L 347.660156 374.453125 C 347.660156 379.246094 367.1875 390.484375 405.054688 390.484375 C 442.917969 390.484375 462.449219 379.246094 462.449219 374.453125 L 462.449219 344.808594 C 462.449219 341.089844 465.460938 338.074219 469.175781 338.074219 C 472.898438 338.074219 475.90625 341.089844 475.90625 344.808594 L 475.90625 374.453125 C 475.90625 393.816406 440.261719 403.945312 405.054688 403.945312 "/>
<path style=" stroke:none;fill-rule:nonzero;fill:rgb(45.098877%,45.098877%,45.098877%);fill-opacity:1;" d="M 405.054688 434.347656 C 369.84375 434.347656 334.199219 424.210938 334.199219 404.847656 L 334.199219 375.199219 C 334.199219 371.480469 337.210938 368.46875 340.929688 368.46875 C 344.644531 368.46875 347.660156 371.480469 347.660156 375.199219 L 347.660156 404.847656 C 347.660156 409.640625 367.1875 420.878906 405.054688 420.878906 C 442.917969 420.878906 462.449219 409.640625 462.449219 404.847656 L 462.449219 375.199219 C 462.449219 371.480469 465.460938 368.46875 469.175781 368.46875 C 472.898438 368.46875 475.90625 371.480469 475.90625 375.199219 L 475.90625 404.847656 C 475.90625 424.210938 440.261719 434.347656 405.054688 434.347656 "/>
<path style=" stroke:none;fill-rule:nonzero;fill:rgb(45.098877%,45.098877%,45.098877%);fill-opacity:1;" d="M 405.054688 464.761719 C 369.84375 464.761719 334.199219 454.625 334.199219 435.265625 L 334.199219 405.625 C 334.199219 401.902344 337.210938 398.882812 340.929688 398.882812 C 344.644531 398.882812 347.660156 401.902344 347.660156 405.625 L 347.660156 435.265625 C 347.660156 440.0625 367.1875 451.296875 405.054688 451.296875 C 442.917969 451.296875 462.449219 440.0625 462.449219 435.265625 L 462.449219 405.617188 C 462.449219 401.898438 465.460938 398.882812 469.175781 398.882812 C 472.898438 398.882812 475.90625 401.898438 475.90625 405.617188 L 475.90625 435.265625 C 475.90625 454.625 440.261719 464.761719 405.054688 464.761719 "/>
<path style=" stroke:none;fill-rule:nonzero;fill:rgb(45.098877%,45.098877%,45.098877%);fill-opacity:1;" d="M 405.054688 495.15625 C 369.84375 495.15625 334.199219 485.027344 334.199219 465.664062 L 334.199219 436.015625 C 334.199219 432.296875 337.210938 429.285156 340.929688 429.285156 C 344.644531 429.285156 347.660156 432.296875 347.660156 436.015625 L 347.660156 465.664062 C 347.660156 470.457031 367.1875 481.695312 405.054688 481.695312 C 442.917969 481.695312 462.449219 470.457031 462.449219 465.664062 L 462.449219 436.015625 C 462.449219 432.296875 465.460938 429.285156 469.175781 429.285156 C 472.898438 429.285156 475.90625 432.296875 475.90625 436.015625 L 475.90625 465.664062 C 475.90625 485.027344 440.261719 495.15625 405.054688 495.15625 "/>
<path style=" stroke:none;fill-rule:nonzero;fill:rgb(45.098877%,45.098877%,45.098877%);fill-opacity:1;" d="M 405.054688 328.515625 C 367.1875 328.515625 347.660156 339.753906 347.660156 344.546875 C 347.660156 346.15625 350.746094 349.8125 359.246094 353.261719 C 370.667969 357.910156 387.359375 360.582031 405.054688 360.582031 C 422.746094 360.582031 439.441406 357.910156 450.851562 353.261719 C 459.359375 349.8125 462.449219 346.15625 462.449219 344.546875 C 462.449219 339.753906 442.917969 328.515625 405.054688 328.515625 Z M 405.054688 374.042969 C 385.6875 374.042969 367.144531 371.011719 354.179688 365.730469 C 337.664062 359.027344 334.199219 350.511719 334.199219 344.546875 C 334.199219 325.183594 369.84375 315.054688 405.054688 315.054688 C 440.261719 315.054688 475.90625 325.183594 475.90625 344.546875 C 475.90625 350.511719 472.4375 359.027344 455.925781 365.738281 C 442.960938 371.011719 424.414062 374.042969 405.054688 374.042969 "/>
<g clip-path="url(#clip1)" clip-rule="nonzero">
<path style=" stroke:none;fill-rule:nonzero;fill:rgb(45.098877%,45.098877%,45.098877%);fill-opacity:1;" d="M 405.054688 31.179688 C 374.363281 31.179688 343.636719 70.148438 320.742188 138.09375 C 296.75 209.316406 283.535156 304.140625 283.535156 405.101562 C 283.535156 506.070312 296.75 600.894531 320.742188 672.117188 C 343.636719 740.0625 374.363281 779.027344 405.054688 779.027344 C 435.742188 779.027344 466.46875 740.0625 489.359375 672.117188 C 513.363281 600.894531 526.574219 506.070312 526.574219 405.101562 C 526.574219 304.140625 513.363281 209.308594 489.359375 138.09375 C 466.46875 70.148438 435.742188 31.179688 405.054688 31.179688 Z M 405.054688 792.492188 C 367.679688 792.492188 333.207031 751.261719 307.988281 676.417969 C 283.539062 603.847656 270.074219 507.492188 270.074219 405.101562 C 270.074219 302.714844 283.539062 206.363281 307.988281 133.792969 C 333.207031 58.941406 367.679688 17.71875 405.054688 17.71875 C 442.425781 17.71875 476.898438 58.941406 502.121094 133.792969 C 526.566406 206.363281 540.03125 302.714844 540.03125 405.101562 C 540.03125 507.492188 526.566406 603.847656 502.121094 676.417969 C 476.898438 751.261719 442.425781 792.492188 405.054688 792.492188 "/>
</g>
<path style=" stroke:none;fill-rule:nonzero;fill:rgb(45.098877%,45.098877%,45.098877%);fill-opacity:1;" d="M 657.480469 191.449219 C 639.082031 191.449219 617.792969 193.800781 594.09375 198.574219 C 520.425781 213.398438 431.714844 249.367188 344.292969 299.839844 C 256.871094 350.324219 181.375 409.1875 131.707031 465.582031 C 84.324219 519.378906 65.949219 565.480469 81.292969 592.066406 C 96.636719 618.648438 145.746094 625.785156 216.015625 611.640625 C 289.679688 596.8125 378.394531 560.847656 465.8125 510.363281 C 553.230469 459.886719 628.730469 401.019531 678.394531 344.628906 C 725.785156 290.832031 744.15625 244.730469 728.816406 218.140625 C 718.640625 200.523438 693.640625 191.449219 657.480469 191.449219 Z M 152.699219 632.226562 C 111.117188 632.226562 82.394531 620.902344 69.636719 598.800781 C 50.953125 566.425781 69.40625 515.957031 121.605469 456.679688 C 172.214844 399.21875 248.914062 339.378906 337.5625 288.1875 C 426.214844 236.992188 516.371094 200.476562 591.4375 185.371094 C 668.855469 169.785156 721.78125 179.039062 740.46875 211.410156 C 759.15625 243.785156 740.699219 294.253906 688.5 353.53125 C 637.890625 410.992188 561.191406 470.828125 472.539062 522.023438 C 383.890625 573.21875 293.730469 609.734375 218.671875 624.839844 C 194.113281 629.785156 172.015625 632.226562 152.699219 632.226562 "/>
<path style=" stroke:none;fill-rule:nonzero;fill:rgb(45.098877%,45.098877%,45.098877%);fill-opacity:1;" d="M 152.625 191.449219 C 116.460938 191.449219 91.464844 200.523438 81.292969 218.140625 C 65.949219 244.730469 84.324219 290.832031 131.707031 344.628906 C 181.375 401.019531 256.871094 459.886719 344.292969 510.363281 C 431.714844 560.847656 520.425781 596.8125 594.09375 611.640625 C 664.363281 625.785156 713.464844 618.648438 728.816406 592.066406 C 744.15625 565.480469 725.785156 519.378906 678.394531 465.582031 C 628.730469 409.1875 553.230469 350.324219 465.8125 299.839844 C 378.394531 249.367188 289.679688 213.398438 216.015625 198.574219 C 192.316406 193.800781 171.023438 191.449219 152.625 191.449219 Z M 657.40625 632.226562 C 638.089844 632.226562 616 629.785156 591.4375 624.839844 C 516.371094 609.734375 426.214844 573.21875 337.5625 522.023438 C 248.914062 470.828125 172.214844 410.992188 121.605469 353.53125 C 69.40625 294.253906 50.953125 243.785156 69.636719 211.410156 C 88.324219 179.039062 141.25 169.785156 218.671875 185.371094 C 293.730469 200.476562 383.890625 236.992188 472.539062 288.1875 C 561.191406 339.378906 637.890625 399.21875 688.5 456.679688 C 740.699219 515.957031 759.15625 566.425781 740.46875 598.800781 C 727.710938 620.902344 698.980469 632.21875 657.40625 632.226562 "/>
</g>
</svg>
