<?xml version="1.0" encoding="UTF-8"?>
<svg xmlns="http://www.w3.org/2000/svg" xmlns:xlink="http://www.w3.org/1999/xlink" width="810pt" height="809.999993pt" viewBox="0 0 810 809.999993" version="1.2">
<defs>
<clipPath id="clip1">
  <path d="M 21.136719 270 L 789.136719 270 L 789.136719 540 L 21.136719 540 Z M 21.136719 270 "/>
</clipPath>
</defs>
<g id="surface1">
<g clip-path="url(#clip1)" clip-rule="nonzero">
<path style=" stroke:none;fill-rule:nonzero;fill:rgb(3.529358%,18.03894%,12.548828%);fill-opacity:1;" d="M 111.96875 270.839844 L 153.996094 270.839844 L 153.996094 465.324219 C 132.4375 469.417969 116.605469 471.054688 99.410156 471.054688 C 48.09375 471.054688 21.347656 447.867188 21.347656 403.394531 C 21.347656 360.554688 49.730469 332.730469 93.667969 332.730469 C 100.496094 332.730469 105.675781 333.273438 111.953125 334.910156 Z M 111.96875 368.746094 C 107.054688 367.109375 102.960938 366.566406 97.777344 366.566406 C 76.492188 366.566406 64.207031 379.65625 64.207031 402.578125 C 64.207031 424.953125 75.941406 437.226562 97.5 437.226562 C 102.347656 437.21875 107.171875 436.855469 111.96875 436.140625 Z M 220.863281 335.738281 L 220.863281 433.140625 C 220.863281 466.703125 218.40625 482.789062 211.113281 496.714844 C 204.285156 510.085938 195.28125 518.546875 176.722656 527.820312 L 137.695312 509.261719 C 156.261719 500.53125 165.257812 492.898438 170.992188 481.160156 C 176.996094 469.15625 178.910156 455.242188 178.910156 418.679688 L 178.910156 335.816406 Z M 178.835938 271.085938 L 220.863281 271.085938 L 220.863281 314.257812 L 178.835938 314.257812 Z M 246.246094 345.285156 C 264.808594 336.554688 282.464844 332.738281 301.925781 332.738281 C 323.484375 332.738281 337.679688 338.46875 343.957031 349.65625 C 347.4375 355.925781 348.59375 364.121094 348.59375 381.585938 L 348.59375 467.03125 C 329.761719 469.761719 306.015625 471.667969 288.554688 471.667969 C 253.351562 471.667969 237.519531 459.386719 237.519531 432.101562 C 237.519531 402.632812 258.53125 388.929688 310.117188 384.628906 L 310.117188 375.351562 C 310.117188 367.714844 306.289062 364.90625 295.652344 364.90625 C 280.097656 364.90625 262.636719 369.273438 246.253906 377.734375 L 246.253906 345.265625 Z M 312.019531 412.132812 C 284.179688 414.863281 275.101562 419.234375 275.101562 430.140625 C 275.101562 438.320312 280.292969 442.144531 291.820312 442.144531 C 298.089844 442.144531 303.828125 441.601562 312.019531 440.238281 Z M 369.136719 342.289062 C 393.96875 335.746094 414.4375 332.75 435.179688 332.75 C 456.738281 332.75 472.308594 337.660156 481.585938 347.214844 C 490.320312 356.21875 493.042969 366.035156 493.042969 387.042969 L 493.042969 469.441406 L 451.015625 469.441406 L 451.015625 388.667969 C 451.015625 372.566406 445.554688 366.566406 430.535156 366.566406 C 424.804688 366.566406 419.621094 367.109375 411.15625 369.558594 L 411.15625 469.414062 L 369.058594 469.414062 Z M 509.3125 492.347656 C 524.054688 499.988281 538.792969 503.53125 554.34375 503.53125 C 581.90625 503.53125 593.644531 492.347656 593.644531 465.609375 L 593.644531 464.789062 C 585.460938 468.875 577.273438 470.519531 566.355469 470.519531 C 529.4375 470.519531 506.035156 446.238281 506.035156 407.765625 C 506.035156 360.011719 540.699219 333.007812 602.101562 333.007812 C 620.113281 333.007812 636.765625 334.917969 656.960938 339.011719 L 642.570312 369.324219 C 631.375 367.144531 641.664062 369.03125 633.214844 368.207031 L 633.214844 372.574219 L 633.757812 390.304688 L 634.035156 413.226562 C 634.316406 418.957031 634.316406 424.6875 634.59375 430.410156 L 634.59375 441.871094 C 634.59375 477.886719 631.597656 494.792969 622.585938 508.71875 C 609.488281 529.191406 586.832031 539.359375 554.625 539.359375 C 538.253906 539.359375 524.058594 536.902344 509.320312 531.167969 L 509.320312 492.425781 Z M 592.898438 366.84375 L 588.53125 366.84375 C 580.347656 366.566406 570.796875 368.75 564.242188 372.847656 C 554.144531 378.578125 548.960938 388.945312 548.960938 403.679688 C 548.960938 424.6875 559.410156 436.683594 577.894531 436.683594 C 583.628906 436.683594 588.34375 435.59375 593.71875 433.957031 L 593.71875 419.492188 C 593.71875 414.582031 593.441406 409.046875 593.441406 403.394531 L 593.164062 384.023438 L 592.882812 370.109375 L 592.882812 366.835938 Z M 722.203125 332.195312 C 764.234375 332.195312 789.886719 358.65625 789.886719 401.5 C 789.886719 445.367188 763.140625 472.984375 720.558594 472.984375 C 678.53125 472.984375 652.597656 446.523438 652.597656 403.957031 C 652.597656 359.753906 679.347656 332.199219 722.195312 332.199219 Z M 721.382812 439.148438 C 737.484375 439.148438 747.042969 425.78125 747.042969 402.59375 C 747.042969 379.613281 737.765625 366.035156 721.660156 366.035156 C 704.945312 366.035156 695.457031 379.40625 695.457031 402.59375 C 695.457031 425.78125 705.011719 439.148438 721.382812 439.148438 Z M 721.382812 439.148438 "/>
</g>
</g>
</svg>
