<?xml version="1.0" encoding="UTF-8"?>
<svg xmlns="http://www.w3.org/2000/svg" xmlns:xlink="http://www.w3.org/1999/xlink" width="810pt" height="809.999993pt" viewBox="0 0 810 809.999993" version="1.2">
<defs>
<clipPath id="clip1">
  <path d="M 28 28.609375 L 782 28.609375 L 782 781.609375 L 28 781.609375 Z M 28 28.609375 "/>
</clipPath>
</defs>
<g id="surface1">
<g clip-path="url(#clip1)" clip-rule="nonzero">
<path style=" stroke:none;fill-rule:nonzero;fill:rgb(0%,0%,0%);fill-opacity:1;" d="M 761.90625 357.566406 L 452.78125 48.371094 C 439.671875 35.195312 422.40625 28.609375 405.140625 28.609375 C 387.871094 28.609375 370.605469 35.195312 357.496094 48.371094 L 296.363281 109.519531 L 372.015625 185.1875 C 397.144531 170.414062 429.886719 173.609375 451.4375 195.164062 C 472.988281 216.722656 476.121094 249.46875 461.347656 274.542969 L 535.722656 348.933594 C 560.851562 334.15625 593.59375 337.355469 615.144531 358.910156 C 640.722656 384.496094 640.722656 425.941406 615.144531 451.527344 C 589.566406 477.113281 548.125 477.113281 522.546875 451.527344 C 500.996094 429.972656 497.800781 397.222656 512.570312 372.085938 L 438.199219 297.699219 C 432.890625 300.832031 427.328125 303.132812 421.507812 304.605469 L 421.507812 505.769531 C 449.710938 513.058594 470.621094 538.453125 470.621094 568.960938 C 470.621094 605.164062 441.332031 634.460938 405.140625 634.460938 C 368.945312 634.460938 339.65625 605.164062 339.65625 568.960938 C 339.65625 538.453125 360.566406 513.058594 388.769531 505.769531 L 388.769531 304.605469 C 377.832031 301.792969 367.410156 296.355469 358.839844 287.785156 C 337.289062 266.226562 334.15625 233.480469 348.929688 208.40625 L 273.214844 132.675781 L 48.371094 357.566406 C 22.027344 383.855469 22.027344 426.582031 48.371094 452.871094 L 357.496094 762.066406 C 370.605469 775.242188 387.871094 781.832031 405.140625 781.832031 C 422.40625 781.832031 439.671875 775.242188 452.78125 762.066406 L 761.90625 452.871094 C 788.25 426.582031 788.25 383.855469 761.90625 357.566406 Z M 761.90625 357.566406 "/>
</g>
</g>
</svg>
