<?xml version="1.0" encoding="UTF-8"?>
<svg xmlns="http://www.w3.org/2000/svg" xmlns:xlink="http://www.w3.org/1999/xlink" width="810pt" height="809.999993pt" viewBox="0 0 810 809.999993" version="1.2">
<g id="surface1">
<path style=" stroke:none;fill-rule:nonzero;fill:rgb(100%,79.998779%,50.19989%);fill-opacity:1;" d="M 607.589844 725.90625 L 551.988281 670.324219 L 514.925781 707.375 L 570.527344 762.957031 C 580.769531 773.195312 597.367188 773.195312 607.589844 762.957031 C 617.8125 752.722656 617.828125 736.144531 607.589844 725.90625 Z M 660.011719 411.472656 L 604.410156 355.890625 L 567.347656 392.941406 L 622.949219 448.523438 C 633.1875 458.761719 649.789062 458.761719 660.011719 448.523438 C 670.234375 438.289062 670.25 421.710938 660.011719 411.472656 Z M 208.070312 725.90625 L 263.671875 670.324219 L 300.734375 707.375 L 245.132812 762.957031 C 234.894531 773.195312 218.292969 773.195312 208.070312 762.957031 C 197.847656 752.722656 197.832031 736.144531 208.070312 725.90625 Z M 151.28125 411.472656 L 206.882812 355.890625 L 243.945312 392.941406 L 188.34375 448.523438 C 178.105469 458.761719 161.503906 458.761719 151.28125 448.523438 C 141.058594 438.289062 141.042969 421.710938 151.28125 411.472656 Z M 151.28125 411.472656 "/>
<path style=" stroke:none;fill-rule:nonzero;fill:rgb(30.198669%,81.568909%,88.238525%);fill-opacity:1;" d="M 650.453125 124.449219 C 650.453125 90.683594 630.375 72.042969 593.996094 72.042969 C 557.617188 72.042969 528.136719 116.886719 528.136719 150.652344 C 528.136719 168.121094 561.738281 176.855469 580.558594 176.855469 C 616.9375 176.855469 650.453125 158.214844 650.453125 124.449219 Z M 161.191406 124.449219 C 161.191406 90.683594 181.265625 72.042969 217.648438 72.042969 C 254.027344 72.042969 283.503906 116.886719 283.503906 150.652344 C 283.503906 168.121094 249.902344 176.855469 231.085938 176.855469 C 194.703125 176.855469 161.191406 158.214844 161.191406 124.449219 Z M 161.191406 124.449219 "/>
<path style=" stroke:none;fill-rule:nonzero;fill:rgb(25.878906%,25.878906%,25.878906%);fill-opacity:1;" d="M 598.03125 106.980469 C 597.460938 106.980469 596.890625 107.007812 596.320312 107.066406 C 595.75 107.121094 595.183594 107.203125 594.621094 107.316406 C 594.0625 107.429688 593.507812 107.566406 592.960938 107.734375 C 592.410156 107.898438 591.875 108.089844 591.34375 108.308594 C 590.816406 108.53125 590.300781 108.773438 589.796875 109.042969 C 589.289062 109.3125 588.800781 109.605469 588.324219 109.925781 C 587.847656 110.242188 587.390625 110.582031 586.945312 110.945312 C 586.503906 111.308594 586.082031 111.691406 585.675781 112.097656 C 585.273438 112.5 584.886719 112.925781 584.523438 113.367188 C 584.160156 113.808594 583.820312 114.269531 583.503906 114.746094 C 583.183594 115.21875 582.890625 115.710938 582.621094 116.214844 C 582.351562 116.71875 582.105469 117.234375 581.886719 117.765625 C 581.667969 118.292969 581.476562 118.832031 581.3125 119.378906 C 581.144531 119.925781 581.003906 120.480469 580.894531 121.042969 C 580.78125 121.601562 580.699219 122.167969 580.640625 122.738281 C 580.585938 123.304688 580.558594 123.878906 580.558594 124.449219 C 580.558594 125.019531 580.585938 125.59375 580.640625 126.160156 C 580.699219 126.730469 580.78125 127.296875 580.894531 127.855469 C 581.003906 128.417969 581.144531 128.972656 581.3125 129.519531 C 581.476562 130.066406 581.667969 130.605469 581.886719 131.132812 C 582.105469 131.664062 582.351562 132.179688 582.621094 132.683594 C 582.890625 133.1875 583.183594 133.679688 583.503906 134.152344 C 583.820312 134.628906 584.160156 135.089844 584.523438 135.53125 C 584.886719 135.972656 585.273438 136.398438 585.675781 136.800781 C 586.082031 137.207031 586.503906 137.589844 586.945312 137.953125 C 587.390625 138.316406 587.847656 138.65625 588.324219 138.972656 C 588.800781 139.292969 589.289062 139.585938 589.796875 139.855469 C 590.300781 140.125 590.816406 140.367188 591.34375 140.589844 C 591.875 140.808594 592.410156 141 592.960938 141.164062 C 593.507812 141.332031 594.0625 141.46875 594.621094 141.582031 C 595.183594 141.695312 595.75 141.777344 596.320312 141.832031 C 596.890625 141.890625 597.460938 141.917969 598.03125 141.917969 C 598.605469 141.917969 599.175781 141.890625 599.746094 141.832031 C 600.3125 141.777344 600.878906 141.695312 601.441406 141.582031 C 602.003906 141.46875 602.558594 141.332031 603.105469 141.164062 C 603.652344 141 604.191406 140.808594 604.71875 140.589844 C 605.246094 140.367188 605.765625 140.125 606.269531 139.855469 C 606.773438 139.585938 607.265625 139.292969 607.738281 138.972656 C 608.214844 138.65625 608.675781 138.316406 609.117188 137.953125 C 609.558594 137.589844 609.984375 137.207031 610.386719 136.800781 C 610.792969 136.398438 611.175781 135.972656 611.539062 135.53125 C 611.902344 135.089844 612.242188 134.628906 612.5625 134.152344 C 612.878906 133.679688 613.171875 133.1875 613.441406 132.683594 C 613.710938 132.179688 613.957031 131.664062 614.175781 131.132812 C 614.394531 130.605469 614.585938 130.066406 614.753906 129.519531 C 614.917969 128.972656 615.058594 128.417969 615.171875 127.855469 C 615.28125 127.296875 615.367188 126.730469 615.421875 126.160156 C 615.476562 125.59375 615.503906 125.019531 615.503906 124.449219 C 615.503906 123.878906 615.476562 123.304688 615.421875 122.738281 C 615.367188 122.167969 615.28125 121.601562 615.171875 121.042969 C 615.058594 120.480469 614.917969 119.925781 614.753906 119.378906 C 614.585938 118.832031 614.394531 118.292969 614.175781 117.765625 C 613.957031 117.234375 613.710938 116.71875 613.441406 116.214844 C 613.171875 115.710938 612.878906 115.21875 612.5625 114.746094 C 612.242188 114.269531 611.902344 113.808594 611.539062 113.367188 C 611.175781 112.925781 610.792969 112.5 610.386719 112.097656 C 609.984375 111.691406 609.558594 111.308594 609.117188 110.945312 C 608.675781 110.582031 608.214844 110.242188 607.738281 109.925781 C 607.265625 109.605469 606.773438 109.3125 606.269531 109.042969 C 605.765625 108.773438 605.246094 108.53125 604.71875 108.308594 C 604.191406 108.089844 603.652344 107.898438 603.105469 107.734375 C 602.558594 107.566406 602.003906 107.429688 601.441406 107.316406 C 600.878906 107.203125 600.3125 107.121094 599.746094 107.066406 C 599.175781 107.007812 598.605469 106.980469 598.03125 106.980469 Z M 213.609375 106.980469 C 213.039062 106.980469 212.46875 107.007812 211.898438 107.066406 C 211.328125 107.121094 210.761719 107.203125 210.203125 107.316406 C 209.640625 107.429688 209.085938 107.566406 208.539062 107.734375 C 207.992188 107.898438 207.453125 108.089844 206.921875 108.308594 C 206.394531 108.53125 205.878906 108.773438 205.375 109.042969 C 204.867188 109.3125 204.378906 109.605469 203.902344 109.925781 C 203.425781 110.242188 202.96875 110.582031 202.527344 110.945312 C 202.082031 111.308594 201.660156 111.691406 201.253906 112.097656 C 200.851562 112.5 200.464844 112.925781 200.101562 113.367188 C 199.738281 113.808594 199.398438 114.269531 199.082031 114.746094 C 198.765625 115.21875 198.46875 115.710938 198.199219 116.214844 C 197.929688 116.71875 197.6875 117.234375 197.46875 117.765625 C 197.246094 118.292969 197.054688 118.832031 196.890625 119.378906 C 196.722656 119.925781 196.585938 120.480469 196.472656 121.042969 C 196.359375 121.601562 196.277344 122.167969 196.222656 122.738281 C 196.164062 123.304688 196.136719 123.878906 196.136719 124.449219 C 196.136719 125.019531 196.164062 125.59375 196.222656 126.160156 C 196.277344 126.730469 196.359375 127.296875 196.472656 127.855469 C 196.585938 128.417969 196.722656 128.972656 196.890625 129.519531 C 197.054688 130.066406 197.246094 130.605469 197.46875 131.132812 C 197.6875 131.664062 197.929688 132.179688 198.199219 132.683594 C 198.46875 133.1875 198.765625 133.679688 199.082031 134.152344 C 199.398438 134.628906 199.738281 135.089844 200.101562 135.53125 C 200.464844 135.972656 200.851562 136.398438 201.253906 136.800781 C 201.660156 137.207031 202.082031 137.589844 202.527344 137.953125 C 202.96875 138.316406 203.425781 138.65625 203.902344 138.972656 C 204.378906 139.292969 204.867188 139.585938 205.375 139.855469 C 205.878906 140.125 206.394531 140.367188 206.921875 140.589844 C 207.453125 140.808594 207.992188 141 208.539062 141.164062 C 209.085938 141.332031 209.640625 141.46875 210.203125 141.582031 C 210.761719 141.695312 211.328125 141.777344 211.898438 141.832031 C 212.46875 141.890625 213.039062 141.917969 213.609375 141.917969 C 214.183594 141.917969 214.753906 141.890625 215.324219 141.832031 C 215.894531 141.777344 216.457031 141.695312 217.019531 141.582031 C 217.582031 141.46875 218.136719 141.332031 218.683594 141.164062 C 219.230469 141 219.769531 140.808594 220.296875 140.589844 C 220.828125 140.367188 221.34375 140.125 221.847656 139.855469 C 222.351562 139.585938 222.84375 139.292969 223.320312 138.972656 C 223.792969 138.65625 224.253906 138.316406 224.695312 137.953125 C 225.136719 137.589844 225.5625 137.207031 225.964844 136.800781 C 226.371094 136.398438 226.753906 135.972656 227.117188 135.53125 C 227.480469 135.089844 227.820312 134.628906 228.140625 134.152344 C 228.457031 133.679688 228.75 133.1875 229.019531 132.683594 C 229.289062 132.179688 229.535156 131.664062 229.753906 131.132812 C 229.972656 130.605469 230.164062 130.066406 230.332031 129.519531 C 230.496094 128.972656 230.636719 128.417969 230.75 127.855469 C 230.859375 127.296875 230.945312 126.730469 231 126.160156 C 231.054688 125.59375 231.085938 125.019531 231.085938 124.449219 C 231.085938 123.878906 231.054688 123.304688 231 122.738281 C 230.945312 122.167969 230.859375 121.601562 230.75 121.042969 C 230.636719 120.480469 230.496094 119.925781 230.332031 119.378906 C 230.164062 118.832031 229.972656 118.292969 229.753906 117.765625 C 229.535156 117.234375 229.289062 116.71875 229.019531 116.214844 C 228.75 115.710938 228.457031 115.21875 228.140625 114.746094 C 227.820312 114.269531 227.480469 113.808594 227.117188 113.367188 C 226.753906 112.925781 226.371094 112.5 225.964844 112.097656 C 225.5625 111.691406 225.136719 111.308594 224.695312 110.945312 C 224.253906 110.582031 223.792969 110.242188 223.320312 109.925781 C 222.84375 109.605469 222.351562 109.3125 221.847656 109.042969 C 221.34375 108.773438 220.828125 108.53125 220.296875 108.308594 C 219.769531 108.089844 219.230469 107.898438 218.683594 107.734375 C 218.136719 107.566406 217.582031 107.429688 217.019531 107.316406 C 216.457031 107.203125 215.894531 107.121094 215.324219 107.066406 C 214.753906 107.007812 214.183594 106.980469 213.609375 106.980469 Z M 213.609375 106.980469 "/>
<path style=" stroke:none;fill-rule:nonzero;fill:rgb(30.198669%,81.568909%,88.238525%);fill-opacity:1;" d="M 632.980469 578.628906 C 632.980469 662.023438 576.730469 753.316406 400.40625 753.316406 C 258.484375 753.316406 178.664062 662.023438 178.664062 578.628906 C 178.664062 491.289062 196.136719 477.207031 196.136719 403.945312 C 196.136719 322.054688 196.136719 281.664062 196.136719 229.261719 C 196.136719 145.867188 249.886719 37.105469 400.40625 37.105469 C 550.921875 37.105469 615.503906 106.824219 615.503906 211.792969 C 615.503906 264.199219 611.363281 307.046875 615.503906 386.476562 C 618.757812 448.699219 632.980469 526.226562 632.980469 578.628906 Z M 632.980469 578.628906 "/>
<path style=" stroke:none;fill-rule:nonzero;fill:rgb(96.078491%,96.078491%,96.078491%);fill-opacity:1;" d="M 493.191406 89.511719 C 492.046875 89.511719 490.902344 89.539062 489.761719 89.597656 C 488.617188 89.652344 487.476562 89.738281 486.339844 89.847656 C 485.199219 89.960938 484.066406 90.101562 482.933594 90.269531 C 481.800781 90.4375 480.675781 90.632812 479.554688 90.855469 C 478.433594 91.078125 477.316406 91.328125 476.207031 91.605469 C 475.097656 91.882812 473.996094 92.1875 472.902344 92.519531 C 471.804688 92.851562 470.71875 93.210938 469.644531 93.597656 C 468.566406 93.980469 467.5 94.394531 466.441406 94.832031 C 465.386719 95.269531 464.339844 95.730469 463.304688 96.222656 C 462.273438 96.710938 461.25 97.222656 460.242188 97.761719 C 459.234375 98.300781 458.238281 98.867188 457.257812 99.453125 C 456.277344 100.042969 455.308594 100.652344 454.359375 101.289062 C 453.40625 101.921875 452.472656 102.582031 451.554688 103.261719 C 450.632812 103.945312 449.734375 104.648438 448.847656 105.371094 C 447.964844 106.097656 447.097656 106.84375 446.25 107.613281 C 445.402344 108.382812 444.574219 109.167969 443.765625 109.976562 C 442.957031 110.785156 442.167969 111.613281 441.402344 112.460938 C 440.632812 113.308594 439.886719 114.175781 439.160156 115.058594 C 438.433594 115.941406 437.730469 116.84375 437.050781 117.761719 C 436.367188 118.679688 435.710938 119.617188 435.074219 120.566406 C 434.4375 121.515625 433.828125 122.484375 433.238281 123.464844 C 432.652344 124.445312 432.085938 125.4375 431.546875 126.449219 C 431.007812 127.457031 430.496094 128.476562 430.003906 129.511719 C 429.515625 130.546875 429.054688 131.589844 428.617188 132.648438 C 428.175781 133.703125 427.765625 134.769531 427.378906 135.847656 C 426.996094 136.921875 426.636719 138.007812 426.304688 139.101562 C 425.972656 140.195312 425.667969 141.300781 425.390625 142.410156 C 425.113281 143.515625 424.859375 144.632812 424.636719 145.753906 C 424.414062 146.875 424.21875 148.003906 424.050781 149.132812 C 423.882812 150.265625 423.742188 151.398438 423.632812 152.539062 C 423.519531 153.675781 423.433594 154.816406 423.378906 155.957031 C 423.324219 157.101562 423.296875 158.242188 423.296875 159.386719 C 423.296875 160.53125 423.324219 161.671875 423.378906 162.816406 C 423.433594 163.957031 423.519531 165.097656 423.632812 166.234375 C 423.742188 167.375 423.882812 168.507812 424.050781 169.640625 C 424.21875 170.769531 424.414062 171.894531 424.636719 173.019531 C 424.859375 174.140625 425.113281 175.253906 425.390625 176.363281 C 425.667969 177.472656 425.972656 178.574219 426.304688 179.667969 C 426.636719 180.765625 426.996094 181.847656 427.378906 182.925781 C 427.765625 184.003906 428.175781 185.070312 428.617188 186.125 C 429.054688 187.183594 429.515625 188.226562 430.003906 189.261719 C 430.496094 190.296875 431.007812 191.316406 431.546875 192.324219 C 432.085938 193.332031 432.652344 194.328125 433.238281 195.308594 C 433.828125 196.289062 434.4375 197.253906 435.074219 198.207031 C 435.710938 199.15625 436.367188 200.089844 437.050781 201.011719 C 437.730469 201.929688 438.433594 202.828125 439.160156 203.714844 C 439.886719 204.597656 440.632812 205.464844 441.402344 206.3125 C 442.167969 207.15625 442.957031 207.984375 443.765625 208.792969 C 444.574219 209.601562 445.402344 210.390625 446.25 211.160156 C 447.097656 211.925781 447.964844 212.675781 448.847656 213.398438 C 449.734375 214.125 450.632812 214.828125 451.554688 215.507812 C 452.472656 216.191406 453.40625 216.847656 454.359375 217.484375 C 455.308594 218.121094 456.277344 218.730469 457.257812 219.320312 C 458.238281 219.90625 459.234375 220.46875 460.242188 221.007812 C 461.25 221.546875 462.273438 222.0625 463.304688 222.550781 C 464.339844 223.039062 465.386719 223.503906 466.441406 223.941406 C 467.5 224.378906 468.566406 224.789062 469.644531 225.175781 C 470.71875 225.5625 471.804688 225.917969 472.902344 226.25 C 473.996094 226.582031 475.097656 226.886719 476.207031 227.167969 C 477.316406 227.445312 478.433594 227.695312 479.554688 227.917969 C 480.675781 228.140625 481.800781 228.335938 482.933594 228.503906 C 484.066406 228.671875 485.199219 228.8125 486.339844 228.925781 C 487.476562 229.035156 488.617188 229.121094 489.761719 229.175781 C 490.902344 229.230469 492.046875 229.261719 493.191406 229.261719 C 494.332031 229.261719 495.476562 229.230469 496.621094 229.175781 C 497.761719 229.121094 498.902344 229.035156 500.039062 228.925781 C 501.179688 228.8125 502.3125 228.671875 503.445312 228.503906 C 504.578125 228.335938 505.703125 228.140625 506.824219 227.917969 C 507.949219 227.695312 509.0625 227.445312 510.171875 227.167969 C 511.28125 226.886719 512.382812 226.582031 513.480469 226.25 C 514.574219 225.917969 515.660156 225.5625 516.738281 225.175781 C 517.8125 224.789062 518.878906 224.378906 519.9375 223.941406 C 520.996094 223.503906 522.039062 223.039062 523.074219 222.550781 C 524.109375 222.0625 525.128906 221.546875 526.136719 221.007812 C 527.148438 220.46875 528.140625 219.90625 529.121094 219.320312 C 530.105469 218.730469 531.070312 218.121094 532.019531 217.484375 C 532.972656 216.847656 533.90625 216.191406 534.824219 215.507812 C 535.746094 214.828125 536.644531 214.125 537.53125 213.398438 C 538.414062 212.675781 539.28125 211.925781 540.128906 211.160156 C 540.976562 210.390625 541.804688 209.601562 542.613281 208.792969 C 543.421875 207.984375 544.210938 207.15625 544.976562 206.3125 C 545.746094 205.464844 546.492188 204.597656 547.21875 203.714844 C 547.945312 202.828125 548.648438 201.929688 549.328125 201.011719 C 550.011719 200.089844 550.667969 199.15625 551.304688 198.207031 C 551.941406 197.253906 552.550781 196.289062 553.140625 195.308594 C 553.730469 194.328125 554.292969 193.332031 554.832031 192.324219 C 555.371094 191.316406 555.886719 190.296875 556.375 189.261719 C 556.863281 188.226562 557.328125 187.183594 557.765625 186.125 C 558.203125 185.070312 558.613281 184.003906 559 182.925781 C 559.382812 181.847656 559.742188 180.765625 560.074219 179.667969 C 560.40625 178.574219 560.710938 177.472656 560.988281 176.363281 C 561.269531 175.253906 561.519531 174.140625 561.742188 173.019531 C 561.964844 171.894531 562.160156 170.769531 562.328125 169.640625 C 562.496094 168.507812 562.636719 167.375 562.75 166.234375 C 562.859375 165.097656 562.945312 163.957031 563 162.816406 C 563.054688 161.671875 563.085938 160.53125 563.085938 159.386719 C 563.085938 158.242188 563.054688 157.101562 563 155.957031 C 562.945312 154.816406 562.859375 153.675781 562.75 152.539062 C 562.636719 151.398438 562.496094 150.265625 562.328125 149.132812 C 562.160156 148.003906 561.964844 146.875 561.742188 145.753906 C 561.519531 144.632812 561.269531 143.515625 560.988281 142.410156 C 560.710938 141.300781 560.40625 140.195312 560.074219 139.101562 C 559.742188 138.007812 559.382812 136.921875 559 135.847656 C 558.613281 134.769531 558.203125 133.703125 557.765625 132.648438 C 557.328125 131.589844 556.863281 130.546875 556.375 129.511719 C 555.886719 128.476562 555.371094 127.457031 554.832031 126.449219 C 554.292969 125.4375 553.730469 124.445312 553.140625 123.464844 C 552.550781 122.484375 551.941406 121.515625 551.304688 120.566406 C 550.667969 119.617188 550.011719 118.679688 549.328125 117.761719 C 548.648438 116.84375 547.945312 115.941406 547.21875 115.058594 C 546.492188 114.175781 545.746094 113.308594 544.976562 112.460938 C 544.210938 111.613281 543.421875 110.785156 542.613281 109.976562 C 541.804688 109.167969 540.976562 108.382812 540.128906 107.613281 C 539.28125 106.84375 538.414062 106.097656 537.53125 105.371094 C 536.644531 104.648438 535.746094 103.945312 534.824219 103.261719 C 533.90625 102.582031 532.972656 101.921875 532.019531 101.289062 C 531.070312 100.652344 530.105469 100.042969 529.121094 99.453125 C 528.140625 98.867188 527.148438 98.300781 526.136719 97.761719 C 525.128906 97.222656 524.109375 96.710938 523.074219 96.222656 C 522.039062 95.730469 520.996094 95.269531 519.9375 94.832031 C 518.878906 94.394531 517.8125 93.980469 516.738281 93.597656 C 515.660156 93.210938 514.574219 92.851562 513.480469 92.519531 C 512.382812 92.1875 511.28125 91.882812 510.171875 91.605469 C 509.0625 91.328125 507.949219 91.078125 506.824219 90.855469 C 505.703125 90.632812 504.578125 90.4375 503.445312 90.269531 C 502.3125 90.101562 501.179688 89.960938 500.039062 89.847656 C 498.902344 89.738281 497.761719 89.652344 496.621094 89.597656 C 495.476562 89.539062 494.332031 89.511719 493.191406 89.511719 Z M 318.453125 89.511719 C 317.308594 89.511719 316.164062 89.539062 315.023438 89.597656 C 313.878906 89.652344 312.742188 89.738281 311.601562 89.847656 C 310.464844 89.960938 309.328125 90.101562 308.195312 90.269531 C 307.066406 90.4375 305.9375 90.632812 304.816406 90.855469 C 303.695312 91.078125 302.578125 91.328125 301.46875 91.605469 C 300.359375 91.882812 299.257812 92.1875 298.164062 92.519531 C 297.070312 92.851562 295.984375 93.210938 294.90625 93.597656 C 293.828125 93.980469 292.761719 94.394531 291.707031 94.832031 C 290.648438 95.269531 289.601562 95.730469 288.570312 96.222656 C 287.535156 96.710938 286.511719 97.222656 285.503906 97.761719 C 284.496094 98.300781 283.5 98.867188 282.519531 99.453125 C 281.539062 100.042969 280.574219 100.652344 279.621094 101.289062 C 278.671875 101.921875 277.734375 102.582031 276.816406 103.261719 C 275.898438 103.945312 274.996094 104.648438 274.113281 105.371094 C 273.226562 106.097656 272.363281 106.84375 271.515625 107.613281 C 270.667969 108.382812 269.839844 109.167969 269.03125 109.976562 C 268.222656 110.785156 267.433594 111.613281 266.664062 112.460938 C 265.894531 113.308594 265.148438 114.175781 264.421875 115.058594 C 263.699219 115.941406 262.996094 116.84375 262.3125 117.761719 C 261.632812 118.679688 260.972656 119.617188 260.335938 120.566406 C 259.703125 121.515625 259.089844 122.484375 258.503906 123.464844 C 257.914062 124.445312 257.351562 125.4375 256.8125 126.449219 C 256.273438 127.457031 255.757812 128.476562 255.269531 129.511719 C 254.78125 130.546875 254.316406 131.589844 253.878906 132.648438 C 253.441406 133.703125 253.027344 134.769531 252.644531 135.847656 C 252.257812 136.921875 251.898438 138.007812 251.566406 139.101562 C 251.234375 140.195312 250.929688 141.300781 250.652344 142.410156 C 250.375 143.515625 250.125 144.632812 249.902344 145.753906 C 249.679688 146.875 249.480469 148.003906 249.316406 149.132812 C 249.148438 150.265625 249.007812 151.398438 248.894531 152.539062 C 248.78125 153.675781 248.699219 154.816406 248.640625 155.957031 C 248.585938 157.101562 248.558594 158.242188 248.558594 159.386719 C 248.558594 160.53125 248.585938 161.671875 248.640625 162.816406 C 248.699219 163.957031 248.78125 165.097656 248.894531 166.234375 C 249.007812 167.375 249.148438 168.507812 249.316406 169.640625 C 249.480469 170.769531 249.679688 171.894531 249.902344 173.019531 C 250.125 174.140625 250.375 175.253906 250.652344 176.363281 C 250.929688 177.472656 251.234375 178.574219 251.566406 179.667969 C 251.898438 180.765625 252.257812 181.847656 252.644531 182.925781 C 253.027344 184.003906 253.441406 185.070312 253.878906 186.125 C 254.316406 187.183594 254.78125 188.226562 255.269531 189.261719 C 255.757812 190.296875 256.273438 191.316406 256.8125 192.324219 C 257.351562 193.332031 257.914062 194.328125 258.503906 195.308594 C 259.089844 196.289062 259.703125 197.253906 260.335938 198.207031 C 260.972656 199.15625 261.632812 200.089844 262.3125 201.011719 C 262.996094 201.929688 263.699219 202.828125 264.421875 203.714844 C 265.148438 204.597656 265.894531 205.464844 266.664062 206.3125 C 267.433594 207.15625 268.222656 207.984375 269.03125 208.792969 C 269.839844 209.601562 270.667969 210.390625 271.515625 211.160156 C 272.363281 211.925781 273.226562 212.675781 274.113281 213.398438 C 274.996094 214.125 275.898438 214.828125 276.816406 215.507812 C 277.734375 216.191406 278.671875 216.847656 279.621094 217.484375 C 280.574219 218.121094 281.539062 218.730469 282.519531 219.320312 C 283.5 219.90625 284.496094 220.46875 285.503906 221.007812 C 286.511719 221.546875 287.535156 222.0625 288.570312 222.550781 C 289.601562 223.039062 290.648438 223.503906 291.707031 223.941406 C 292.761719 224.378906 293.828125 224.789062 294.90625 225.175781 C 295.984375 225.5625 297.070312 225.917969 298.164062 226.25 C 299.257812 226.582031 300.359375 226.886719 301.46875 227.167969 C 302.578125 227.445312 303.695312 227.695312 304.816406 227.917969 C 305.9375 228.140625 307.066406 228.335938 308.195312 228.503906 C 309.328125 228.671875 310.464844 228.8125 311.601562 228.925781 C 312.742188 229.035156 313.878906 229.121094 315.023438 229.175781 C 316.164062 229.230469 317.308594 229.261719 318.453125 229.261719 C 319.597656 229.261719 320.738281 229.230469 321.882812 229.175781 C 323.023438 229.121094 324.164062 229.035156 325.304688 228.925781 C 326.441406 228.8125 327.578125 228.671875 328.707031 228.503906 C 329.839844 228.335938 330.964844 228.140625 332.089844 227.917969 C 333.210938 227.695312 334.328125 227.445312 335.4375 227.167969 C 336.546875 226.886719 337.648438 226.582031 338.742188 226.25 C 339.835938 225.917969 340.921875 225.5625 342 225.175781 C 343.078125 224.789062 344.144531 224.378906 345.199219 223.941406 C 346.257812 223.503906 347.300781 223.039062 348.335938 222.550781 C 349.371094 222.0625 350.390625 221.546875 351.402344 221.007812 C 352.410156 220.46875 353.40625 219.90625 354.386719 219.320312 C 355.367188 218.730469 356.332031 218.121094 357.285156 217.484375 C 358.234375 216.847656 359.171875 216.191406 360.089844 215.507812 C 361.007812 214.828125 361.910156 214.125 362.792969 213.398438 C 363.679688 212.675781 364.542969 211.925781 365.390625 211.160156 C 366.238281 210.390625 367.066406 209.601562 367.875 208.792969 C 368.683594 207.984375 369.472656 207.15625 370.242188 206.3125 C 371.007812 205.464844 371.757812 204.597656 372.480469 203.714844 C 373.207031 202.828125 373.910156 201.929688 374.59375 201.011719 C 375.273438 200.089844 375.933594 199.15625 376.566406 198.207031 C 377.203125 197.253906 377.816406 196.289062 378.402344 195.308594 C 378.992188 194.328125 379.554688 193.332031 380.09375 192.324219 C 380.632812 191.316406 381.148438 190.296875 381.636719 189.261719 C 382.125 188.226562 382.589844 187.183594 383.027344 186.125 C 383.464844 185.070312 383.875 184.003906 384.261719 182.925781 C 384.648438 181.847656 385.007812 180.765625 385.339844 179.667969 C 385.671875 178.574219 385.976562 177.472656 386.253906 176.363281 C 386.53125 175.253906 386.78125 174.140625 387.003906 173.019531 C 387.226562 171.894531 387.421875 170.769531 387.589844 169.640625 C 387.757812 168.507812 387.898438 167.375 388.011719 166.234375 C 388.125 165.097656 388.207031 163.957031 388.261719 162.816406 C 388.320312 161.671875 388.347656 160.53125 388.347656 159.386719 C 388.347656 158.242188 388.320312 157.101562 388.261719 155.957031 C 388.207031 154.816406 388.125 153.675781 388.011719 152.539062 C 387.898438 151.398438 387.757812 150.265625 387.589844 149.132812 C 387.421875 148.003906 387.226562 146.875 387.003906 145.753906 C 386.78125 144.632812 386.53125 143.515625 386.253906 142.410156 C 385.976562 141.300781 385.671875 140.195312 385.339844 139.101562 C 385.007812 138.007812 384.648438 136.921875 384.261719 135.847656 C 383.875 134.769531 383.464844 133.703125 383.027344 132.648438 C 382.589844 131.589844 382.125 130.546875 381.636719 129.511719 C 381.148438 128.476562 380.632812 127.457031 380.09375 126.449219 C 379.554688 125.4375 378.992188 124.445312 378.402344 123.464844 C 377.816406 122.484375 377.203125 121.515625 376.566406 120.566406 C 375.933594 119.617188 375.273438 118.679688 374.59375 117.761719 C 373.910156 116.84375 373.207031 115.941406 372.480469 115.058594 C 371.757812 114.175781 371.007812 113.308594 370.242188 112.460938 C 369.472656 111.613281 368.683594 110.785156 367.875 109.976562 C 367.066406 109.167969 366.238281 108.382812 365.390625 107.613281 C 364.542969 106.84375 363.679688 106.097656 362.792969 105.371094 C 361.910156 104.648438 361.007812 103.945312 360.089844 103.261719 C 359.171875 102.582031 358.234375 101.921875 357.285156 101.289062 C 356.332031 100.652344 355.367188 100.042969 354.386719 99.453125 C 353.40625 98.867188 352.410156 98.300781 351.402344 97.761719 C 350.390625 97.222656 349.371094 96.710938 348.335938 96.222656 C 347.300781 95.730469 346.257812 95.269531 345.199219 94.832031 C 344.144531 94.394531 343.078125 93.980469 342 93.597656 C 340.921875 93.210938 339.835938 92.851562 338.742188 92.519531 C 337.648438 92.1875 336.546875 91.882812 335.4375 91.605469 C 334.328125 91.328125 333.210938 91.078125 332.089844 90.855469 C 330.964844 90.632812 329.839844 90.4375 328.707031 90.269531 C 327.578125 90.101562 326.441406 89.960938 325.304688 89.847656 C 324.164062 89.738281 323.023438 89.652344 321.882812 89.597656 C 320.738281 89.539062 319.597656 89.511719 318.453125 89.511719 Z M 318.453125 89.511719 "/>
<path style=" stroke:none;fill-rule:nonzero;fill:rgb(93.328857%,93.328857%,93.328857%);fill-opacity:1;" d="M 405.820312 334.070312 C 405.820312 343.714844 413.648438 351.539062 423.296875 351.539062 C 432.941406 351.539062 440.769531 343.714844 440.769531 334.070312 L 440.769531 281.664062 L 405.820312 281.664062 Z M 370.875 334.070312 C 370.875 343.714844 378.703125 351.539062 388.347656 351.539062 C 397.992188 351.539062 405.820312 343.714844 405.820312 334.070312 L 405.820312 281.664062 L 370.875 281.664062 Z M 370.875 334.070312 "/>
<path style=" stroke:none;fill-rule:nonzero;fill:rgb(100%,79.998779%,50.19989%);fill-opacity:1;" d="M 449.503906 299.132812 C 442.304688 299.132812 438.09375 297.648438 431.839844 295.554688 C 414.804688 289.824219 396.523438 289.859375 379.488281 295.589844 C 373.285156 297.667969 369.300781 299.132812 362.136719 299.132812 C 338.828125 299.132812 335.925781 281.664062 335.925781 272.929688 C 335.925781 246.730469 362.136719 229.261719 388.347656 229.261719 C 402.9375 229.261719 408.703125 229.261719 423.296875 229.261719 C 449.503906 229.261719 475.714844 246.730469 475.714844 272.929688 C 475.714844 281.664062 472.816406 299.132812 449.503906 299.132812 Z M 449.503906 299.132812 "/>
<path style=" stroke:none;fill-rule:nonzero;fill:rgb(25.878906%,25.878906%,25.878906%);fill-opacity:1;" d="M 458.242188 141.917969 C 457.671875 141.917969 457.097656 141.945312 456.53125 142 C 455.960938 142.058594 455.394531 142.140625 454.832031 142.253906 C 454.273438 142.363281 453.71875 142.503906 453.171875 142.671875 C 452.621094 142.835938 452.085938 143.027344 451.554688 143.246094 C 451.027344 143.464844 450.511719 143.710938 450.003906 143.980469 C 449.5 144.25 449.011719 144.542969 448.535156 144.863281 C 448.058594 145.179688 447.597656 145.519531 447.15625 145.882812 C 446.714844 146.246094 446.292969 146.628906 445.886719 147.035156 C 445.480469 147.4375 445.097656 147.863281 444.734375 148.304688 C 444.371094 148.746094 444.03125 149.207031 443.714844 149.679688 C 443.394531 150.15625 443.101562 150.648438 442.832031 151.152344 C 442.5625 151.65625 442.316406 152.171875 442.097656 152.703125 C 441.878906 153.230469 441.6875 153.769531 441.519531 154.316406 C 441.355469 154.863281 441.214844 155.417969 441.105469 155.976562 C 440.992188 156.539062 440.910156 157.105469 440.851562 157.675781 C 440.796875 158.242188 440.769531 158.8125 440.769531 159.386719 C 440.769531 159.957031 440.796875 160.527344 440.851562 161.097656 C 440.910156 161.667969 440.992188 162.234375 441.105469 162.792969 C 441.214844 163.355469 441.355469 163.910156 441.519531 164.457031 C 441.6875 165.003906 441.878906 165.542969 442.097656 166.070312 C 442.316406 166.601562 442.5625 167.117188 442.832031 167.621094 C 443.101562 168.125 443.394531 168.617188 443.714844 169.089844 C 444.03125 169.566406 444.371094 170.027344 444.734375 170.46875 C 445.097656 170.910156 445.480469 171.332031 445.886719 171.738281 C 446.292969 172.144531 446.714844 172.527344 447.15625 172.890625 C 447.597656 173.253906 448.058594 173.59375 448.535156 173.910156 C 449.011719 174.230469 449.5 174.523438 450.003906 174.792969 C 450.511719 175.0625 451.027344 175.304688 451.554688 175.523438 C 452.085938 175.742188 452.621094 175.9375 453.171875 176.101562 C 453.71875 176.269531 454.273438 176.40625 454.832031 176.519531 C 455.394531 176.628906 455.960938 176.714844 456.53125 176.769531 C 457.097656 176.828125 457.671875 176.855469 458.242188 176.855469 C 458.816406 176.855469 459.386719 176.828125 459.957031 176.769531 C 460.523438 176.714844 461.089844 176.628906 461.652344 176.519531 C 462.210938 176.40625 462.765625 176.269531 463.316406 176.101562 C 463.863281 175.9375 464.402344 175.742188 464.929688 175.523438 C 465.457031 175.304688 465.976562 175.0625 466.480469 174.792969 C 466.984375 174.523438 467.472656 174.230469 467.949219 173.910156 C 468.425781 173.59375 468.886719 173.253906 469.328125 172.890625 C 469.769531 172.527344 470.195312 172.144531 470.597656 171.738281 C 471.003906 171.332031 471.386719 170.910156 471.75 170.46875 C 472.113281 170.027344 472.453125 169.566406 472.769531 169.089844 C 473.089844 168.617188 473.382812 168.125 473.652344 167.621094 C 473.921875 167.117188 474.167969 166.601562 474.386719 166.070312 C 474.605469 165.542969 474.796875 165.003906 474.964844 164.457031 C 475.128906 163.910156 475.269531 163.355469 475.378906 162.792969 C 475.492188 162.234375 475.574219 161.667969 475.632812 161.097656 C 475.6875 160.527344 475.714844 159.957031 475.714844 159.386719 C 475.714844 158.8125 475.6875 158.242188 475.632812 157.675781 C 475.574219 157.105469 475.492188 156.539062 475.378906 155.976562 C 475.269531 155.417969 475.128906 154.863281 474.964844 154.316406 C 474.796875 153.769531 474.605469 153.230469 474.386719 152.703125 C 474.167969 152.171875 473.921875 151.65625 473.652344 151.152344 C 473.382812 150.648438 473.089844 150.15625 472.769531 149.679688 C 472.453125 149.207031 472.113281 148.746094 471.75 148.304688 C 471.386719 147.863281 471.003906 147.4375 470.597656 147.035156 C 470.195312 146.628906 469.769531 146.246094 469.328125 145.882812 C 468.886719 145.519531 468.425781 145.179688 467.949219 144.863281 C 467.472656 144.542969 466.984375 144.25 466.480469 143.980469 C 465.976562 143.710938 465.457031 143.464844 464.929688 143.246094 C 464.402344 143.027344 463.863281 142.835938 463.316406 142.671875 C 462.765625 142.503906 462.210938 142.363281 461.652344 142.253906 C 461.089844 142.140625 460.523438 142.058594 459.957031 142 C 459.386719 141.945312 458.816406 141.917969 458.242188 141.917969 Z M 283.503906 141.917969 C 282.933594 141.917969 282.363281 141.945312 281.792969 142 C 281.222656 142.058594 280.65625 142.140625 280.097656 142.253906 C 279.535156 142.363281 278.980469 142.503906 278.433594 142.671875 C 277.886719 142.835938 277.347656 143.027344 276.820312 143.246094 C 276.289062 143.464844 275.773438 143.710938 275.269531 143.980469 C 274.761719 144.25 274.273438 144.542969 273.796875 144.863281 C 273.320312 145.179688 272.863281 145.519531 272.421875 145.882812 C 271.976562 146.246094 271.554688 146.628906 271.148438 147.035156 C 270.746094 147.4375 270.359375 147.863281 270 148.304688 C 269.636719 148.746094 269.292969 149.207031 268.976562 149.679688 C 268.660156 150.15625 268.363281 150.648438 268.09375 151.152344 C 267.824219 151.65625 267.582031 152.171875 267.363281 152.703125 C 267.144531 153.230469 266.949219 153.769531 266.785156 154.316406 C 266.617188 154.863281 266.480469 155.417969 266.367188 155.976562 C 266.253906 156.539062 266.171875 157.105469 266.117188 157.675781 C 266.058594 158.242188 266.03125 158.8125 266.03125 159.386719 C 266.03125 159.957031 266.058594 160.527344 266.117188 161.097656 C 266.171875 161.667969 266.253906 162.234375 266.367188 162.792969 C 266.480469 163.355469 266.617188 163.910156 266.785156 164.457031 C 266.949219 165.003906 267.144531 165.542969 267.363281 166.070312 C 267.582031 166.601562 267.824219 167.117188 268.09375 167.621094 C 268.363281 168.125 268.660156 168.617188 268.976562 169.089844 C 269.292969 169.566406 269.636719 170.027344 270 170.46875 C 270.359375 170.910156 270.746094 171.332031 271.148438 171.738281 C 271.554688 172.144531 271.976562 172.527344 272.421875 172.890625 C 272.863281 173.253906 273.320312 173.59375 273.796875 173.910156 C 274.273438 174.230469 274.761719 174.523438 275.269531 174.792969 C 275.773438 175.0625 276.289062 175.304688 276.820312 175.523438 C 277.347656 175.742188 277.886719 175.9375 278.433594 176.101562 C 278.980469 176.269531 279.535156 176.40625 280.097656 176.519531 C 280.65625 176.628906 281.222656 176.714844 281.792969 176.769531 C 282.363281 176.828125 282.933594 176.855469 283.503906 176.855469 C 284.078125 176.855469 284.648438 176.828125 285.21875 176.769531 C 285.789062 176.714844 286.351562 176.628906 286.914062 176.519531 C 287.476562 176.40625 288.03125 176.269531 288.578125 176.101562 C 289.125 175.9375 289.664062 175.742188 290.191406 175.523438 C 290.722656 175.304688 291.238281 175.0625 291.742188 174.792969 C 292.246094 174.523438 292.738281 174.230469 293.214844 173.910156 C 293.6875 173.59375 294.148438 173.253906 294.589844 172.890625 C 295.03125 172.527344 295.457031 172.144531 295.859375 171.738281 C 296.265625 171.332031 296.648438 170.910156 297.011719 170.46875 C 297.375 170.027344 297.714844 169.566406 298.035156 169.089844 C 298.351562 168.617188 298.644531 168.125 298.914062 167.621094 C 299.1875 167.117188 299.429688 166.601562 299.648438 166.070312 C 299.867188 165.542969 300.0625 165.003906 300.226562 164.457031 C 300.394531 163.910156 300.53125 163.355469 300.644531 162.792969 C 300.753906 162.234375 300.839844 161.667969 300.894531 161.097656 C 300.949219 160.527344 300.980469 159.957031 300.980469 159.386719 C 300.980469 158.8125 300.949219 158.242188 300.894531 157.675781 C 300.839844 157.105469 300.753906 156.539062 300.644531 155.976562 C 300.53125 155.417969 300.394531 154.863281 300.226562 154.316406 C 300.0625 153.769531 299.867188 153.230469 299.648438 152.703125 C 299.429688 152.171875 299.1875 151.65625 298.914062 151.152344 C 298.644531 150.648438 298.351562 150.15625 298.035156 149.679688 C 297.714844 149.207031 297.375 148.746094 297.011719 148.304688 C 296.648438 147.863281 296.265625 147.4375 295.859375 147.035156 C 295.457031 146.628906 295.03125 146.246094 294.589844 145.882812 C 294.148438 145.519531 293.6875 145.179688 293.214844 144.863281 C 292.738281 144.542969 292.246094 144.25 291.742188 143.980469 C 291.238281 143.710938 290.722656 143.464844 290.191406 143.246094 C 289.664062 143.027344 289.125 142.835938 288.578125 142.671875 C 288.03125 142.503906 287.476562 142.363281 286.914062 142.253906 C 286.351562 142.140625 285.789062 142.058594 285.21875 142 C 284.648438 141.945312 284.078125 141.917969 283.503906 141.917969 Z M 405.820312 211.792969 C 404.675781 211.792969 403.535156 211.820312 402.394531 211.875 C 401.257812 211.933594 400.125 212.015625 399.003906 212.128906 C 397.878906 212.238281 396.773438 212.378906 395.675781 212.542969 C 394.582031 212.710938 393.503906 212.902344 392.449219 213.121094 C 391.390625 213.339844 390.355469 213.585938 389.347656 213.855469 C 388.335938 214.125 387.355469 214.417969 386.40625 214.734375 C 385.453125 215.054688 384.535156 215.394531 383.652344 215.757812 C 382.765625 216.121094 381.917969 216.503906 381.109375 216.90625 C 380.300781 217.3125 379.53125 217.734375 378.804688 218.179688 C 378.082031 218.621094 377.398438 219.078125 376.761719 219.554688 C 376.128906 220.03125 375.539062 220.519531 375 221.027344 C 374.460938 221.53125 373.972656 222.046875 373.535156 222.574219 C 373.097656 223.105469 372.710938 223.640625 372.378906 224.1875 C 372.046875 224.738281 371.769531 225.292969 371.546875 225.851562 C 371.320312 226.414062 371.15625 226.980469 371.042969 227.546875 C 370.929688 228.117188 370.875 228.6875 370.875 229.261719 C 370.875 229.832031 370.929688 230.402344 371.042969 230.972656 C 371.15625 231.542969 371.320312 232.105469 371.546875 232.667969 C 371.769531 233.230469 372.046875 233.785156 372.378906 234.332031 C 372.710938 234.878906 373.097656 235.417969 373.535156 235.945312 C 373.972656 236.472656 374.460938 236.992188 375 237.496094 C 375.539062 238 376.128906 238.488281 376.761719 238.964844 C 377.398438 239.441406 378.082031 239.898438 378.804688 240.34375 C 379.53125 240.785156 380.300781 241.207031 381.109375 241.613281 C 381.917969 242.015625 382.765625 242.402344 383.652344 242.761719 C 384.535156 243.125 385.453125 243.46875 386.40625 243.785156 C 387.355469 244.101562 388.335938 244.394531 389.347656 244.667969 C 390.355469 244.9375 391.390625 245.179688 392.449219 245.398438 C 393.503906 245.617188 394.582031 245.808594 395.675781 245.976562 C 396.773438 246.144531 397.878906 246.28125 399.003906 246.394531 C 400.125 246.503906 401.257812 246.589844 402.394531 246.644531 C 403.535156 246.699219 404.675781 246.730469 405.820312 246.730469 C 406.964844 246.730469 408.109375 246.699219 409.246094 246.644531 C 410.386719 246.589844 411.515625 246.503906 412.640625 246.394531 C 413.761719 246.28125 414.871094 246.144531 415.964844 245.976562 C 417.0625 245.808594 418.136719 245.617188 419.195312 245.398438 C 420.253906 245.179688 421.285156 244.9375 422.296875 244.667969 C 423.304688 244.394531 424.285156 244.101562 425.238281 243.785156 C 426.1875 243.46875 427.105469 243.125 427.992188 242.761719 C 428.875 242.402344 429.722656 242.015625 430.53125 241.613281 C 431.34375 241.207031 432.109375 240.785156 432.835938 240.34375 C 433.5625 239.898438 434.242188 239.441406 434.878906 238.964844 C 435.515625 238.488281 436.101562 238 436.640625 237.496094 C 437.183594 236.992188 437.671875 236.472656 438.109375 235.945312 C 438.546875 235.417969 438.929688 234.878906 439.265625 234.332031 C 439.597656 233.785156 439.875 233.230469 440.097656 232.667969 C 440.320312 232.105469 440.488281 231.542969 440.601562 230.972656 C 440.710938 230.402344 440.769531 229.832031 440.769531 229.261719 C 440.769531 228.6875 440.710938 228.117188 440.601562 227.546875 C 440.488281 226.980469 440.320312 226.414062 440.097656 225.851562 C 439.875 225.292969 439.597656 224.738281 439.265625 224.1875 C 438.929688 223.640625 438.546875 223.105469 438.109375 222.574219 C 437.671875 222.046875 437.183594 221.53125 436.640625 221.027344 C 436.101562 220.519531 435.515625 220.03125 434.878906 219.554688 C 434.242188 219.078125 433.5625 218.621094 432.835938 218.179688 C 432.109375 217.734375 431.34375 217.3125 430.53125 216.90625 C 429.722656 216.503906 428.875 216.121094 427.992188 215.757812 C 427.105469 215.394531 426.1875 215.054688 425.238281 214.734375 C 424.285156 214.417969 423.304688 214.125 422.296875 213.855469 C 421.285156 213.585938 420.253906 213.339844 419.195312 213.121094 C 418.136719 212.902344 417.0625 212.710938 415.964844 212.542969 C 414.871094 212.378906 413.761719 212.238281 412.640625 212.128906 C 411.515625 212.015625 410.386719 211.933594 409.246094 211.875 C 408.109375 211.820312 406.964844 211.792969 405.820312 211.792969 Z M 405.820312 211.792969 "/>
</g>
</svg>
