<?xml version="1.0" encoding="UTF-8"?>
<svg xmlns="http://www.w3.org/2000/svg" xmlns:xlink="http://www.w3.org/1999/xlink" width="810pt" height="809.999993pt" viewBox="0 0 810 809.999993" version="1.2">
<defs>
<clipPath id="clip1">
  <path d="M 23 71 L 610.25 71 L 610.25 738 L 23 738 Z M 23 71 "/>
</clipPath>
<clipPath id="clip2">
  <path d="M 374.582031 260.25 L 804.332031 260.25 L 804.332031 740.25 L 374.582031 740.25 Z M 374.582031 260.25 "/>
</clipPath>
</defs>
<g id="surface1">
<g clip-path="url(#clip1)" clip-rule="nonzero">
<path style=" stroke:none;fill-rule:nonzero;fill:rgb(89.408875%,30.198669%,14.898682%);fill-opacity:1;" d="M 76.3125 670.976562 L 22.832031 71.832031 L 610.425781 71.832031 L 556.90625 670.894531 L 316.253906 737.503906 Z M 76.3125 670.976562 "/>
</g>
<path style=" stroke:none;fill-rule:nonzero;fill:rgb(94.509888%,39.608765%,16.079712%);fill-opacity:1;" d="M 511.070312 632.742188 L 556.824219 120.824219 L 316.628906 120.824219 L 316.628906 686.601562 Z M 511.070312 632.742188 "/>
<path style=" stroke:none;fill-rule:nonzero;fill:rgb(92.158508%,92.158508%,92.158508%);fill-opacity:1;" d="M 316.378906 194.296875 L 132.164062 194.296875 L 152.007812 416.515625 L 316.628906 416.515625 L 316.628906 343.039062 L 219.292969 343.039062 L 212.566406 267.796875 L 316.628906 267.796875 L 316.628906 194.296875 Z M 316.628906 533.636719 L 316.316406 533.71875 L 234.390625 511.625 L 229.1875 453.023438 L 155.300781 453.023438 L 165.609375 568.398438 L 316.296875 610.003906 L 316.628906 609.898438 Z M 316.628906 533.636719 "/>
<path style=" stroke:none;fill-rule:nonzero;fill:rgb(100%,100%,100%);fill-opacity:1;" d="M 316.378906 416.515625 L 406.96875 416.515625 L 398.636719 511.792969 L 316.589844 533.90625 L 316.589844 610.355469 L 467.402344 568.605469 L 487.601562 342.996094 L 316.628906 342.996094 Z M 498.890625 214.019531 L 500.636719 194.296875 L 316.339844 194.296875 L 316.339844 267.773438 L 494.015625 267.773438 L 495.472656 251.257812 Z M 498.890625 214.019531 "/>
<g clip-path="url(#clip2)" clip-rule="nonzero">
<path style=" stroke:none;fill-rule:nonzero;fill:rgb(0.779724%,46.669006%,74.119568%);fill-opacity:1;" d="M 804.609375 260.25 L 374.644531 260.25 L 412.582031 689.910156 L 589.625 740.460938 L 766.667969 689.910156 Z M 804.609375 260.25 "/>
</g>
<path style=" stroke:none;fill-rule:nonzero;fill:rgb(1.179504%,60.778809%,89.7995%);fill-opacity:1;" d="M 589.625 298.160156 L 589.625 701.285156 L 731.261719 660.847656 L 762.875 298.160156 Z M 589.625 298.160156 "/>
<path style=" stroke:none;fill-rule:nonzero;fill:rgb(100%,100%,100%);fill-opacity:1;" d="M 704.703125 361.347656 L 589.625 361.347656 L 589.625 411.894531 L 651.589844 411.894531 L 647.796875 462.445312 L 589.625 462.445312 L 589.625 512.992188 L 645.269531 512.992188 L 641.472656 569.859375 L 589.625 587.550781 L 589.625 640.628906 L 689.527344 607.769531 L 698.382812 462.445312 Z M 704.703125 361.347656 "/>
<path style=" stroke:none;fill-rule:nonzero;fill:rgb(93.328857%,93.328857%,93.328857%);fill-opacity:1;" d="M 589.625 361.347656 L 589.625 411.894531 L 477.074219 411.894531 L 473.28125 361.347656 Z M 531.453125 462.445312 L 533.984375 512.992188 L 589.625 512.992188 L 589.625 462.445312 Z M 536.511719 538.265625 L 485.929688 538.265625 L 489.722656 607.769531 L 589.625 640.628906 L 589.625 587.550781 L 537.777344 569.859375 Z M 536.511719 538.265625 "/>
</g>
</svg>
