<?xml version="1.0" encoding="UTF-8"?>
<svg xmlns="http://www.w3.org/2000/svg" xmlns:xlink="http://www.w3.org/1999/xlink" width="810pt" height="809.999993pt" viewBox="0 0 810 809.999993" version="1.2">
<defs>
<clipPath id="clip1">
  <path d="M 211 364 L 719 364 L 719 558.894531 L 211 558.894531 Z M 211 364 "/>
</clipPath>
<clipPath id="clip2">
  <path d="M 421 250.796875 L 599 250.796875 L 599 558 L 421 558 Z M 421 250.796875 "/>
</clipPath>
<clipPath id="clip3">
  <path d="M 211 364 L 389 364 L 389 558.894531 L 211 558.894531 Z M 211 364 "/>
</clipPath>
</defs>
<g id="surface1">
<g clip-path="url(#clip1)" clip-rule="nonzero">
<path style=" stroke:none;fill-rule:nonzero;fill:rgb(21.958923%,55.688477%,23.529053%);fill-opacity:1;" d="M 295.246094 365.679688 L 216.019531 409.476562 C 213.050781 411.105469 211.226562 414.136719 211.226562 417.410156 L 211.226562 505.050781 C 211.226562 508.324219 213.050781 511.339844 216.019531 512.984375 L 295.261719 556.8125 C 298.21875 558.441406 301.882812 558.441406 304.839844 556.8125 L 384.066406 512.984375 C 387.003906 511.339844 388.828125 508.324219 388.828125 505.050781 L 388.828125 417.410156 C 388.828125 414.136719 387.003906 411.121094 384.03125 409.472656 L 304.820312 365.679688 C 303.335938 364.855469 301.671875 364.453125 300.027344 364.453125 C 298.363281 364.453125 296.714844 364.855469 295.230469 365.679688 M 702.878906 444.574219 L 689.671875 451.867188 C 689.171875 452.140625 688.878906 452.640625 688.878906 453.1875 L 688.878906 467.804688 C 688.878906 468.351562 689.1875 468.851562 689.671875 469.125 L 702.878906 476.433594 C 703.378906 476.707031 703.976562 476.707031 704.476562 476.433594 L 717.683594 469.125 C 718.167969 468.851562 718.476562 468.351562 718.476562 467.804688 L 718.476562 453.1875 C 718.476562 452.640625 718.167969 452.140625 717.667969 451.867188 L 704.460938 444.574219 C 704.21875 444.429688 703.945312 444.367188 703.671875 444.367188 C 703.394531 444.367188 703.121094 444.429688 702.878906 444.574219 "/>
</g>
<g clip-path="url(#clip2)" clip-rule="nonzero">
<path style=" stroke:none;fill-rule:nonzero;fill:rgb(21.569824%,27.839661%,30.979919%);fill-opacity:1;" d="M 594.703125 272.796875 L 556.128906 251.296875 C 554.917969 250.617188 553.433594 250.636719 552.238281 251.34375 C 551.042969 252.054688 550.300781 253.328125 550.300781 254.714844 L 550.285156 384.601562 L 514.714844 364.9375 C 513.230469 364.113281 511.566406 363.710938 509.921875 363.710938 C 508.273438 363.710938 506.613281 364.113281 505.125 364.9375 L 505.140625 364.9375 L 425.914062 408.734375 C 422.945312 410.363281 421.121094 413.394531 421.121094 416.652344 L 421.121094 504.292969 C 421.121094 507.566406 422.945312 510.582031 425.914062 512.226562 L 505.160156 556.054688 C 508.113281 557.683594 511.777344 557.683594 514.734375 556.054688 L 593.960938 512.226562 C 596.898438 510.597656 598.722656 507.566406 598.722656 504.292969 L 598.722656 279.636719 C 598.722656 276.800781 597.171875 274.1875 594.703125 272.796875 Z M 548.121094 484.015625 L 512.117188 503.9375 C 510.777344 504.679688 509.113281 504.679688 507.773438 503.9375 L 471.753906 484.015625 C 470.378906 483.273438 469.558594 481.886719 469.558594 480.402344 L 469.558594 440.558594 C 469.558594 439.074219 470.378906 437.703125 471.738281 436.945312 L 507.757812 417.039062 L 507.742188 417.039062 C 508.417969 416.667969 509.164062 416.492188 509.921875 416.492188 C 510.679688 416.492188 511.421875 416.683594 512.101562 417.039062 L 548.105469 436.945312 C 549.460938 437.703125 550.285156 439.089844 550.285156 440.574219 L 550.285156 480.417969 C 550.285156 481.886719 549.460938 483.273438 548.121094 484.015625 Z M 548.121094 484.015625 "/>
</g>
<g clip-path="url(#clip3)" clip-rule="nonzero">
<path style=" stroke:none;fill-rule:nonzero;fill:rgb(18.03894%,49.01886%,19.60907%);fill-opacity:1;" d="M 295.246094 365.679688 L 211.226562 505.050781 C 211.226562 508.324219 213.050781 511.339844 216.019531 512.984375 L 295.261719 556.8125 C 298.21875 558.441406 301.882812 558.441406 304.839844 556.8125 L 388.828125 417.410156 C 388.828125 414.136719 387.003906 411.121094 384.03125 409.476562 L 304.820312 365.679688 C 303.335938 364.855469 301.671875 364.453125 300.027344 364.453125 C 298.363281 364.453125 296.714844 364.855469 295.230469 365.679688 "/>
<path style=" stroke:none;fill-rule:nonzero;fill:rgb(29.798889%,68.629456%,31.369019%);fill-opacity:1;" d="M 295.246094 365.679688 L 216.019531 409.476562 C 213.050781 411.105469 211.226562 414.136719 211.226562 417.410156 L 295.246094 556.8125 C 298.203125 558.441406 301.867188 558.441406 304.820312 556.8125 L 384.050781 512.984375 C 387.003906 511.339844 388.828125 508.324219 388.828125 505.050781 L 304.820312 365.679688 C 303.335938 364.855469 301.671875 364.453125 300.027344 364.453125 C 298.363281 364.453125 296.714844 364.855469 295.230469 365.679688 "/>
</g>
<path style=" stroke:none;fill-rule:nonzero;fill:rgb(21.569824%,27.839661%,30.979919%);fill-opacity:1;" d="M 787.675781 408.734375 L 708.464844 364.9375 C 706.980469 364.113281 705.316406 363.710938 703.671875 363.710938 C 702.023438 363.710938 700.359375 364.113281 698.875 364.9375 L 698.890625 364.9375 L 619.664062 408.734375 C 616.710938 410.363281 614.867188 413.457031 614.867188 416.847656 L 614.867188 504.128906 C 614.867188 507.5 616.710938 510.613281 619.664062 512.242188 L 698.90625 556.070312 C 701.878906 557.714844 705.511719 557.714844 708.480469 556.070312 L 745.019531 535.859375 C 748.363281 534.003906 748.34375 529.214844 744.988281 527.375 L 665.484375 484.03125 C 664.144531 483.273438 663.304688 481.871094 663.304688 480.351562 L 663.304688 440.574219 C 663.304688 439.089844 664.113281 437.71875 665.40625 437.011719 L 701.492188 417.070312 L 701.472656 417.070312 C 702.152344 416.703125 702.894531 416.523438 703.652344 416.523438 C 704.414062 416.523438 705.15625 416.71875 705.832031 417.070312 L 741.917969 437.027344 C 743.210938 437.734375 744.019531 439.105469 744.019531 440.589844 L 744.019531 473.046875 C 744.019531 474.433594 744.761719 475.722656 745.972656 476.417969 C 747.183594 477.09375 748.667969 477.09375 749.878906 476.402344 L 788.597656 453.929688 C 790.988281 452.542969 792.472656 449.980469 792.472656 447.203125 L 792.472656 416.878906 C 792.472656 413.476562 790.632812 410.363281 787.675781 408.734375 Z M 190.285156 408.734375 L 111.074219 364.9375 C 109.585938 364.113281 107.925781 363.710938 106.277344 363.710938 C 104.628906 363.710938 102.96875 364.113281 101.480469 364.9375 L 101.5 364.9375 L 22.269531 408.734375 C 19.316406 410.363281 17.476562 413.457031 17.476562 416.847656 L 17.476562 537.261719 C 17.476562 538.648438 18.21875 539.941406 19.429688 540.632812 C 20.640625 541.3125 22.125 541.3125 23.335938 540.617188 L 62.054688 518.148438 C 64.445312 516.761719 65.914062 514.195312 65.914062 511.421875 L 65.914062 440.558594 C 65.914062 439.074219 66.71875 437.703125 68.011719 436.992188 L 104.097656 417.054688 C 104.777344 416.683594 105.519531 416.507812 106.277344 416.507812 C 107.035156 416.507812 107.777344 416.703125 108.457031 417.054688 L 144.542969 437.011719 C 145.835938 437.71875 146.640625 439.089844 146.640625 440.574219 L 146.640625 511.4375 C 146.640625 514.210938 148.109375 516.777344 150.515625 518.164062 L 189.234375 540.632812 C 190.445312 541.328125 191.929688 541.328125 193.140625 540.648438 C 194.335938 539.941406 195.078125 538.648438 195.078125 537.261719 L 195.078125 416.863281 C 195.078125 413.476562 193.238281 410.363281 190.285156 408.734375 Z M 190.285156 408.734375 "/>
</g>
</svg>
