<?xml version="1.0" encoding="UTF-8"?>
<svg xmlns="http://www.w3.org/2000/svg" xmlns:xlink="http://www.w3.org/1999/xlink" width="810pt" height="809.999993pt" viewBox="0 0 810 809.999993" version="1.2">
<defs>
<clipPath id="clip1">
  <path d="M 40.265625 207.585938 L 770.015625 207.585938 L 770.015625 601.773438 L 40.265625 601.773438 Z M 40.265625 207.585938 "/>
</clipPath>
</defs>
<g id="surface1">
<g clip-path="url(#clip1)" clip-rule="nonzero">
<path style=" stroke:none;fill-rule:nonzero;fill:rgb(0%,0%,0%);fill-opacity:1;" d="M 405.289062 207.585938 C 306.621094 207.585938 217.160156 228.195312 151.085938 262.605469 C 85.011719 297.011719 40.546875 346.582031 40.546875 404.679688 C 40.546875 462.777344 85.011719 512.347656 151.085938 546.753906 C 217.160156 581.160156 306.621094 601.769531 405.289062 601.769531 C 503.953125 601.769531 593.414062 581.160156 659.488281 546.753906 C 725.5625 512.347656 770.027344 462.777344 770.027344 404.679688 C 770.027344 346.582031 725.5625 297.011719 659.488281 262.605469 C 593.414062 228.195312 503.953125 207.585938 405.289062 207.585938 Z M 405.289062 237.910156 C 499.679688 237.910156 584.984375 257.984375 645.417969 289.492188 C 705.851562 320.9375 739.632812 362.277344 739.632812 404.679688 C 739.632812 447.082031 705.851562 488.421875 645.417969 519.867188 C 584.984375 551.375 499.679688 571.449219 405.289062 571.449219 C 310.898438 571.449219 225.589844 551.375 165.15625 519.867188 C 104.722656 488.421875 70.945312 447.082031 70.945312 404.679688 C 70.945312 362.277344 104.722656 320.9375 165.15625 289.492188 C 225.589844 257.984375 310.898438 237.910156 405.289062 237.910156 Z M 367.414062 268.230469 L 329.300781 450.164062 L 369.195312 450.164062 L 388.425781 359.195312 L 420.308594 359.195312 C 430.457031 359.195312 437.226562 360.855469 440.371094 364.230469 C 443.460938 367.605469 444.113281 374.003906 442.332031 383.183594 L 427.785156 450.164062 L 468.273438 450.164062 L 484.066406 377.734375 C 487.449219 360.382812 484.894531 347.648438 476.464844 339.890625 C 467.859375 332.015625 452.71875 328.875 430.160156 328.875 L 394.601562 328.875 L 407.246094 268.230469 Z M 192.523438 328.875 L 161.710938 495.644531 L 201.902344 495.644531 L 209.917969 450.164062 L 234.96875 450.164062 C 287.328125 450.164062 315.824219 438.082031 326.449219 393.25 C 335.59375 354.695312 312.203125 328.875 273.554688 328.875 Z M 511.667969 328.875 L 480.859375 495.644531 L 521.050781 495.644531 L 529.0625 450.164062 L 554.117188 450.164062 C 606.476562 450.164062 634.96875 438.082031 645.597656 393.25 C 654.738281 354.695312 631.347656 328.875 592.703125 328.875 Z M 227.074219 359.195312 L 258.359375 359.195312 C 284.359375 359.195312 289.824219 370.863281 288.457031 383.832031 C 284.953125 417.292969 264.058594 419.839844 241.617188 419.839844 L 215.558594 419.839844 Z M 546.21875 359.195312 L 577.503906 359.195312 C 603.507812 359.195312 608.96875 370.863281 607.601562 383.832031 C 604.101562 417.292969 583.203125 419.839844 560.765625 419.839844 L 534.703125 419.839844 Z M 546.21875 359.195312 "/>
</g>
</g>
</svg>
