<?xml version="1.0" encoding="UTF-8"?>
<svg xmlns="http://www.w3.org/2000/svg" xmlns:xlink="http://www.w3.org/1999/xlink" width="810pt" height="809.999993pt" viewBox="0 0 810 809.999993" version="1.2">
<g id="surface1">
<path style=" stroke:none;fill-rule:nonzero;fill:rgb(0%,84.709167%,100%);fill-opacity:1;" d="M 649.746094 285.886719 C 641.882812 283.179688 633.722656 280.613281 625.292969 278.1875 C 626.6875 272.550781 627.964844 266.988281 629.09375 261.519531 C 647.582031 171.722656 635.503906 99.382812 594.164062 75.566406 C 554.519531 52.730469 489.707031 76.542969 424.242188 133.46875 C 417.949219 138.941406 411.628906 144.734375 405.339844 150.808594 C 401.125 146.792969 396.941406 142.910156 392.757812 139.195312 C 324.144531 78.328125 255.378906 52.671875 214.089844 76.558594 C 174.492188 99.464844 162.769531 167.46875 179.433594 252.570312 C 181.042969 260.789062 182.921875 269.183594 185.046875 277.71875 C 175.316406 280.480469 165.921875 283.421875 156.933594 286.550781 C 76.5 314.570312 25.136719 358.488281 25.136719 404.046875 C 25.136719 451.078125 80.277344 498.285156 164.054688 526.902344 C 170.660156 529.15625 177.523438 531.289062 184.589844 533.308594 C 182.296875 542.53125 180.304688 551.574219 178.625 560.410156 C 162.738281 644.035156 175.144531 710.429688 214.632812 733.171875 C 255.421875 756.6875 323.878906 732.519531 390.53125 674.3125 C 395.8125 669.714844 401.09375 664.820312 406.378906 659.722656 C 413.261719 666.304688 420.117188 672.5625 426.914062 678.433594 C 491.488281 733.945312 555.257812 756.363281 594.699219 733.558594 C 635.441406 709.984375 648.707031 638.636719 631.496094 551.871094 C 630.191406 545.226562 628.648438 538.46875 626.957031 531.585938 C 631.761719 530.164062 636.480469 528.679688 641.082031 527.167969 C 728.179688 498.316406 784.828125 451.730469 784.828125 404.046875 C 784.828125 358.324219 731.800781 314.113281 649.746094 285.886719 Z M 630.875 496.386719 C 626.71875 497.753906 622.445312 499.085938 618.113281 500.363281 C 608.496094 469.96875 595.53125 437.613281 579.625 404.195312 C 594.789062 371.574219 607.25 339.652344 616.597656 309.433594 C 624.375 311.679688 631.910156 314.050781 639.183594 316.550781 C 709.484375 340.734375 752.363281 376.5 752.363281 404.046875 C 752.363281 433.375 706.070312 471.480469 630.875 496.386719 Z M 599.65625 558.15625 C 607.28125 596.527344 608.347656 631.222656 603.304688 658.355469 C 598.792969 682.734375 589.683594 698.984375 578.4375 705.476562 C 554.488281 719.324219 503.296875 701.324219 448.101562 653.851562 C 441.75 648.394531 435.371094 642.582031 428.988281 636.441406 C 450.386719 613.046875 471.78125 585.855469 492.675781 555.636719 C 529.382812 552.40625 564.074219 547.066406 595.558594 539.800781 C 597.101562 546.058594 598.46875 552.167969 599.65625 558.15625 Z M 284.144531 703.074219 C 260.753906 711.347656 242.125 711.585938 230.859375 705.089844 C 206.898438 691.273438 196.9375 637.957031 210.523438 566.460938 C 212.082031 558.277344 213.933594 549.855469 216.070312 541.253906 C 247.1875 548.132812 281.632812 553.085938 318.445312 556.050781 C 339.472656 585.617188 361.488281 612.78125 383.65625 636.5625 C 378.820312 641.246094 373.984375 645.695312 369.175781 649.875 C 339.707031 675.644531 310.175781 693.914062 284.144531 703.074219 Z M 174.5625 496.210938 C 137.515625 483.546875 106.925781 467.121094 85.957031 449.148438 C 67.113281 433.046875 57.601562 417.035156 57.601562 404.046875 C 57.601562 376.410156 98.839844 341.140625 167.625 317.175781 C 175.972656 314.265625 184.710938 311.527344 193.777344 308.953125 C 203.285156 339.851562 215.753906 372.167969 230.800781 404.816406 C 215.558594 437.96875 202.910156 470.796875 193.308594 502.082031 C 186.847656 500.214844 180.585938 498.257812 174.5625 496.210938 Z M 211.292969 246.34375 C 197.015625 173.429688 206.496094 118.429688 230.359375 104.625 C 255.773438 89.925781 311.972656 110.886719 371.195312 163.445312 C 374.992188 166.804688 378.789062 170.320312 382.621094 173.957031 C 360.539062 197.640625 338.730469 224.601562 317.890625 253.988281 C 282.160156 257.296875 247.960938 262.609375 216.515625 269.730469 C 214.539062 261.78125 212.789062 253.976562 211.292969 246.34375 Z M 538.972656 327.199219 C 531.460938 314.226562 523.746094 301.558594 515.882812 289.234375 C 540.128906 292.296875 563.335938 296.363281 585.144531 301.335938 C 578.617188 322.304688 570.457031 344.226562 560.839844 366.710938 C 553.957031 353.628906 546.65625 340.449219 538.972656 327.199219 Z M 405.339844 197.132812 C 420.328125 213.339844 435.3125 231.433594 450.0625 251.0625 C 435.195312 250.363281 420.148438 250 404.984375 250 C 389.96875 250 375.042969 250.355469 360.265625 251.046875 C 375.011719 231.59375 390.148438 213.527344 405.339844 197.132812 Z M 270.859375 327.425781 C 263.351562 340.433594 256.195312 353.542969 249.410156 366.683594 C 239.960938 344.28125 231.875 322.257812 225.273438 300.992188 C 246.949219 296.144531 270.0625 292.179688 294.148438 289.175781 C 286.167969 301.613281 278.386719 314.375 270.859375 327.421875 Z M 294.839844 521.207031 C 269.957031 518.449219 246.496094 514.683594 224.824219 509.96875 C 231.535156 488.324219 239.796875 465.84375 249.449219 442.953125 C 256.25 456.089844 263.429688 469.195312 270.984375 482.242188 L 270.988281 482.242188 C 278.683594 495.527344 286.65625 508.515625 294.839844 521.207031 Z M 406.230469 613.222656 C 390.859375 596.648438 375.519531 578.292969 360.53125 558.574219 C 375.074219 559.136719 389.910156 559.433594 404.984375 559.433594 C 420.476562 559.433594 435.789062 559.078125 450.835938 558.425781 C 436.054688 578.5 421.097656 596.886719 406.230469 613.222656 Z M 561.136719 441.796875 C 571.289062 464.925781 579.863281 487.285156 586.660156 508.574219 C 564.640625 513.585938 540.839844 517.621094 515.792969 520.644531 C 523.6875 508.160156 531.460938 495.261719 539.121094 482.007812 C 546.863281 468.601562 554.195312 455.167969 561.136719 441.796875 Z M 510.988281 465.816406 C 499.117188 486.394531 486.917969 506.027344 474.546875 524.558594 C 452.019531 526.160156 428.726562 526.992188 404.984375 526.992188 C 381.335938 526.992188 358.335938 526.28125 336.199219 524.828125 C 323.320312 506.054688 310.871094 486.367188 299.070312 465.992188 L 299.074219 465.992188 C 287.304688 445.679688 276.472656 425.191406 266.660156 404.816406 C 276.46875 384.414062 287.273438 363.894531 298.976562 343.621094 L 298.972656 343.625 C 310.703125 323.296875 323.050781 303.691406 335.8125 285.023438 C 358.394531 283.316406 381.570312 282.425781 404.984375 282.425781 C 428.519531 282.425781 451.695312 283.324219 474.277344 285.046875 C 486.859375 303.578125 499.117188 323.117188 510.898438 343.449219 C 522.796875 364.015625 533.746094 384.386719 543.628906 404.371094 C 533.777344 424.6875 522.855469 445.265625 510.988281 465.816406 Z M 577.933594 103.652344 C 603.394531 118.316406 613.277344 177.433594 597.285156 254.964844 C 596.273438 259.910156 595.117188 264.949219 593.871094 270.054688 C 562.355469 262.789062 528.140625 257.382812 492.320312 254.023438 C 471.429688 224.316406 449.796875 197.3125 428.074219 173.933594 C 433.917969 168.324219 439.765625 162.96875 445.550781 157.921875 C 501.640625 109.148438 554.074219 89.890625 577.933594 103.652344 Z M 404.984375 336.242188 C 442.4375 336.242188 472.824219 366.585938 472.824219 404.039062 C 472.824219 441.460938 442.4375 471.828125 404.984375 471.828125 C 367.535156 471.828125 337.148438 441.460938 337.148438 404.039062 C 337.148438 366.585938 367.535156 336.242188 404.984375 336.242188 Z M 404.984375 336.242188 "/>
</g>
</svg>
