<?xml version="1.0" encoding="UTF-8"?>
<svg xmlns="http://www.w3.org/2000/svg" xmlns:xlink="http://www.w3.org/1999/xlink" width="810pt" height="809.999993pt" viewBox="0 0 810 809.999993" version="1.2">
<defs>
<clipPath id="clip1">
  <path d="M 156 70 L 652 70 L 652 777.105469 L 156 777.105469 Z M 156 70 "/>
</clipPath>
<clipPath id="clip2">
  <path d="M 156 70 L 655 70 L 655 777.105469 L 156 777.105469 Z M 156 70 "/>
</clipPath>
</defs>
<g id="surface1">
<path style=" stroke:none;fill-rule:nonzero;fill:rgb(50.19989%,87.059021%,91.758728%);fill-opacity:1;" d="M 404.9375 595.128906 C 183.378906 595.128906 9.910156 519.503906 9.910156 423.253906 C 9.910156 327.007812 183.378906 251.382812 404.9375 251.382812 C 626.496094 251.382812 799.964844 327.007812 799.964844 423.253906 C 799.964844 519.503906 626.496094 595.128906 404.9375 595.128906 Z M 404.9375 285.757812 C 188.53125 285.757812 44.261719 356.226562 44.261719 423.253906 C 44.261719 490.285156 188.53125 560.753906 404.9375 560.753906 C 621.34375 560.753906 765.613281 490.285156 765.613281 423.253906 C 765.613281 356.226562 621.34375 285.757812 404.9375 285.757812 Z M 404.9375 285.757812 "/>
<g clip-path="url(#clip1)" clip-rule="nonzero">
<path style=" stroke:none;fill-rule:nonzero;fill:rgb(50.19989%,87.059021%,91.758728%);fill-opacity:1;" d="M 252.082031 777.316406 C 234.90625 777.316406 221.164062 773.878906 207.425781 765.285156 C 123.265625 717.160156 145.59375 529.816406 255.515625 337.320312 C 307.039062 247.945312 370.589844 172.320312 432.417969 124.195312 C 499.402344 72.632812 559.511719 57.164062 600.734375 81.226562 C 643.671875 105.289062 659.128906 165.445312 648.824219 249.664062 C 638.519531 328.726562 604.167969 421.535156 552.644531 510.910156 C 501.117188 600.285156 437.570312 675.910156 375.742188 724.035156 C 331.085938 758.410156 288.148438 777.316406 252.082031 777.316406 Z M 557.796875 103.570312 C 530.316406 103.570312 494.25 119.039062 454.746094 149.976562 C 396.351562 196.382812 336.238281 268.570312 286.429688 354.507812 C 178.226562 541.847656 167.921875 703.410156 224.601562 736.066406 C 253.796875 753.253906 301.886719 737.785156 355.128906 696.535156 C 413.527344 650.128906 473.636719 577.941406 523.445312 492.003906 C 573.253906 406.070312 605.886719 318.414062 616.191406 244.507812 C 624.777344 175.757812 614.472656 127.632812 585.277344 110.445312 C 576.6875 107.007812 568.101562 103.570312 557.796875 103.570312 Z M 557.796875 103.570312 "/>
</g>
<g clip-path="url(#clip2)" clip-rule="nonzero">
<path style=" stroke:none;fill-rule:nonzero;fill:rgb(50.19989%,87.059021%,91.758728%);fill-opacity:1;" d="M 559.511719 777.316406 C 473.636719 777.316406 349.976562 672.472656 257.234375 509.191406 C 145.59375 316.695312 123.265625 129.351562 207.425781 81.226562 C 291.582031 33.105469 442.722656 144.820312 554.359375 337.320312 C 605.886719 426.691406 640.234375 519.503906 650.542969 598.566406 C 662.5625 682.785156 645.390625 741.222656 602.449219 767.003906 C 588.710938 773.878906 574.972656 777.316406 559.511719 777.316406 Z M 224.601562 110.445312 C 167.921875 143.101562 178.226562 304.664062 286.429688 492.003906 C 394.632812 679.347656 528.597656 768.722656 585.277344 736.066406 C 614.472656 718.878906 624.777344 670.753906 616.191406 602.003906 C 605.886719 528.097656 573.253906 440.441406 523.445312 354.507812 C 415.242188 167.164062 281.277344 77.789062 224.601562 110.445312 Z M 224.601562 110.445312 "/>
</g>
<path style=" stroke:none;fill-rule:nonzero;fill:rgb(50.19989%,87.059021%,91.758728%);fill-opacity:1;" d="M 473.636719 423.253906 C 473.636719 424.382812 473.609375 425.503906 473.554688 426.628906 C 473.5 427.753906 473.417969 428.875 473.308594 429.996094 C 473.195312 431.113281 473.058594 432.230469 472.894531 433.34375 C 472.730469 434.457031 472.539062 435.566406 472.316406 436.667969 C 472.097656 437.773438 471.851562 438.867188 471.578125 439.960938 C 471.304688 441.050781 471.007812 442.136719 470.679688 443.210938 C 470.355469 444.289062 470 445.355469 469.621094 446.417969 C 469.242188 447.476562 468.839844 448.527344 468.410156 449.566406 C 467.976562 450.605469 467.523438 451.632812 467.042969 452.648438 C 466.5625 453.667969 466.054688 454.671875 465.527344 455.664062 C 464.996094 456.65625 464.441406 457.636719 463.863281 458.601562 C 463.285156 459.566406 462.683594 460.515625 462.058594 461.449219 C 461.433594 462.386719 460.789062 463.304688 460.117188 464.210938 C 459.449219 465.113281 458.757812 466 458.042969 466.871094 C 457.332031 467.738281 456.597656 468.589844 455.839844 469.425781 C 455.085938 470.257812 454.3125 471.074219 453.515625 471.867188 C 452.722656 472.664062 451.90625 473.441406 451.074219 474.195312 C 450.242188 474.953125 449.390625 475.6875 448.519531 476.398438 C 447.652344 477.113281 446.765625 477.804688 445.863281 478.476562 C 444.960938 479.144531 444.039062 479.792969 443.105469 480.417969 C 442.171875 481.042969 441.222656 481.644531 440.257812 482.222656 C 439.292969 482.800781 438.316406 483.355469 437.324219 483.886719 C 436.332031 484.417969 435.328125 484.921875 434.3125 485.40625 C 433.292969 485.886719 432.265625 486.339844 431.226562 486.773438 C 430.191406 487.203125 429.140625 487.605469 428.082031 487.984375 C 427.023438 488.367188 425.957031 488.71875 424.878906 489.042969 C 423.804688 489.371094 422.722656 489.671875 421.628906 489.945312 C 420.539062 490.21875 419.445312 490.464844 418.339844 490.683594 C 417.238281 490.902344 416.128906 491.097656 415.019531 491.261719 C 413.90625 491.425781 412.789062 491.5625 411.671875 491.675781 C 410.554688 491.785156 409.433594 491.867188 408.308594 491.921875 C 407.1875 491.976562 406.0625 492.003906 404.9375 492.003906 C 403.8125 492.003906 402.691406 491.976562 401.566406 491.921875 C 400.445312 491.867188 399.324219 491.785156 398.203125 491.675781 C 397.085938 491.5625 395.96875 491.425781 394.859375 491.261719 C 393.746094 491.097656 392.636719 490.902344 391.535156 490.683594 C 390.433594 490.464844 389.335938 490.21875 388.246094 489.945312 C 387.15625 489.671875 386.070312 489.371094 384.996094 489.042969 C 383.917969 488.71875 382.851562 488.367188 381.792969 487.984375 C 380.734375 487.605469 379.6875 487.203125 378.648438 486.773438 C 377.609375 486.339844 376.582031 485.886719 375.566406 485.40625 C 374.546875 484.921875 373.542969 484.417969 372.554688 483.886719 C 371.5625 483.355469 370.582031 482.800781 369.617188 482.222656 C 368.65625 481.644531 367.707031 481.042969 366.769531 480.417969 C 365.835938 479.792969 364.917969 479.144531 364.011719 478.476562 C 363.109375 477.804688 362.222656 477.113281 361.355469 476.398438 C 360.484375 475.6875 359.636719 474.949219 358.800781 474.195312 C 357.96875 473.441406 357.15625 472.664062 356.359375 471.867188 C 355.566406 471.074219 354.789062 470.257812 354.035156 469.425781 C 353.28125 468.589844 352.546875 467.738281 351.832031 466.871094 C 351.117188 466 350.425781 465.113281 349.757812 464.210938 C 349.085938 463.304688 348.441406 462.386719 347.816406 461.449219 C 347.191406 460.515625 346.589844 459.566406 346.011719 458.601562 C 345.433594 457.636719 344.878906 456.65625 344.351562 455.664062 C 343.820312 454.671875 343.316406 453.667969 342.832031 452.648438 C 342.351562 451.632812 341.898438 450.605469 341.46875 449.566406 C 341.035156 448.527344 340.632812 447.476562 340.253906 446.417969 C 339.875 445.355469 339.523438 444.289062 339.195312 443.210938 C 338.871094 442.136719 338.570312 441.050781 338.296875 439.960938 C 338.023438 438.867188 337.777344 437.773438 337.558594 436.667969 C 337.339844 435.566406 337.144531 434.457031 336.980469 433.34375 C 336.816406 432.230469 336.679688 431.113281 336.570312 429.996094 C 336.457031 428.875 336.375 427.753906 336.320312 426.628906 C 336.265625 425.503906 336.238281 424.382812 336.238281 423.253906 C 336.238281 422.128906 336.265625 421.007812 336.320312 419.882812 C 336.375 418.757812 336.457031 417.636719 336.570312 416.515625 C 336.679688 415.398438 336.816406 414.28125 336.980469 413.167969 C 337.144531 412.054688 337.339844 410.945312 337.558594 409.84375 C 337.777344 408.738281 338.023438 407.640625 338.296875 406.550781 C 338.570312 405.460938 338.871094 404.375 339.195312 403.300781 C 339.523438 402.222656 339.875 401.152344 340.253906 400.09375 C 340.632812 399.035156 341.035156 397.984375 341.46875 396.945312 C 341.898438 395.90625 342.351562 394.878906 342.832031 393.863281 C 343.316406 392.84375 343.820312 391.839844 344.351562 390.847656 C 344.878906 389.855469 345.433594 388.875 346.011719 387.910156 C 346.589844 386.945312 347.191406 385.996094 347.816406 385.0625 C 348.441406 384.125 349.085938 383.207031 349.757812 382.300781 C 350.425781 381.398438 351.117188 380.511719 351.832031 379.640625 C 352.546875 378.773438 353.28125 377.921875 354.035156 377.085938 C 354.789062 376.253906 355.566406 375.4375 356.359375 374.644531 C 357.15625 373.847656 357.96875 373.070312 358.800781 372.316406 C 359.636719 371.558594 360.484375 370.824219 361.355469 370.113281 C 362.222656 369.398438 363.109375 368.707031 364.011719 368.035156 C 364.917969 367.367188 365.835938 366.71875 366.769531 366.09375 C 367.707031 365.46875 368.65625 364.867188 369.617188 364.289062 C 370.582031 363.710938 371.5625 363.15625 372.554688 362.625 C 373.542969 362.09375 374.546875 361.589844 375.566406 361.105469 C 376.582031 360.625 377.609375 360.171875 378.648438 359.738281 C 379.6875 359.308594 380.734375 358.90625 381.792969 358.523438 C 382.851562 358.144531 383.917969 357.792969 384.996094 357.46875 C 386.070312 357.140625 387.15625 356.839844 388.246094 356.566406 C 389.335938 356.292969 390.433594 356.046875 391.535156 355.828125 C 392.636719 355.609375 393.746094 355.414062 394.859375 355.25 C 395.96875 355.085938 397.085938 354.949219 398.203125 354.835938 C 399.324219 354.726562 400.445312 354.644531 401.566406 354.589844 C 402.691406 354.535156 403.8125 354.507812 404.9375 354.507812 C 406.0625 354.507812 407.1875 354.535156 408.308594 354.589844 C 409.433594 354.644531 410.554688 354.726562 411.671875 354.835938 C 412.789062 354.949219 413.90625 355.085938 415.019531 355.25 C 416.128906 355.414062 417.238281 355.609375 418.339844 355.828125 C 419.445312 356.046875 420.539062 356.292969 421.632812 356.566406 C 422.722656 356.839844 423.804688 357.140625 424.878906 357.46875 C 425.957031 357.792969 427.023438 358.144531 428.082031 358.523438 C 429.140625 358.90625 430.191406 359.308594 431.226562 359.738281 C 432.265625 360.171875 433.292969 360.625 434.3125 361.105469 C 435.328125 361.589844 436.332031 362.09375 437.324219 362.625 C 438.316406 363.15625 439.292969 363.710938 440.257812 364.289062 C 441.222656 364.867188 442.171875 365.46875 443.105469 366.09375 C 444.039062 366.71875 444.960938 367.367188 445.863281 368.035156 C 446.765625 368.707031 447.652344 369.398438 448.519531 370.113281 C 449.390625 370.824219 450.242188 371.558594 451.074219 372.316406 C 451.90625 373.070312 452.722656 373.847656 453.515625 374.644531 C 454.3125 375.4375 455.085938 376.253906 455.839844 377.085938 C 456.597656 377.921875 457.332031 378.773438 458.042969 379.640625 C 458.757812 380.511719 459.449219 381.398438 460.117188 382.300781 C 460.789062 383.207031 461.4375 384.125 462.058594 385.0625 C 462.683594 385.996094 463.285156 386.945312 463.863281 387.910156 C 464.441406 388.875 464.996094 389.855469 465.527344 390.847656 C 466.054688 391.839844 466.5625 392.84375 467.042969 393.863281 C 467.523438 394.878906 467.976562 395.90625 468.410156 396.945312 C 468.839844 397.984375 469.242188 399.035156 469.621094 400.09375 C 470 401.152344 470.355469 402.222656 470.679688 403.300781 C 471.007812 404.375 471.304688 405.460938 471.578125 406.550781 C 471.851562 407.640625 472.097656 408.738281 472.316406 409.84375 C 472.539062 410.945312 472.730469 412.054688 472.894531 413.167969 C 473.058594 414.28125 473.195312 415.398438 473.308594 416.515625 C 473.417969 417.636719 473.5 418.757812 473.554688 419.882812 C 473.609375 421.007812 473.636719 422.128906 473.636719 423.253906 Z M 473.636719 423.253906 "/>
</g>
</svg>
