<?xml version="1.0" encoding="UTF-8"?>
<svg xmlns="http://www.w3.org/2000/svg" xmlns:xlink="http://www.w3.org/1999/xlink" width="810pt" height="809.999993pt" viewBox="0 0 810 809.999993" version="1.2">
<defs>
<clipPath id="clip1">
  <path d="M 0 67.839844 L 810 67.839844 L 810 742.089844 L 0 742.089844 Z M 0 67.839844 "/>
</clipPath>
</defs>
<g id="surface1">
<g clip-path="url(#clip1)" clip-rule="nonzero">
<path style=" stroke:none;fill-rule:nonzero;fill:rgb(15.689087%,3.919983%,39.219666%);fill-opacity:1;" d="M 27.378906 175.71875 L 27.378906 121.777344 C 27.378906 105.394531 37.96875 94.808594 54.351562 94.808594 L 755.648438 94.808594 C 772.03125 94.808594 782.621094 105.394531 782.621094 121.777344 L 782.621094 175.71875 Z M 782.621094 493.300781 C 766.65625 494.195312 751.0625 496.671875 736.101562 500.621094 L 725.617188 468.226562 L 699.960938 476.550781 L 710.445312 508.945312 C 695.746094 514.6875 681.734375 521.851562 668.617188 530.277344 L 648.652344 502.730469 L 626.789062 518.53125 L 646.753906 546.082031 C 634.636719 556.035156 623.523438 567.152344 613.566406 579.265625 L 586.011719 559.304688 L 570.207031 581.164062 L 597.761719 601.128906 C 589.332031 614.242188 582.167969 628.253906 576.425781 642.953125 L 544.027344 632.46875 L 535.703125 658.121094 L 568.101562 668.605469 C 564.148438 683.566406 561.675781 699.15625 560.777344 715.117188 L 54.351562 715.117188 C 37.96875 715.117188 27.378906 704.53125 27.378906 688.148438 L 27.378906 202.6875 L 782.621094 202.6875 Z M 755.648438 715.117188 L 648.441406 715.117188 C 654.867188 644.058594 711.550781 587.378906 782.621094 580.953125 L 782.621094 688.148438 C 782.621094 704.53125 772.03125 715.117188 755.648438 715.117188 Z M 782.621094 520.269531 L 782.621094 553.984375 C 696.695312 560.566406 628.050781 629.203125 621.46875 715.117188 L 587.75 715.117188 C 594.441406 610.660156 678.152344 526.960938 782.621094 520.269531 Z M 755.648438 67.839844 L 54.351562 67.839844 C 23.113281 67.839844 0.40625 90.542969 0.40625 121.777344 L 0.40625 688.148438 C 0.40625 719.382812 23.113281 742.089844 54.351562 742.089844 L 755.648438 742.089844 C 786.886719 742.089844 809.59375 719.382812 809.59375 688.148438 L 809.59375 121.777344 C 809.59375 90.542969 786.886719 67.839844 755.648438 67.839844 "/>
</g>
<path style=" stroke:none;fill-rule:nonzero;fill:rgb(15.689087%,3.919983%,39.219666%);fill-opacity:1;" d="M 728.671875 148.746094 L 755.648438 148.746094 L 755.648438 121.777344 L 728.671875 121.777344 L 728.671875 148.746094 "/>
<path style=" stroke:none;fill-rule:nonzero;fill:rgb(15.689087%,3.919983%,39.219666%);fill-opacity:1;" d="M 54.351562 148.746094 L 81.328125 148.746094 L 81.328125 121.777344 L 54.351562 121.777344 L 54.351562 148.746094 "/>
<path style=" stroke:none;fill-rule:nonzero;fill:rgb(15.689087%,3.919983%,39.219666%);fill-opacity:1;" d="M 108.300781 148.746094 L 135.273438 148.746094 L 135.273438 121.777344 L 108.300781 121.777344 L 108.300781 148.746094 "/>
<path style=" stroke:none;fill-rule:nonzero;fill:rgb(15.689087%,3.919983%,39.219666%);fill-opacity:1;" d="M 162.246094 148.746094 L 189.21875 148.746094 L 189.21875 121.777344 L 162.246094 121.777344 L 162.246094 148.746094 "/>
<path style=" stroke:none;fill-rule:nonzero;fill:rgb(15.689087%,3.919983%,39.219666%);fill-opacity:1;" d="M 139.75 499.359375 L 184.738281 499.359375 C 216.929688 499.359375 243.164062 475.179688 243.164062 445.417969 L 243.164062 418.449219 C 243.164062 388.6875 216.929688 364.507812 184.738281 364.507812 L 139.75 364.507812 C 122.417969 364.507812 108.300781 352.390625 108.300781 337.539062 L 108.300781 310.566406 C 108.300781 295.714844 122.417969 283.597656 139.75 283.597656 L 184.738281 283.597656 C 202.070312 283.597656 216.191406 295.714844 216.191406 310.566406 L 216.191406 324.054688 L 243.164062 324.054688 L 243.164062 310.566406 C 243.164062 280.804688 216.929688 256.628906 184.738281 256.628906 L 139.75 256.628906 C 107.5625 256.628906 81.328125 280.804688 81.328125 310.566406 L 81.328125 337.539062 C 81.328125 367.300781 107.5625 391.476562 139.75 391.476562 L 184.738281 391.476562 C 202.070312 391.476562 216.191406 403.59375 216.191406 418.449219 L 216.191406 445.417969 C 216.191406 460.273438 202.070312 472.386719 184.738281 472.386719 L 139.75 472.386719 C 122.417969 472.386719 108.300781 460.273438 108.300781 445.417969 L 108.300781 431.933594 L 81.328125 431.933594 L 81.328125 445.417969 C 81.328125 475.179688 107.5625 499.359375 139.75 499.359375 "/>
<path style=" stroke:none;fill-rule:nonzero;fill:rgb(15.689087%,3.919983%,39.219666%);fill-opacity:1;" d="M 319.605469 499.359375 L 405 499.359375 L 405 472.386719 L 319.605469 472.386719 C 307.171875 472.386719 297.109375 460.273438 297.109375 445.417969 L 297.109375 391.476562 L 405 391.476562 L 405 364.507812 L 297.109375 364.507812 L 297.109375 310.566406 C 297.109375 295.714844 307.171875 283.597656 319.605469 283.597656 L 405 283.597656 L 405 256.628906 L 319.605469 256.628906 C 292.316406 256.628906 270.136719 280.804688 270.136719 310.566406 L 270.136719 445.417969 C 270.136719 475.179688 292.316406 499.359375 319.605469 499.359375 "/>
<path style=" stroke:none;fill-rule:nonzero;fill:rgb(15.689087%,3.919983%,39.219666%);fill-opacity:1;" d="M 458.945312 310.566406 C 458.945312 295.714844 473.0625 283.597656 490.394531 283.597656 L 535.386719 283.597656 C 552.71875 283.597656 566.835938 295.714844 566.835938 310.566406 L 566.835938 445.417969 C 566.835938 460.273438 552.71875 472.386719 535.386719 472.386719 L 490.394531 472.386719 C 473.0625 472.386719 458.945312 460.273438 458.945312 445.417969 Z M 490.394531 499.359375 L 535.386719 499.359375 C 567.574219 499.359375 593.808594 475.179688 593.808594 445.417969 L 593.808594 310.566406 C 593.808594 280.804688 567.574219 256.628906 535.386719 256.628906 L 490.394531 256.628906 C 458.207031 256.628906 431.972656 280.804688 431.972656 310.566406 L 431.972656 445.417969 C 431.972656 475.179688 458.207031 499.359375 490.394531 499.359375 "/>
</g>
</svg>
