<?xml version="1.0" encoding="UTF-8"?>
<svg xmlns="http://www.w3.org/2000/svg" xmlns:xlink="http://www.w3.org/1999/xlink" width="810pt" height="809.999993pt" viewBox="0 0 810 809.999993" version="1.2">
<defs>
<clipPath id="clip1">
  <path d="M 27.339844 27.339844 L 782.589844 27.339844 L 782.589844 782.589844 L 27.339844 782.589844 Z M 27.339844 27.339844 "/>
</clipPath>
</defs>
<g id="surface1">
<g clip-path="url(#clip1)" clip-rule="nonzero">
<path style=" stroke:none;fill-rule:nonzero;fill:rgb(45.098877%,45.098877%,45.098877%);fill-opacity:1;" d="M 231.460938 27.339844 C 197.6875 27.339844 170.222656 54.804688 170.222656 88.574219 L 170.222656 313.109375 L 149.8125 313.109375 C 121.671875 313.109375 98.78125 336 98.78125 364.140625 L 98.78125 374.34375 L 77.433594 374.34375 C 75.320312 368.414062 69.703125 364.140625 63.058594 364.140625 L 42.648438 364.140625 C 34.207031 364.140625 27.339844 371.007812 27.339844 379.449219 L 27.339844 430.480469 C 27.339844 438.917969 34.207031 445.789062 42.648438 445.789062 L 63.058594 445.789062 C 69.703125 445.789062 75.320312 441.511719 77.433594 435.582031 L 98.78125 435.582031 L 98.78125 697.550781 C 98.78125 744.449219 136.921875 782.589844 183.820312 782.589844 L 626.109375 782.589844 C 673.003906 782.589844 711.144531 744.449219 711.144531 697.550781 L 711.144531 435.582031 L 732.496094 435.582031 C 734.605469 441.511719 740.222656 445.789062 746.867188 445.789062 L 767.28125 445.789062 C 775.71875 445.789062 782.589844 438.917969 782.589844 430.480469 L 782.589844 379.449219 C 782.589844 371.007812 775.71875 364.140625 767.28125 364.140625 L 746.867188 364.140625 C 740.222656 364.140625 734.605469 368.414062 732.496094 374.34375 L 711.144531 374.34375 L 711.144531 364.140625 C 711.144531 336 688.253906 313.109375 660.117188 313.109375 L 639.703125 313.109375 L 639.703125 88.574219 C 639.703125 54.804688 612.238281 27.339844 578.46875 27.339844 Z M 231.460938 47.75 L 578.46875 47.75 C 600.980469 47.75 619.292969 66.058594 619.292969 88.574219 L 619.292969 323.316406 L 512.128906 323.316406 C 509.308594 323.316406 507.023438 325.601562 507.023438 328.417969 C 507.023438 364.375 460.289062 394.757812 404.964844 394.757812 C 349.636719 394.757812 302.902344 364.375 302.902344 328.417969 C 302.902344 325.601562 300.617188 323.316406 297.800781 323.316406 L 190.636719 323.316406 L 190.636719 88.574219 C 190.636719 66.058594 208.945312 47.75 231.460938 47.75 Z M 256.976562 108.988281 C 254.160156 108.988281 251.871094 111.273438 251.871094 114.089844 C 251.871094 116.90625 254.160156 119.191406 256.976562 119.191406 L 318.210938 119.191406 C 321.039062 119.191406 323.316406 116.90625 323.316406 114.089844 C 323.316406 111.273438 321.027344 108.988281 318.210938 108.988281 Z M 350.085938 108.988281 C 347.269531 108.988281 344.984375 111.273438 344.984375 114.089844 C 344.984375 116.90625 347.269531 119.191406 350.085938 119.191406 L 542.746094 119.191406 C 545.574219 119.191406 547.847656 116.90625 547.847656 114.089844 C 547.847656 111.273438 545.5625 108.988281 542.746094 108.988281 Z M 256.976562 180.429688 C 254.160156 180.429688 251.871094 182.714844 251.871094 185.53125 C 251.871094 188.347656 254.160156 190.636719 256.976562 190.636719 L 359.035156 190.636719 C 361.863281 190.636719 364.140625 188.347656 364.140625 185.53125 C 364.140625 182.714844 361.851562 180.429688 359.035156 180.429688 Z M 390.910156 180.429688 C 388.09375 180.429688 385.808594 182.714844 385.808594 185.53125 C 385.808594 188.347656 388.09375 190.636719 390.910156 190.636719 L 501.921875 190.636719 C 504.75 190.636719 507.023438 188.347656 507.023438 185.53125 C 507.023438 182.714844 504.738281 180.429688 501.921875 180.429688 Z M 523.589844 180.429688 C 520.773438 180.429688 518.484375 182.714844 518.484375 185.53125 C 518.484375 188.347656 520.773438 190.636719 523.589844 190.636719 L 552.953125 190.636719 C 555.777344 190.636719 558.054688 188.347656 558.054688 185.53125 C 558.054688 182.714844 555.769531 180.429688 552.953125 180.429688 Z M 256.976562 251.871094 C 254.160156 251.871094 251.871094 254.160156 251.871094 256.976562 C 251.871094 259.792969 254.160156 262.078125 256.976562 262.078125 L 430.480469 262.078125 C 433.304688 262.078125 435.582031 259.792969 435.582031 256.976562 C 435.582031 254.160156 433.296875 251.871094 430.480469 251.871094 Z M 452.148438 251.871094 C 449.328125 251.871094 447.042969 254.160156 447.042969 256.976562 C 447.042969 259.792969 449.328125 262.078125 452.148438 262.078125 L 542.746094 262.078125 C 545.574219 262.078125 547.847656 259.792969 547.847656 256.976562 C 547.847656 254.160156 545.5625 251.871094 542.746094 251.871094 Z M 149.8125 333.519531 L 149.8125 338.625 C 149.8125 363.945312 170.214844 384.550781 195.300781 384.550781 L 258.46875 384.550781 C 285.851562 428.050781 342.972656 455.992188 404.964844 455.992188 C 466.957031 455.992188 524.074219 428.050781 551.457031 384.550781 L 614.625 384.550781 C 639.714844 384.550781 660.117188 363.945312 660.117188 338.625 L 660.117188 333.519531 C 676.996094 333.519531 690.734375 347.257812 690.734375 364.140625 L 690.734375 697.550781 C 690.734375 733.191406 661.75 762.175781 626.109375 762.175781 L 183.820312 762.175781 C 148.179688 762.175781 119.191406 733.191406 119.191406 697.550781 L 119.191406 364.140625 C 119.191406 347.257812 132.929688 333.519531 149.8125 333.519531 Z M 160.015625 333.519531 L 292.957031 333.519531 C 296.957031 372.742188 346.617188 404.964844 404.964844 404.964844 C 463.3125 404.964844 512.96875 372.742188 516.972656 333.519531 L 649.910156 333.519531 L 649.910156 338.625 C 649.910156 358.320312 634.089844 374.34375 614.648438 374.34375 L 548.585938 374.34375 C 546.789062 374.34375 545.121094 375.296875 544.199219 376.835938 C 519.257812 418.734375 464.617188 445.789062 404.964844 445.789062 C 345.308594 445.789062 290.660156 418.734375 265.726562 376.835938 C 264.808594 375.296875 263.136719 374.34375 261.339844 374.34375 L 195.300781 374.34375 C 175.847656 374.34375 160.015625 358.320312 160.015625 338.625 Z M 42.648438 374.34375 L 63.058594 374.34375 C 65.867188 374.34375 68.164062 376.640625 68.164062 379.449219 L 68.164062 430.480469 C 68.164062 433.285156 65.867188 435.582031 63.058594 435.582031 L 42.648438 435.582031 C 39.839844 435.582031 37.542969 433.285156 37.542969 430.480469 L 37.542969 379.449219 C 37.542969 376.640625 39.839844 374.34375 42.648438 374.34375 Z M 746.867188 374.34375 L 767.28125 374.34375 C 770.085938 374.34375 772.382812 376.640625 772.382812 379.449219 L 772.382812 430.480469 C 772.382812 433.285156 770.085938 435.582031 767.28125 435.582031 L 746.867188 435.582031 C 744.058594 435.582031 741.765625 433.285156 741.765625 430.480469 L 741.765625 379.449219 C 741.765625 376.640625 744.058594 374.34375 746.867188 374.34375 Z M 78.367188 384.550781 L 98.78125 384.550781 L 98.78125 425.375 L 78.367188 425.375 Z M 711.144531 384.550781 L 731.558594 384.550781 L 731.558594 425.375 L 711.144531 425.375 Z M 216.152344 486.613281 C 190.828125 486.613281 170.222656 507.21875 170.222656 532.539062 L 170.222656 675.425781 C 170.222656 700.746094 190.828125 721.351562 216.152344 721.351562 L 593.777344 721.351562 C 619.097656 721.351562 639.703125 700.746094 639.703125 675.425781 L 639.703125 532.539062 C 639.703125 507.21875 619.097656 486.613281 593.777344 486.613281 Z M 216.152344 496.816406 L 593.777344 496.816406 C 613.472656 496.816406 629.496094 512.839844 629.496094 532.539062 L 629.496094 675.425781 C 629.496094 695.121094 613.472656 711.144531 593.777344 711.144531 L 216.152344 711.144531 C 196.453125 711.144531 180.429688 695.121094 180.429688 675.425781 L 180.429688 532.539062 C 180.429688 512.839844 196.453125 496.816406 216.152344 496.816406 Z M 205.945312 537.640625 C 203.128906 537.640625 200.84375 539.929688 200.84375 542.746094 C 200.84375 545.5625 203.128906 547.847656 205.945312 547.847656 L 491.714844 547.847656 C 494.53125 547.847656 496.816406 545.5625 496.816406 542.746094 C 496.816406 539.929688 494.53125 537.640625 491.714844 537.640625 Z M 542.746094 537.640625 C 539.929688 537.640625 537.640625 539.929688 537.640625 542.746094 C 537.640625 545.5625 539.929688 547.847656 542.746094 547.847656 L 573.363281 547.847656 C 576.179688 547.847656 578.46875 545.5625 578.46875 542.746094 C 578.46875 539.929688 576.179688 537.640625 573.363281 537.640625 Z M 593.777344 537.640625 C 590.960938 537.640625 588.671875 539.929688 588.671875 542.746094 C 588.671875 545.5625 590.960938 547.847656 593.777344 547.847656 L 603.980469 547.847656 C 606.800781 547.847656 609.085938 545.5625 609.085938 542.746094 C 609.085938 539.929688 606.800781 537.640625 603.980469 537.640625 Z M 226.355469 568.261719 C 212.28125 568.261719 200.84375 579.703125 200.84375 593.777344 C 200.84375 607.851562 212.28125 619.292969 226.355469 619.292969 C 240.429688 619.292969 251.871094 607.851562 251.871094 593.777344 C 251.871094 579.703125 240.429688 568.261719 226.355469 568.261719 Z M 297.800781 568.261719 C 283.726562 568.261719 272.285156 579.703125 272.285156 593.777344 C 272.285156 607.851562 283.726562 619.292969 297.800781 619.292969 C 311.875 619.292969 323.316406 607.851562 323.316406 593.777344 C 323.316406 579.703125 311.875 568.261719 297.800781 568.261719 Z M 369.242188 568.261719 C 355.167969 568.261719 343.726562 579.703125 343.726562 593.777344 C 343.726562 607.851562 355.167969 619.292969 369.242188 619.292969 C 383.316406 619.292969 394.757812 607.851562 394.757812 593.777344 C 394.757812 579.703125 383.316406 568.261719 369.242188 568.261719 Z M 440.683594 568.261719 C 426.609375 568.261719 415.167969 579.703125 415.167969 593.777344 C 415.167969 607.851562 426.609375 619.292969 440.683594 619.292969 C 454.757812 619.292969 466.199219 607.851562 466.199219 593.777344 C 466.199219 579.703125 454.757812 568.261719 440.683594 568.261719 Z M 512.128906 568.261719 C 498.054688 568.261719 486.613281 579.703125 486.613281 593.777344 C 486.613281 607.851562 498.054688 619.292969 512.128906 619.292969 C 526.203125 619.292969 537.640625 607.851562 537.640625 593.777344 C 537.640625 579.703125 526.203125 568.261719 512.128906 568.261719 Z M 583.570312 568.261719 C 569.496094 568.261719 558.054688 579.703125 558.054688 593.777344 C 558.054688 607.851562 569.496094 619.292969 583.570312 619.292969 C 597.644531 619.292969 609.085938 607.851562 609.085938 593.777344 C 609.085938 579.703125 597.644531 568.261719 583.570312 568.261719 Z M 226.355469 578.464844 C 234.796875 578.464844 241.667969 585.335938 241.667969 593.777344 C 241.667969 602.214844 234.796875 609.085938 226.355469 609.085938 C 217.917969 609.085938 211.046875 602.214844 211.046875 593.777344 C 211.046875 585.335938 217.917969 578.464844 226.355469 578.464844 Z M 297.800781 578.464844 C 306.238281 578.464844 313.109375 585.335938 313.109375 593.777344 C 313.109375 602.214844 306.238281 609.085938 297.800781 609.085938 C 289.359375 609.085938 282.492188 602.214844 282.492188 593.777344 C 282.492188 585.335938 289.359375 578.464844 297.800781 578.464844 Z M 369.242188 578.464844 C 377.683594 578.464844 384.550781 585.335938 384.550781 593.777344 C 384.550781 602.214844 377.683594 609.085938 369.242188 609.085938 C 360.800781 609.085938 353.933594 602.214844 353.933594 593.777344 C 353.933594 585.335938 360.800781 578.464844 369.242188 578.464844 Z M 440.683594 578.464844 C 449.125 578.464844 455.992188 585.335938 455.992188 593.777344 C 455.992188 602.214844 449.125 609.085938 440.683594 609.085938 C 432.246094 609.085938 425.375 602.214844 425.375 593.777344 C 425.375 585.335938 432.246094 578.464844 440.683594 578.464844 Z M 512.128906 578.464844 C 520.566406 578.464844 527.4375 585.335938 527.4375 593.777344 C 527.4375 602.214844 520.566406 609.085938 512.128906 609.085938 C 503.6875 609.085938 496.816406 602.214844 496.816406 593.777344 C 496.816406 585.335938 503.6875 578.464844 512.128906 578.464844 Z M 583.570312 578.464844 C 592.011719 578.464844 598.878906 585.335938 598.878906 593.777344 C 598.878906 602.214844 592.011719 609.085938 583.570312 609.085938 C 575.128906 609.085938 568.261719 602.214844 568.261719 593.777344 C 568.261719 585.335938 575.128906 578.464844 583.570312 578.464844 Z M 226.355469 639.703125 C 212.28125 639.703125 200.84375 651.144531 200.84375 665.21875 C 200.84375 679.292969 212.28125 690.734375 226.355469 690.734375 C 240.429688 690.734375 251.871094 679.292969 251.871094 665.21875 C 251.871094 651.144531 240.429688 639.703125 226.355469 639.703125 Z M 297.800781 639.703125 C 283.726562 639.703125 272.285156 651.144531 272.285156 665.21875 C 272.285156 679.292969 283.726562 690.734375 297.800781 690.734375 L 512.128906 690.734375 C 526.203125 690.734375 537.640625 679.292969 537.640625 665.21875 C 537.640625 651.144531 526.203125 639.703125 512.128906 639.703125 Z M 583.570312 639.703125 C 569.496094 639.703125 558.054688 651.144531 558.054688 665.21875 C 558.054688 679.292969 569.496094 690.734375 583.570312 690.734375 C 597.644531 690.734375 609.085938 679.292969 609.085938 665.21875 C 609.085938 651.144531 597.644531 639.703125 583.570312 639.703125 Z M 226.355469 649.910156 C 234.796875 649.910156 241.667969 656.777344 241.667969 665.21875 C 241.667969 673.660156 234.796875 680.527344 226.355469 680.527344 C 217.917969 680.527344 211.046875 673.660156 211.046875 665.21875 C 211.046875 656.777344 217.917969 649.910156 226.355469 649.910156 Z M 297.800781 649.910156 L 512.128906 649.910156 C 520.566406 649.910156 527.4375 656.777344 527.4375 665.21875 C 527.4375 673.660156 520.566406 680.527344 512.128906 680.527344 L 297.800781 680.527344 C 289.359375 680.527344 282.492188 673.660156 282.492188 665.21875 C 282.492188 656.777344 289.359375 649.910156 297.800781 649.910156 Z M 583.570312 649.910156 C 592.011719 649.910156 598.878906 656.777344 598.878906 665.21875 C 598.878906 673.660156 592.011719 680.527344 583.570312 680.527344 C 575.128906 680.527344 568.261719 673.660156 568.261719 665.21875 C 568.261719 656.777344 575.128906 649.910156 583.570312 649.910156 Z M 583.570312 649.910156 "/>
</g>
</g>
</svg>
