<?xml version="1.0" encoding="UTF-8"?>
<svg xmlns="http://www.w3.org/2000/svg" xmlns:xlink="http://www.w3.org/1999/xlink" width="810pt" height="809.999993pt" viewBox="0 0 810 809.999993" version="1.2">
<defs>
<clipPath id="clip1">
  <path d="M 26.835938 26.835938 L 782.832031 26.835938 L 782.832031 782.835938 L 26.835938 782.835938 Z M 26.835938 26.835938 "/>
</clipPath>
</defs>
<g id="surface1">
<g clip-path="url(#clip1)" clip-rule="nonzero">
<path style=" stroke:none;fill-rule:nonzero;fill:rgb(45.098877%,45.098877%,45.098877%);fill-opacity:1;" d="M 404.835938 26.835938 C 196.0625 26.835938 26.835938 196.0625 26.835938 404.835938 C 26.835938 613.605469 196.0625 782.835938 404.835938 782.835938 C 613.605469 782.835938 782.835938 613.605469 782.835938 404.835938 C 782.835938 196.0625 613.605469 26.835938 404.835938 26.835938 Z M 404.835938 753.757812 C 212.433594 753.757812 55.910156 597.234375 55.910156 404.835938 C 55.910156 212.433594 212.433594 55.910156 404.835938 55.910156 C 597.234375 55.910156 753.757812 212.433594 753.757812 404.835938 C 753.757812 597.234375 597.234375 753.757812 404.835938 753.757812 Z M 404.835938 753.757812 "/>
</g>
<path style=" stroke:none;fill-rule:nonzero;fill:rgb(45.098877%,45.098877%,45.098877%);fill-opacity:1;" d="M 505.324219 205.832031 C 493.691406 195.394531 479.996094 187.046875 464.558594 181.085938 C 428.039062 167.160156 384.828125 170.359375 353.746094 184.632812 C 335.515625 192.980469 320.160156 204.726562 308.125 219.496094 C 296.40625 233.863281 287.597656 250.726562 281.867188 269.625 C 278.347656 281.257812 276.285156 295.300781 275.238281 317.601562 L 333.480469 317.601562 C 334.265625 302.773438 335.574219 292.945312 337.550781 286.433594 C 341.039062 274.859375 346.300781 264.742188 353.195312 256.28125 C 359.675781 248.34375 367.789062 242.207031 378.023438 237.46875 C 395.296875 229.585938 421.875 227.027344 443.710938 235.402344 C 452.492188 238.777344 460.167969 243.371094 466.507812 249.128906 C 472.640625 254.652344 477.4375 261.222656 481.132812 269.25 C 484.765625 277.15625 486.539062 285.734375 486.539062 295.503906 C 486.539062 308.558594 483.574219 319.988281 477.496094 330.484375 C 470.429688 342.753906 461.300781 354.125 450.6875 363.980469 C 435.25 377.96875 422.046875 390.671875 411.523438 401.695312 L 409.253906 404.019531 C 397.535156 415.855469 375.757812 437.808594 375.757812 492.066406 L 375.757812 521.140625 L 433.910156 521.140625 L 433.910156 492.066406 C 433.910156 461.738281 442.371094 453.21875 450.515625 444.988281 L 453.539062 441.878906 C 463.335938 431.644531 475.433594 419.984375 489.972656 406.8125 C 505.121094 392.738281 517.828125 376.832031 527.800781 359.589844 C 538.996094 340.285156 544.636719 318.738281 544.636719 295.503906 C 544.636719 277.417969 541.03125 260.4375 533.9375 244.941406 C 526.929688 229.734375 517.304688 216.5625 505.324219 205.832031 Z M 505.324219 205.832031 "/>
<path style=" stroke:none;fill-rule:nonzero;fill:rgb(45.098877%,45.098877%,45.098877%);fill-opacity:1;" d="M 375.757812 579.296875 L 433.910156 579.296875 L 433.910156 637.449219 L 375.757812 637.449219 Z M 375.757812 579.296875 "/>
</g>
</svg>
