<?xml version="1.0" encoding="UTF-8"?>
<svg xmlns="http://www.w3.org/2000/svg" xmlns:xlink="http://www.w3.org/1999/xlink" width="810pt" height="809.999993pt" viewBox="0 0 810 809.999993" version="1.2">
<defs>
<clipPath id="clip1">
  <path d="M 491 97.53125 L 627 97.53125 L 627 233 L 491 233 Z M 491 97.53125 "/>
</clipPath>
<clipPath id="clip2">
  <path d="M 111 97.53125 L 222 97.53125 L 222 209 L 111 209 Z M 111 97.53125 "/>
</clipPath>
<clipPath id="clip3">
  <path d="M 319 398 L 798.191406 398 L 798.191406 712.53125 L 319 712.53125 Z M 319 398 "/>
</clipPath>
</defs>
<g id="surface1">
<path style=" stroke:none;fill-rule:nonzero;fill:rgb(45.098877%,45.098877%,45.098877%);fill-opacity:1;" d="M 529.605469 252.5625 L 516.113281 331.097656 C 515.5 335.394531 516.726562 339.074219 519.792969 342.140625 C 519.792969 342.140625 550.453125 370.980469 550.453125 370.980469 C 554.746094 375.273438 562.105469 375.273438 567.011719 370.980469 L 597.671875 343.367188 C 600.738281 340.300781 601.964844 336.621094 601.351562 332.324219 L 588.472656 252.5625 C 581.113281 255.015625 572.527344 256.855469 564.558594 257.46875 L 576.207031 329.871094 L 559.039062 345.210938 L 541.253906 328.644531 L 553.519531 257.46875 C 544.933594 256.855469 536.964844 255.015625 529.605469 252.5625 Z M 529.605469 252.5625 "/>
<g clip-path="url(#clip1)" clip-rule="nonzero">
<path style=" stroke:none;fill-rule:nonzero;fill:rgb(45.098877%,45.098877%,45.098877%);fill-opacity:1;" d="M 559.039062 232.925781 C 596.445312 232.925781 626.492188 202.863281 626.492188 165.433594 C 626.492188 128.007812 596.445312 97.941406 559.039062 97.941406 C 521.632812 97.941406 491.585938 128.007812 491.585938 165.433594 C 491.585938 202.863281 521.632812 232.925781 559.039062 232.925781 Z M 559.039062 122.484375 C 582.953125 122.484375 601.964844 141.507812 601.964844 165.433594 C 601.964844 189.363281 582.953125 208.386719 559.039062 208.386719 C 535.125 208.386719 516.113281 189.363281 516.113281 165.433594 C 516.113281 141.507812 535.125 122.484375 559.039062 122.484375 Z M 559.039062 122.484375 "/>
</g>
<path style=" stroke:none;fill-rule:nonzero;fill:rgb(45.098877%,45.098877%,45.098877%);fill-opacity:1;" d="M 172.714844 527.4375 L 80.734375 527.4375 C 73.988281 527.4375 68.46875 521.917969 68.46875 515.167969 L 68.46875 309.007812 C 68.46875 291.828125 59.273438 275.878906 44.554688 266.671875 L 31.675781 259.3125 C 26.15625 255.628906 18.800781 257.46875 15.121094 263.605469 C 11.441406 269.128906 13.28125 276.492188 19.414062 280.171875 L 32.289062 288.148438 C 39.648438 292.441406 43.941406 300.417969 43.941406 309.007812 L 43.941406 515.167969 C 43.941406 535.414062 60.496094 551.980469 80.734375 551.980469 L 99.128906 551.980469 L 99.128906 686.964844 L 74.601562 686.964844 C 67.855469 686.964844 62.335938 692.488281 62.335938 699.238281 C 62.335938 705.984375 67.855469 711.507812 74.601562 711.507812 L 148.1875 711.507812 C 154.933594 711.507812 160.453125 705.984375 160.453125 699.238281 C 160.453125 692.488281 154.933594 686.964844 148.1875 686.964844 L 123.660156 686.964844 L 123.660156 551.980469 L 172.714844 551.980469 C 179.460938 551.980469 184.980469 546.457031 184.980469 539.710938 C 184.980469 532.960938 179.460938 527.4375 172.714844 527.4375 Z M 172.714844 527.4375 "/>
<path style=" stroke:none;fill-rule:nonzero;fill:rgb(45.098877%,45.098877%,45.098877%);fill-opacity:1;" d="M 270.828125 398.589844 L 234.035156 398.589844 L 234.035156 250.722656 C 234.035156 235.996094 227.90625 222.496094 217.480469 213.90625 C 210.121094 220.042969 202.148438 224.335938 193.566406 228.019531 C 202.761719 231.085938 209.507812 240.289062 209.507812 250.722656 L 209.507812 398.589844 C 209.507812 421.292969 223.613281 423.132812 227.90625 423.132812 L 269.601562 423.132812 C 270.214844 423.132812 270.214844 423.746094 270.828125 424.359375 L 270.828125 678.988281 C 270.828125 683.285156 270.214844 685.738281 270.214844 686.964844 L 235.261719 686.964844 C 234.648438 685.738281 234.035156 682.058594 234.035156 674.695312 L 234.035156 503.507812 C 234.648438 499.214844 233.421875 493.078125 229.746094 488.171875 C 224.226562 482.035156 215.640625 478.351562 203.375 478.351562 L 117.527344 478.351562 C 117.527344 477.125 117.527344 250.722656 117.527344 250.722656 C 117.527344 238.449219 126.113281 228.632812 136.535156 226.792969 C 127.339844 223.109375 119.367188 217.589844 112.007812 211.453125 C 100.96875 220.65625 93 234.769531 93 250.722656 C 93 250.722656 93 473.445312 93 474.058594 C 93 480.808594 92.386719 490.625 99.128906 497.375 C 102.195312 501.054688 107.101562 502.28125 111.394531 502.28125 L 203.375 502.28125 C 206.441406 502.28125 208.28125 502.894531 209.507812 502.894531 L 209.507812 674.082031 C 209.507812 698.007812 217.480469 710.28125 234.035156 710.894531 L 270.828125 710.894531 C 281.867188 710.894531 295.359375 705.371094 295.359375 678.375 L 295.359375 423.132812 C 295.359375 410.859375 283.09375 398.589844 270.828125 398.589844 Z M 270.828125 398.589844 "/>
<g clip-path="url(#clip2)" clip-rule="nonzero">
<path style=" stroke:none;fill-rule:nonzero;fill:rgb(45.098877%,45.098877%,45.098877%);fill-opacity:1;" d="M 166.582031 208.386719 C 197.242188 208.386719 221.773438 183.84375 221.773438 153.164062 C 221.773438 122.484375 197.242188 97.941406 166.582031 97.941406 C 135.921875 97.941406 111.394531 122.484375 111.394531 153.164062 C 111.394531 183.84375 135.921875 208.386719 166.582031 208.386719 Z M 166.582031 122.484375 C 183.753906 122.484375 197.242188 135.984375 197.242188 153.164062 C 197.242188 170.34375 183.753906 183.84375 166.582031 183.84375 C 149.414062 183.84375 135.921875 170.34375 135.921875 153.164062 C 135.921875 135.984375 149.414062 122.484375 166.582031 122.484375 Z M 166.582031 122.484375 "/>
</g>
<path style=" stroke:none;fill-rule:nonzero;fill:rgb(45.098877%,45.098877%,45.098877%);fill-opacity:1;" d="M 448.660156 316.984375 C 448.660156 280.785156 475.027344 251.335938 507.527344 251.335938 L 526.539062 251.335938 C 513.660156 246.425781 502.011719 238.449219 492.199219 228.632812 C 453.566406 235.996094 424.132812 272.808594 424.132812 316.984375 L 424.132812 374.046875 L 448.660156 374.046875 Z M 448.660156 316.984375 "/>
<path style=" stroke:none;fill-rule:nonzero;fill:rgb(45.098877%,45.098877%,45.098877%);fill-opacity:1;" d="M 591.539062 251.335938 L 610.546875 251.335938 C 643.046875 251.335938 669.417969 280.785156 669.417969 316.984375 L 669.417969 374.046875 L 693.945312 374.046875 L 693.945312 316.984375 C 693.945312 272.808594 664.511719 236.609375 625.878906 228.632812 C 616.679688 238.449219 605.03125 246.425781 591.539062 251.335938 Z M 591.539062 251.335938 "/>
<g clip-path="url(#clip3)" clip-rule="nonzero">
<path style=" stroke:none;fill-rule:nonzero;fill:rgb(45.098877%,45.098877%,45.098877%);fill-opacity:1;" d="M 773.664062 398.589844 L 344.414062 398.589844 C 330.925781 398.589844 319.886719 409.632812 319.886719 423.746094 L 319.886719 447.675781 C 319.886719 461.171875 330.925781 472.832031 344.414062 472.832031 L 368.941406 472.832031 L 368.941406 699.851562 C 368.941406 706.597656 374.460938 712.121094 381.207031 712.121094 L 418 712.121094 C 424.746094 712.121094 430.265625 706.597656 430.265625 699.851562 C 430.265625 693.101562 424.746094 687.578125 418 687.578125 L 393.472656 687.578125 L 393.472656 533.574219 L 724.605469 533.574219 L 724.605469 686.964844 L 700.078125 686.964844 C 693.332031 686.964844 687.8125 692.488281 687.8125 699.238281 C 687.8125 705.984375 693.332031 711.507812 700.078125 711.507812 L 736.871094 711.507812 C 743.613281 711.507812 749.132812 705.984375 749.132812 699.238281 L 749.132812 472.21875 L 773.664062 472.21875 C 787.152344 472.21875 798.191406 461.171875 798.191406 447.0625 L 798.191406 423.132812 C 798.191406 409.632812 787.152344 398.589844 773.664062 398.589844 Z M 724.605469 509.03125 L 393.472656 509.03125 L 393.472656 472.21875 L 724.605469 472.21875 Z M 773.664062 447.675781 L 344.414062 447.675781 L 344.414062 423.132812 L 773.664062 423.746094 Z M 773.664062 447.675781 "/>
</g>
</g>
</svg>
