<?xml version="1.0" encoding="UTF-8"?>
<svg xmlns="http://www.w3.org/2000/svg" xmlns:xlink="http://www.w3.org/1999/xlink" width="810pt" height="809.999993pt" viewBox="0 0 810 809.999993" version="1.2">
<defs>
<clipPath id="clip1">
  <path d="M 53.726562 53.726562 L 756.476562 53.726562 L 756.476562 756.476562 L 53.726562 756.476562 Z M 53.726562 53.726562 "/>
</clipPath>
</defs>
<g id="surface1">
<g clip-path="url(#clip1)" clip-rule="nonzero">
<path style=" stroke:none;fill-rule:nonzero;fill:rgb(45.098877%,45.098877%,45.098877%);fill-opacity:1;" d="M 733.808594 733.808594 L 675.097656 733.808594 L 665.578125 686.253906 L 643.351562 690.683594 L 651.984375 733.808594 L 475.589844 733.808594 L 484.222656 690.683594 L 461.996094 686.253906 L 452.476562 733.808594 L 393.765625 733.808594 L 393.765625 685.722656 C 393.765625 670.671875 403.863281 657.253906 418.339844 653.046875 L 524.558594 622.410156 L 563.789062 687.847656 L 603.015625 622.410156 L 709.234375 653.046875 C 723.710938 657.253906 733.808594 670.671875 733.808594 685.722656 Z M 390.710938 643.128906 L 121.734375 643.128906 L 121.734375 575.121094 L 439.105469 575.121094 L 439.105469 623.472656 L 412.054688 631.308594 C 403.996094 633.609375 396.820312 637.816406 390.710938 643.128906 Z M 76.394531 688.46875 L 76.394531 167.074219 L 167.074219 167.074219 L 167.074219 76.398438 L 552.453125 76.398438 L 552.453125 99.066406 L 402.445312 99.066406 L 311.769531 144.40625 L 402.445312 189.742188 L 552.453125 189.742188 L 552.453125 310.441406 C 534.253906 306.101562 511.761719 303.089844 484.445312 303.089844 L 468.726562 303.089844 L 478.511719 332.445312 L 439.105469 322.570312 L 439.105469 337.09375 C 439.105469 354.140625 441.054688 371.007812 444.949219 387.523438 L 416.4375 378.050781 L 416.4375 393.765625 C 416.4375 445.261719 434.101562 479.132812 439.503906 488.253906 C 441.273438 508.972656 456.859375 525.710938 477.050781 529.03125 C 482.496094 545.855469 493.300781 560.644531 508.441406 570.738281 L 518.449219 577.425781 L 518.449219 600.582031 L 461.773438 616.964844 L 461.773438 552.453125 L 99.066406 552.453125 L 99.066406 665.800781 L 374.90625 665.800781 C 372.515625 672.085938 371.097656 678.773438 371.097656 685.722656 L 371.097656 688.46875 Z M 144.402344 92.425781 L 144.402344 144.40625 L 92.425781 144.40625 Z M 733.808594 144.40625 C 733.808594 156.890625 723.625 167.074219 711.136719 167.074219 L 665.800781 167.074219 L 665.800781 121.734375 L 711.136719 121.734375 C 723.625 121.734375 733.808594 131.917969 733.808594 144.40625 Z M 620.460938 121.734375 L 643.128906 121.734375 L 643.128906 167.074219 L 620.460938 167.074219 Z M 416.4375 121.734375 L 597.792969 121.734375 L 597.792969 167.074219 L 416.4375 167.074219 Z M 393.765625 160.078125 L 362.417969 144.40625 L 393.765625 128.730469 Z M 461.773438 484.445312 C 461.773438 476.121094 466.378906 468.859375 473.109375 464.917969 L 473.109375 503.96875 C 466.378906 500.03125 461.773438 492.769531 461.773438 484.445312 Z M 612.226562 367.554688 L 621.964844 348.074219 C 642.511719 381.371094 643.128906 404.878906 643.128906 405.101562 L 643.128906 420.820312 L 676.824219 409.617188 C 676.160156 425.777344 674.65625 439.503906 672.929688 450.53125 C 666.863281 445.214844 659.511719 441.453125 651.277344 439.949219 C 645.300781 426.132812 631.574219 416.4375 615.632812 416.4375 C 609.613281 416.4375 603.636719 417.855469 598.234375 420.511719 L 563.789062 437.777344 L 529.296875 420.511719 C 523.9375 417.855469 517.960938 416.4375 511.941406 416.4375 C 496 416.4375 482.273438 426.132812 476.296875 439.949219 C 465.539062 441.894531 456.242188 447.695312 449.554688 455.796875 C 445.4375 444.375 441.320312 428.921875 439.726562 409.707031 L 479.707031 423.035156 L 471.957031 399.789062 C 466.734375 384.160156 463.546875 368.085938 462.304688 351.75 L 513.046875 364.414062 L 500.296875 326.113281 C 572.464844 329.613281 600.890625 356.222656 601.113281 356.441406 Z M 654.464844 503.96875 L 654.464844 464.917969 C 661.195312 468.859375 665.800781 476.121094 665.800781 484.445312 C 665.800781 492.769531 661.195312 500.03125 654.464844 503.96875 Z M 631.796875 504.722656 C 631.796875 523.71875 622.363281 541.339844 606.558594 551.878906 L 578.265625 570.738281 C 569.632812 576.449219 557.898438 576.449219 549.308594 570.738281 L 521.015625 551.878906 C 505.210938 541.339844 495.777344 523.71875 495.777344 504.722656 L 495.777344 455.265625 C 495.777344 446.367188 503.039062 439.105469 511.941406 439.105469 C 514.464844 439.105469 516.941406 439.683594 519.203125 440.832031 L 563.789062 463.105469 L 608.375 440.832031 C 610.632812 439.683594 613.109375 439.105469 615.632812 439.105469 C 624.535156 439.105469 631.796875 446.367188 631.796875 455.265625 Z M 541.117188 592.082031 C 548.113281 595.753906 555.816406 597.792969 563.789062 597.792969 C 571.757812 597.792969 579.460938 595.753906 586.457031 592.082031 L 586.457031 605.984375 L 563.789062 643.75 L 541.117188 605.984375 Z M 715.519531 631.308594 L 609.125 600.582031 L 609.125 577.425781 L 619.132812 570.738281 C 634.273438 560.644531 645.078125 545.855469 650.523438 529.03125 C 671.15625 525.621094 686.964844 508.308594 688.203125 487.011719 C 690.105469 480.945312 699.804688 447.121094 699.804688 393.765625 L 699.804688 378.050781 L 663.851562 390.046875 C 660.617188 374.730469 652.074219 349.003906 629.539062 318.941406 L 618.511719 304.285156 L 605.007812 331.292969 C 598.234375 327 588.359375 321.820312 575.121094 317.082031 L 575.121094 189.742188 L 711.136719 189.742188 C 736.152344 189.742188 756.476562 169.421875 756.476562 144.40625 C 756.476562 119.386719 736.152344 99.066406 711.136719 99.066406 L 575.121094 99.066406 L 575.121094 53.726562 L 151.046875 53.726562 L 53.726562 151.046875 L 53.726562 711.136719 L 371.097656 711.136719 L 371.097656 756.476562 L 756.476562 756.476562 L 756.476562 685.722656 C 756.476562 660.621094 739.652344 638.261719 715.519531 631.308594 "/>
</g>
<path style=" stroke:none;fill-rule:nonzero;fill:rgb(45.098877%,45.098877%,45.098877%);fill-opacity:1;" d="M 133.070312 212.414062 C 139.3125 212.414062 144.402344 217.503906 144.402344 223.746094 C 144.402344 229.992188 139.3125 235.082031 133.070312 235.082031 C 126.828125 235.082031 121.734375 229.992188 121.734375 223.746094 C 121.734375 217.503906 126.828125 212.414062 133.070312 212.414062 Z M 133.070312 257.75 C 151.84375 257.75 167.074219 242.519531 167.074219 223.746094 C 167.074219 204.972656 151.84375 189.742188 133.070312 189.742188 C 114.296875 189.742188 99.066406 204.972656 99.066406 223.746094 C 99.066406 242.519531 114.296875 257.75 133.070312 257.75 "/>
<path style=" stroke:none;fill-rule:nonzero;fill:rgb(45.098877%,45.098877%,45.098877%);fill-opacity:1;" d="M 133.070312 303.089844 C 139.3125 303.089844 144.402344 308.183594 144.402344 314.425781 C 144.402344 320.667969 139.3125 325.757812 133.070312 325.757812 C 126.828125 325.757812 121.734375 320.667969 121.734375 314.425781 C 121.734375 308.183594 126.828125 303.089844 133.070312 303.089844 Z M 133.070312 348.429688 C 151.84375 348.429688 167.074219 333.199219 167.074219 314.425781 C 167.074219 295.652344 151.84375 280.421875 133.070312 280.421875 C 114.296875 280.421875 99.066406 295.652344 99.066406 314.425781 C 99.066406 333.199219 114.296875 348.429688 133.070312 348.429688 "/>
<path style=" stroke:none;fill-rule:nonzero;fill:rgb(45.098877%,45.098877%,45.098877%);fill-opacity:1;" d="M 133.070312 393.765625 C 139.3125 393.765625 144.402344 398.859375 144.402344 405.101562 C 144.402344 411.34375 139.3125 416.4375 133.070312 416.4375 C 126.828125 416.4375 121.734375 411.34375 121.734375 405.101562 C 121.734375 398.859375 126.828125 393.765625 133.070312 393.765625 Z M 133.070312 439.105469 C 151.84375 439.105469 167.074219 423.875 167.074219 405.101562 C 167.074219 386.328125 151.84375 371.097656 133.070312 371.097656 C 114.296875 371.097656 99.066406 386.328125 99.066406 405.101562 C 99.066406 423.875 114.296875 439.105469 133.070312 439.105469 "/>
<path style=" stroke:none;fill-rule:nonzero;fill:rgb(45.098877%,45.098877%,45.098877%);fill-opacity:1;" d="M 133.070312 484.445312 C 139.3125 484.445312 144.402344 489.535156 144.402344 495.78125 C 144.402344 502.023438 139.3125 507.113281 133.070312 507.113281 C 126.828125 507.113281 121.734375 502.023438 121.734375 495.78125 C 121.734375 489.535156 126.828125 484.445312 133.070312 484.445312 Z M 133.070312 529.785156 C 151.84375 529.785156 167.074219 514.550781 167.074219 495.78125 C 167.074219 477.007812 151.84375 461.777344 133.070312 461.777344 C 114.296875 461.777344 99.066406 477.007812 99.066406 495.78125 C 99.066406 514.550781 114.296875 529.785156 133.070312 529.785156 "/>
<path style=" stroke:none;fill-rule:nonzero;fill:rgb(45.098877%,45.098877%,45.098877%);fill-opacity:1;" d="M 223.746094 212.414062 C 229.988281 212.414062 235.082031 217.503906 235.082031 223.746094 C 235.082031 229.992188 229.988281 235.082031 223.746094 235.082031 C 217.503906 235.082031 212.414062 229.992188 212.414062 223.746094 C 212.414062 217.503906 217.503906 212.414062 223.746094 212.414062 Z M 223.746094 257.75 C 242.519531 257.75 257.75 242.519531 257.75 223.746094 C 257.75 204.972656 242.519531 189.742188 223.746094 189.742188 C 204.972656 189.742188 189.742188 204.972656 189.742188 223.746094 C 189.742188 242.519531 204.972656 257.75 223.746094 257.75 "/>
<path style=" stroke:none;fill-rule:nonzero;fill:rgb(45.098877%,45.098877%,45.098877%);fill-opacity:1;" d="M 223.746094 303.089844 C 229.988281 303.089844 235.082031 308.183594 235.082031 314.425781 C 235.082031 320.667969 229.988281 325.757812 223.746094 325.757812 C 217.503906 325.757812 212.414062 320.667969 212.414062 314.425781 C 212.414062 308.183594 217.503906 303.089844 223.746094 303.089844 Z M 223.746094 348.429688 C 242.519531 348.429688 257.75 333.199219 257.75 314.425781 C 257.75 295.652344 242.519531 280.421875 223.746094 280.421875 C 204.972656 280.421875 189.742188 295.652344 189.742188 314.425781 C 189.742188 333.199219 204.972656 348.429688 223.746094 348.429688 "/>
<path style=" stroke:none;fill-rule:nonzero;fill:rgb(45.098877%,45.098877%,45.098877%);fill-opacity:1;" d="M 223.746094 393.765625 C 229.988281 393.765625 235.082031 398.859375 235.082031 405.101562 C 235.082031 411.34375 229.988281 416.4375 223.746094 416.4375 C 217.503906 416.4375 212.414062 411.34375 212.414062 405.101562 C 212.414062 398.859375 217.503906 393.765625 223.746094 393.765625 Z M 223.746094 439.105469 C 242.519531 439.105469 257.75 423.875 257.75 405.101562 C 257.75 386.328125 242.519531 371.097656 223.746094 371.097656 C 204.972656 371.097656 189.742188 386.328125 189.742188 405.101562 C 189.742188 423.875 204.972656 439.105469 223.746094 439.105469 "/>
<path style=" stroke:none;fill-rule:nonzero;fill:rgb(45.098877%,45.098877%,45.098877%);fill-opacity:1;" d="M 223.746094 484.445312 C 229.988281 484.445312 235.082031 489.535156 235.082031 495.78125 C 235.082031 502.023438 229.988281 507.113281 223.746094 507.113281 C 217.503906 507.113281 212.414062 502.023438 212.414062 495.78125 C 212.414062 489.535156 217.503906 484.445312 223.746094 484.445312 Z M 223.746094 529.785156 C 242.519531 529.785156 257.75 514.550781 257.75 495.78125 C 257.75 477.007812 242.519531 461.777344 223.746094 461.777344 C 204.972656 461.777344 189.742188 477.007812 189.742188 495.78125 C 189.742188 514.550781 204.972656 529.785156 223.746094 529.785156 "/>
<path style=" stroke:none;fill-rule:nonzero;fill:rgb(45.098877%,45.098877%,45.098877%);fill-opacity:1;" d="M 314.425781 212.414062 C 320.667969 212.414062 325.757812 217.503906 325.757812 223.746094 C 325.757812 229.992188 320.667969 235.082031 314.425781 235.082031 C 308.179688 235.082031 303.089844 229.992188 303.089844 223.746094 C 303.089844 217.503906 308.179688 212.414062 314.425781 212.414062 Z M 314.425781 257.75 C 333.199219 257.75 348.429688 242.519531 348.429688 223.746094 C 348.429688 204.972656 333.199219 189.742188 314.425781 189.742188 C 295.652344 189.742188 280.421875 204.972656 280.421875 223.746094 C 280.421875 242.519531 295.652344 257.75 314.425781 257.75 "/>
<path style=" stroke:none;fill-rule:nonzero;fill:rgb(45.098877%,45.098877%,45.098877%);fill-opacity:1;" d="M 314.425781 325.757812 C 308.179688 325.757812 303.089844 320.667969 303.089844 314.425781 C 303.089844 308.183594 308.179688 303.089844 314.425781 303.089844 C 320.667969 303.089844 325.757812 308.183594 325.757812 314.425781 C 325.757812 320.667969 320.667969 325.757812 314.425781 325.757812 Z M 314.425781 280.421875 C 295.652344 280.421875 280.421875 295.652344 280.421875 314.425781 C 280.421875 333.199219 295.652344 348.429688 314.425781 348.429688 C 333.199219 348.429688 348.429688 333.199219 348.429688 314.425781 C 348.429688 295.652344 333.199219 280.421875 314.425781 280.421875 "/>
<path style=" stroke:none;fill-rule:nonzero;fill:rgb(45.098877%,45.098877%,45.098877%);fill-opacity:1;" d="M 314.425781 416.4375 C 308.179688 416.4375 303.089844 411.34375 303.089844 405.101562 C 303.089844 398.859375 308.179688 393.765625 314.425781 393.765625 C 320.667969 393.765625 325.757812 398.859375 325.757812 405.101562 C 325.757812 411.34375 320.667969 416.4375 314.425781 416.4375 Z M 314.425781 371.097656 C 295.652344 371.097656 280.421875 386.328125 280.421875 405.101562 C 280.421875 423.875 295.652344 439.105469 314.425781 439.105469 C 333.199219 439.105469 348.429688 423.875 348.429688 405.101562 C 348.429688 386.328125 333.199219 371.097656 314.425781 371.097656 "/>
<path style=" stroke:none;fill-rule:nonzero;fill:rgb(45.098877%,45.098877%,45.098877%);fill-opacity:1;" d="M 314.425781 507.113281 C 308.179688 507.113281 303.089844 502.023438 303.089844 495.78125 C 303.089844 489.535156 308.179688 484.445312 314.425781 484.445312 C 320.667969 484.445312 325.757812 489.535156 325.757812 495.78125 C 325.757812 502.023438 320.667969 507.113281 314.425781 507.113281 Z M 314.425781 461.777344 C 295.652344 461.777344 280.421875 477.007812 280.421875 495.78125 C 280.421875 514.550781 295.652344 529.785156 314.425781 529.785156 C 333.199219 529.785156 348.429688 514.550781 348.429688 495.78125 C 348.429688 477.007812 333.199219 461.777344 314.425781 461.777344 "/>
<path style=" stroke:none;fill-rule:nonzero;fill:rgb(45.098877%,45.098877%,45.098877%);fill-opacity:1;" d="M 144.402344 620.460938 L 167.074219 620.460938 L 167.074219 597.792969 L 144.402344 597.792969 L 144.402344 620.460938 "/>
<path style=" stroke:none;fill-rule:nonzero;fill:rgb(45.098877%,45.098877%,45.098877%);fill-opacity:1;" d="M 416.4375 597.792969 L 189.742188 597.792969 L 189.742188 620.460938 L 416.4375 620.460938 L 416.4375 597.792969 "/>
<path style=" stroke:none;fill-rule:nonzero;fill:rgb(45.098877%,45.098877%,45.098877%);fill-opacity:1;" d="M 280.421875 99.066406 L 189.742188 99.066406 L 189.742188 121.734375 L 280.421875 121.734375 L 280.421875 99.066406 "/>
<path style=" stroke:none;fill-rule:nonzero;fill:rgb(45.098877%,45.098877%,45.098877%);fill-opacity:1;" d="M 280.421875 144.40625 L 189.742188 144.40625 L 189.742188 167.074219 L 280.421875 167.074219 L 280.421875 144.40625 "/>
</g>
</svg>
