<?xml version="1.0" encoding="UTF-8"?>
<svg xmlns="http://www.w3.org/2000/svg" xmlns:xlink="http://www.w3.org/1999/xlink" width="810pt" height="809.999993pt" viewBox="0 0 810 809.999993" version="1.2">
<defs>
<clipPath id="clip1">
  <path d="M 29 87.28125 L 781 87.28125 L 781 729 L 29 729 Z M 29 87.28125 "/>
</clipPath>
</defs>
<g id="surface1">
<g clip-path="url(#clip1)" clip-rule="nonzero">
<path style=" stroke:none;fill-rule:nonzero;fill:rgb(45.098877%,45.098877%,45.098877%);fill-opacity:1;" d="M 66.269531 198.53125 L 66.269531 170.410156 C 66.269531 138.277344 80.515625 123.878906 112.292969 123.78125 C 153.96875 123.636719 195.644531 123.636719 237.226562 123.636719 L 572.667969 123.636719 C 614.25 123.636719 655.925781 123.636719 697.601562 123.78125 C 729.378906 123.878906 743.625 138.277344 743.625 170.410156 L 743.625 198.53125 C 743.769531 280.820312 743.769531 447.285156 743.527344 531.652344 C 743.527344 534.839844 743.289062 537.835938 742.851562 540.6875 C 742.5625 542.523438 742.082031 544.167969 741.644531 545.859375 C 741.402344 546.824219 741.257812 547.886719 740.921875 548.804688 C 735.464844 564.847656 722.085938 573.109375 700.789062 573.496094 C 694.320312 573.59375 687.703125 573.691406 681.132812 573.691406 C 680.3125 573.691406 679.589844 573.691406 678.769531 573.691406 L 648.246094 573.59375 C 647.234375 573.59375 646.316406 573.59375 645.300781 573.59375 L 635.160156 573.59375 C 630.332031 573.59375 625.597656 573.835938 620.914062 574.222656 C 617.53125 574.464844 614.199219 574.851562 610.867188 575.285156 C 610.335938 575.382812 609.804688 575.382812 609.273438 575.476562 C 592.660156 577.84375 577.0625 582.675781 562.140625 589.972656 C 554.460938 593.742188 546.976562 598.089844 539.636719 603.164062 C 530.21875 609.640625 520.609375 616.113281 510.949219 622.6875 C 508.101562 624.570312 505.25 626.503906 502.449219 628.386719 C 493.371094 634.523438 484.246094 640.613281 474.921875 646.847656 L 474.246094 647.183594 C 454.496094 660.375 434.210938 674.050781 414.363281 687.628906 C 410.644531 690.191406 407.941406 691.785156 404.949219 691.785156 C 401.953125 691.785156 399.25 690.191406 395.53125 687.628906 C 375.683594 674.050781 355.398438 660.375 335.648438 647.183594 L 334.972656 646.847656 C 325.648438 640.613281 316.523438 634.523438 307.445312 628.386719 C 304.644531 626.503906 301.792969 624.570312 298.992188 622.6875 C 289.285156 616.164062 279.675781 609.640625 270.257812 603.164062 C 262.917969 598.089844 255.433594 593.742188 247.753906 589.972656 C 232.832031 582.675781 217.234375 577.84375 200.621094 575.476562 C 200.089844 575.382812 199.558594 575.382812 199.027344 575.285156 C 195.695312 574.851562 192.363281 574.464844 188.980469 574.222656 C 184.296875 573.835938 179.5625 573.59375 174.734375 573.59375 L 164.59375 573.59375 C 163.578125 573.59375 162.660156 573.59375 161.648438 573.59375 L 131.125 573.691406 C 130.304688 573.691406 129.582031 573.691406 128.761719 573.691406 C 122.191406 573.691406 115.578125 573.59375 109.105469 573.496094 C 87.808594 573.109375 74.429688 564.847656 68.972656 548.804688 C 68.636719 547.886719 68.492188 546.824219 68.25 545.859375 C 67.816406 544.167969 67.332031 542.523438 67.042969 540.6875 C 66.605469 537.835938 66.367188 534.839844 66.367188 531.652344 C 66.125 447.285156 66.125 280.820312 66.269531 198.53125 Z M 780.425781 170.410156 C 780.425781 118.175781 749.46875 86.960938 697.601562 86.960938 C 657.472656 86.867188 617.292969 86.867188 577.257812 86.867188 C 576.386719 86.867188 575.519531 86.867188 574.648438 86.867188 L 235.246094 86.867188 C 234.375 86.867188 233.507812 86.867188 232.636719 86.867188 C 192.601562 86.867188 152.421875 86.867188 112.292969 86.960938 C 60.425781 86.960938 29.46875 118.175781 29.46875 170.410156 L 29.375 185.339844 C 29.375 189.160156 29.375 193.363281 29.375 197.519531 C 29.375 205.054688 29.375 212.933594 29.375 221.4375 L 29.375 538.078125 C 29.375 540.15625 29.710938 542.039062 30.4375 543.925781 C 30.4375 544.117188 30.53125 544.3125 30.53125 544.554688 C 31.160156 549.046875 32.078125 553.25 33.285156 557.359375 C 33.429688 557.839844 33.527344 558.371094 33.671875 558.855469 C 34.878906 562.769531 36.425781 566.441406 38.113281 569.921875 C 38.5 570.742188 38.886719 571.515625 39.273438 572.289062 C 40.914062 575.332031 42.796875 578.230469 44.828125 580.988281 C 45.601562 582.050781 46.46875 583.113281 47.339844 584.128906 C 49.269531 586.445312 51.296875 588.621094 53.519531 590.601562 C 54.777344 591.761719 56.128906 592.824219 57.480469 593.886719 C 59.703125 595.628906 61.921875 597.269531 64.386719 598.71875 C 65.980469 599.6875 67.71875 600.507812 69.40625 601.328125 C 71.917969 602.585938 74.429688 603.84375 77.183594 604.808594 C 79.113281 605.53125 81.191406 606.015625 83.21875 606.597656 C 85.925781 607.371094 88.628906 608.191406 91.527344 608.675781 C 94.761719 609.253906 98.238281 609.542969 101.714844 609.785156 C 103.261719 609.882812 104.660156 610.21875 106.207031 610.269531 C 106.59375 610.269531 107.078125 610.316406 107.511719 610.316406 C 107.847656 610.316406 108.1875 610.363281 108.527344 610.414062 C 110.023438 610.414062 111.617188 610.414062 113.113281 610.414062 C 119.34375 610.558594 125.863281 610.605469 133.636719 610.605469 L 166.042969 610.414062 C 168.746094 610.414062 171.449219 610.460938 174.203125 610.511719 L 174.636719 610.511719 C 181.15625 610.511719 187.484375 610.992188 193.664062 611.816406 C 194.050781 611.910156 194.535156 611.863281 194.921875 611.960938 C 207.863281 613.796875 220.082031 617.566406 231.671875 623.21875 C 235.390625 625.007812 238.964844 627.324219 242.585938 629.546875 C 244.46875 630.707031 246.449219 631.625 248.332031 632.929688 C 253.453125 636.410156 258.570312 639.792969 263.738281 643.320312 C 278.855469 653.5625 294.113281 663.855469 309.230469 673.953125 L 311.113281 675.355469 C 332.847656 689.707031 354 703.960938 374.765625 718.214844 C 384.519531 724.882812 394.324219 728.21875 404.078125 728.410156 C 404.367188 728.410156 404.65625 728.460938 404.949219 728.460938 C 405.238281 728.460938 405.527344 728.410156 405.816406 728.410156 C 415.570312 728.21875 425.375 724.882812 435.128906 718.214844 C 455.894531 703.960938 477.046875 689.707031 498.78125 675.355469 L 500.617188 673.953125 C 515.78125 663.855469 531.039062 653.5625 546.15625 643.269531 C 551.324219 639.792969 556.441406 636.410156 561.5625 632.929688 C 563.445312 631.625 565.375 630.707031 567.308594 629.546875 C 570.882812 627.324219 574.503906 625.007812 578.222656 623.21875 C 589.8125 617.566406 602.03125 613.796875 614.972656 611.960938 C 615.359375 611.863281 615.84375 611.910156 616.230469 611.816406 C 622.410156 610.992188 628.738281 610.511719 635.257812 610.511719 L 635.691406 610.511719 C 638.445312 610.460938 641.148438 610.414062 643.851562 610.414062 L 676.257812 610.605469 C 684.03125 610.605469 690.550781 610.558594 696.78125 610.414062 C 698.277344 610.414062 699.871094 610.414062 701.371094 610.414062 C 701.707031 610.363281 702.046875 610.316406 702.382812 610.316406 C 702.816406 610.316406 703.300781 610.269531 703.6875 610.269531 C 705.28125 610.21875 706.632812 609.882812 708.179688 609.785156 C 711.65625 609.542969 715.132812 609.253906 718.367188 608.675781 C 721.265625 608.191406 723.96875 607.371094 726.675781 606.597656 C 728.703125 606.015625 730.78125 605.53125 732.710938 604.808594 C 735.464844 603.84375 737.976562 602.585938 740.488281 601.328125 C 742.175781 600.507812 743.914062 599.6875 745.507812 598.71875 C 747.972656 597.269531 750.191406 595.628906 752.414062 593.886719 C 753.765625 592.824219 755.121094 591.761719 756.375 590.601562 C 758.597656 588.621094 760.625 586.445312 762.554688 584.128906 C 763.425781 583.113281 764.292969 582.050781 765.066406 580.988281 C 767.097656 578.230469 768.980469 575.332031 770.621094 572.289062 C 771.007812 571.515625 771.394531 570.742188 771.78125 569.921875 C 773.46875 566.441406 775.015625 562.769531 776.222656 558.855469 C 776.367188 558.371094 776.464844 557.839844 776.609375 557.308594 C 777.816406 553.25 778.734375 549.046875 779.363281 544.554688 C 779.363281 544.359375 779.457031 544.117188 779.457031 543.925781 C 780.183594 542.039062 780.519531 540.15625 780.519531 538.078125 L 780.519531 197.519531 C 780.519531 193.363281 780.519531 189.160156 780.519531 185.339844 L 780.425781 170.410156 "/>
</g>
<path style=" stroke:none;fill-rule:nonzero;fill:rgb(45.098877%,45.098877%,45.098877%);fill-opacity:1;" d="M 404.609375 623.605469 C 394.082031 623.605469 384.132812 619.257812 376.597656 611.71875 C 368.921875 604.035156 364.863281 593.9375 365.007812 583.402344 C 365.152344 560.789062 382.78125 543.105469 405.671875 543.105469 C 427.644531 543.539062 445.175781 561.851562 444.886719 583.835938 C 444.597656 605.773438 426.582031 623.605469 404.753906 623.605469 "/>
<path style=" stroke:none;fill-rule:nonzero;fill:rgb(45.098877%,45.098877%,45.098877%);fill-opacity:1;" d="M 527.175781 359.4375 C 512.496094 378.429688 493.757812 394.179688 475.550781 409.546875 L 471.109375 413.316406 C 445.511719 434.914062 442.566406 441.246094 441.890625 474.632812 C 441.746094 483.429688 441.503906 492.027344 441.503906 500.679688 C 441.503906 506.71875 439.332031 508.746094 433.535156 508.746094 C 429.480469 508.894531 425.472656 508.894531 421.414062 508.894531 L 407.023438 508.894531 L 407.023438 508.746094 L 371.722656 508.746094 C 365.105469 508.746094 364.1875 507.007812 363.898438 501.597656 C 362.546875 474.390625 364.71875 447.1875 370.078125 421 C 373.074219 406.746094 380.753906 394.085938 394.324219 381.132812 C 405.140625 370.746094 416.828125 360.792969 428.03125 351.078125 C 433.390625 346.34375 438.945312 341.65625 444.160156 336.921875 L 445.128906 336.101562 C 448.363281 333.296875 451.839844 330.300781 454.832031 326.824219 C 469.757812 309.8125 467.871094 285.027344 450.488281 269.273438 C 436.917969 256.855469 420.207031 252.265625 396.882812 255.261719 C 368.777344 258.738281 350.714844 275.988281 341.828125 308.074219 C 341.539062 309.042969 341.394531 309.960938 341.25 310.925781 C 341.152344 311.84375 340.863281 312.664062 340.574219 313.632812 C 338.980469 318.996094 336.035156 318.851562 333.570312 318.464844 C 311.886719 315.902344 290.105469 313.339844 268.519531 310.492188 C 264.222656 309.960938 261.953125 308.21875 262.339844 301.601562 C 266.492188 246.078125 310.824219 200.417969 370.078125 190.414062 C 404.5625 184.617188 436.242188 186.9375 465.070312 197.035156 C 503.320312 210.515625 529.011719 235.160156 541.566406 270.191406 C 553.011719 302.132812 548.183594 332.1875 527.175781 359.4375 "/>
</g>
</svg>
