<?xml version="1.0" encoding="UTF-8"?>
<svg xmlns="http://www.w3.org/2000/svg" xmlns:xlink="http://www.w3.org/1999/xlink" width="810pt" height="809.999993pt" viewBox="0 0 810 809.999993" version="1.2">
<defs>
<clipPath id="clip1">
  <path d="M 29.289062 48.542969 L 504 48.542969 L 504 440 L 29.289062 440 Z M 29.289062 48.542969 "/>
</clipPath>
<clipPath id="clip2">
  <path d="M 29.289062 481 L 129 481 L 129 498 L 29.289062 498 Z M 29.289062 481 "/>
</clipPath>
<clipPath id="clip3">
  <path d="M 525 48.542969 L 686 48.542969 L 686 65 L 525 65 Z M 525 48.542969 "/>
</clipPath>
<clipPath id="clip4">
  <path d="M 615 102 L 780.789062 102 L 780.789062 119 L 615 119 Z M 615 102 "/>
</clipPath>
<clipPath id="clip5">
  <path d="M 615 155 L 780.789062 155 L 780.789062 172 L 615 172 Z M 615 155 "/>
</clipPath>
<clipPath id="clip6">
  <path d="M 615 209 L 780.789062 209 L 780.789062 226 L 615 226 Z M 615 209 "/>
</clipPath>
<clipPath id="clip7">
  <path d="M 615 262 L 780.789062 262 L 780.789062 279 L 615 279 Z M 615 262 "/>
</clipPath>
<clipPath id="clip8">
  <path d="M 615 316 L 780.789062 316 L 780.789062 333 L 615 333 Z M 615 316 "/>
</clipPath>
<clipPath id="clip9">
  <path d="M 615 369 L 780.789062 369 L 780.789062 386 L 615 386 Z M 615 369 "/>
</clipPath>
<clipPath id="clip10">
  <path d="M 29.289062 553 L 238 553 L 238 761.792969 L 29.289062 761.792969 Z M 29.289062 553 "/>
</clipPath>
<clipPath id="clip11">
  <path d="M 300 553 L 510 553 L 510 761.792969 L 300 761.792969 Z M 300 553 "/>
</clipPath>
<clipPath id="clip12">
  <path d="M 572 553 L 780.789062 553 L 780.789062 761.792969 L 572 761.792969 Z M 572 553 "/>
</clipPath>
</defs>
<g id="surface1">
<g clip-path="url(#clip1)" clip-rule="nonzero">
<path style=" stroke:none;fill-rule:nonzero;fill:rgb(45.098877%,45.098877%,45.098877%);fill-opacity:1;" d="M 37.683594 439.382812 L 495.402344 439.382812 C 499.917969 439.382812 503.578125 435.722656 503.578125 431.207031 L 503.578125 56.78125 C 503.578125 52.265625 499.917969 48.605469 495.402344 48.605469 L 37.683594 48.605469 C 33.167969 48.605469 29.507812 52.265625 29.507812 56.78125 L 29.507812 431.207031 C 29.507812 435.722656 33.167969 439.382812 37.683594 439.382812 Z M 45.855469 64.960938 L 487.226562 64.960938 L 487.226562 423.03125 L 45.855469 423.03125 Z M 45.855469 64.960938 "/>
</g>
<path style=" stroke:none;fill-rule:nonzero;fill:rgb(45.098877%,45.098877%,45.098877%);fill-opacity:1;" d="M 495.40625 481.265625 L 215.746094 481.265625 C 211.230469 481.265625 207.570312 484.925781 207.570312 489.445312 C 207.570312 493.960938 211.230469 497.621094 215.746094 497.621094 L 495.40625 497.621094 C 499.921875 497.621094 503.582031 493.960938 503.582031 489.445312 C 503.582031 484.925781 499.921875 481.265625 495.40625 481.265625 Z M 495.40625 481.265625 "/>
<g clip-path="url(#clip2)" clip-rule="nonzero">
<path style=" stroke:none;fill-rule:nonzero;fill:rgb(45.098877%,45.098877%,45.098877%);fill-opacity:1;" d="M 37.683594 497.621094 L 120.1875 497.621094 C 124.703125 497.621094 128.363281 493.960938 128.363281 489.445312 C 128.363281 484.925781 124.703125 481.265625 120.1875 481.265625 L 37.683594 481.265625 C 33.167969 481.265625 29.507812 484.925781 29.507812 489.445312 C 29.507812 493.960938 33.167969 497.621094 37.683594 497.621094 Z M 37.683594 497.621094 "/>
</g>
<path style=" stroke:none;fill-rule:nonzero;fill:rgb(45.098877%,45.098877%,45.098877%);fill-opacity:1;" d="M 343.011719 236.914062 L 198.253906 153.304688 C 195.722656 151.84375 192.609375 151.84375 190.078125 153.304688 C 187.550781 154.765625 185.992188 157.464844 185.992188 160.386719 L 185.988281 327.605469 C 185.988281 330.523438 187.546875 333.226562 190.078125 334.683594 C 191.339844 335.417969 192.753906 335.78125 194.164062 335.78125 C 195.574219 335.78125 196.988281 335.417969 198.25 334.683594 L 343.011719 251.078125 C 345.539062 249.617188 347.097656 246.917969 347.097656 243.996094 C 347.097656 241.074219 345.539062 238.375 343.011719 236.914062 Z M 202.339844 313.441406 L 202.34375 174.550781 L 322.574219 243.996094 Z M 202.339844 313.441406 "/>
<g clip-path="url(#clip3)" clip-rule="nonzero">
<path style=" stroke:none;fill-rule:nonzero;fill:rgb(45.098877%,45.098877%,45.098877%);fill-opacity:1;" d="M 533.398438 64.960938 L 677.570312 64.960938 C 682.085938 64.960938 685.742188 61.296875 685.742188 56.78125 C 685.742188 52.265625 682.085938 48.605469 677.570312 48.605469 L 533.398438 48.605469 C 528.882812 48.605469 525.222656 52.265625 525.222656 56.78125 C 525.222656 61.296875 528.882812 64.960938 533.398438 64.960938 Z M 533.398438 64.960938 "/>
</g>
<g clip-path="url(#clip4)" clip-rule="nonzero">
<path style=" stroke:none;fill-rule:nonzero;fill:rgb(45.098877%,45.098877%,45.098877%);fill-opacity:1;" d="M 615.425781 110.265625 C 615.425781 114.785156 619.085938 118.445312 623.601562 118.445312 L 772.394531 118.445312 C 776.910156 118.445312 780.570312 114.785156 780.570312 110.265625 C 780.570312 105.75 776.910156 102.089844 772.394531 102.089844 L 623.601562 102.089844 C 619.085938 102.089844 615.425781 105.75 615.425781 110.265625 Z M 615.425781 110.265625 "/>
</g>
<g clip-path="url(#clip5)" clip-rule="nonzero">
<path style=" stroke:none;fill-rule:nonzero;fill:rgb(45.098877%,45.098877%,45.098877%);fill-opacity:1;" d="M 772.390625 155.585938 L 623.597656 155.585938 C 619.082031 155.585938 615.421875 159.246094 615.421875 163.761719 C 615.421875 168.277344 619.082031 171.941406 623.597656 171.941406 L 772.390625 171.941406 C 776.90625 171.941406 780.566406 168.277344 780.566406 163.761719 C 780.566406 159.246094 776.90625 155.585938 772.390625 155.585938 Z M 772.390625 155.585938 "/>
</g>
<g clip-path="url(#clip6)" clip-rule="nonzero">
<path style=" stroke:none;fill-rule:nonzero;fill:rgb(45.098877%,45.098877%,45.098877%);fill-opacity:1;" d="M 772.390625 209.074219 L 623.597656 209.074219 C 619.082031 209.074219 615.421875 212.734375 615.421875 217.25 C 615.421875 221.765625 619.082031 225.429688 623.597656 225.429688 L 772.390625 225.429688 C 776.90625 225.429688 780.566406 221.765625 780.566406 217.25 C 780.566406 212.734375 776.90625 209.074219 772.390625 209.074219 Z M 772.390625 209.074219 "/>
</g>
<g clip-path="url(#clip7)" clip-rule="nonzero">
<path style=" stroke:none;fill-rule:nonzero;fill:rgb(45.098877%,45.098877%,45.098877%);fill-opacity:1;" d="M 772.390625 262.5625 L 623.597656 262.5625 C 619.082031 262.5625 615.421875 266.222656 615.421875 270.738281 C 615.421875 275.253906 619.082031 278.917969 623.597656 278.917969 L 772.390625 278.917969 C 776.90625 278.917969 780.566406 275.253906 780.566406 270.738281 C 780.566406 266.222656 776.90625 262.5625 772.390625 262.5625 Z M 772.390625 262.5625 "/>
</g>
<g clip-path="url(#clip8)" clip-rule="nonzero">
<path style=" stroke:none;fill-rule:nonzero;fill:rgb(45.098877%,45.098877%,45.098877%);fill-opacity:1;" d="M 772.390625 316.050781 L 623.597656 316.050781 C 619.082031 316.050781 615.421875 319.710938 615.421875 324.226562 C 615.421875 328.742188 619.082031 332.40625 623.597656 332.40625 L 772.390625 332.40625 C 776.90625 332.40625 780.566406 328.742188 780.566406 324.226562 C 780.566406 319.710938 776.90625 316.050781 772.390625 316.050781 Z M 772.390625 316.050781 "/>
</g>
<g clip-path="url(#clip9)" clip-rule="nonzero">
<path style=" stroke:none;fill-rule:nonzero;fill:rgb(45.098877%,45.098877%,45.098877%);fill-opacity:1;" d="M 772.390625 369.542969 L 623.597656 369.542969 C 619.082031 369.542969 615.421875 373.203125 615.421875 377.71875 C 615.421875 382.234375 619.082031 385.898438 623.597656 385.898438 L 772.390625 385.898438 C 776.90625 385.898438 780.566406 382.234375 780.566406 377.71875 C 780.566406 373.203125 776.90625 369.542969 772.390625 369.542969 Z M 772.390625 369.542969 "/>
</g>
<path style=" stroke:none;fill-rule:nonzero;fill:rgb(45.098877%,45.098877%,45.098877%);fill-opacity:1;" d="M 533.398438 171.9375 L 585.828125 171.9375 C 590.34375 171.9375 594 168.277344 594 163.761719 L 594 110.265625 C 594 105.75 590.34375 102.089844 585.828125 102.089844 L 533.398438 102.089844 C 528.882812 102.089844 525.222656 105.75 525.222656 110.265625 L 525.222656 163.761719 C 525.222656 168.277344 528.882812 171.9375 533.398438 171.9375 Z M 541.574219 118.445312 L 577.652344 118.445312 L 577.652344 155.582031 L 541.574219 155.582031 Z M 541.574219 118.445312 "/>
<path style=" stroke:none;fill-rule:nonzero;fill:rgb(45.098877%,45.098877%,45.098877%);fill-opacity:1;" d="M 533.398438 278.917969 L 585.828125 278.917969 C 590.34375 278.917969 594 275.253906 594 270.738281 L 594 217.25 C 594 212.734375 590.34375 209.074219 585.828125 209.074219 L 533.398438 209.074219 C 528.882812 209.074219 525.222656 212.734375 525.222656 217.25 L 525.222656 270.738281 C 525.222656 275.253906 528.882812 278.917969 533.398438 278.917969 Z M 541.574219 225.429688 L 577.652344 225.429688 L 577.652344 262.5625 L 541.574219 262.5625 Z M 541.574219 225.429688 "/>
<path style=" stroke:none;fill-rule:nonzero;fill:rgb(45.098877%,45.098877%,45.098877%);fill-opacity:1;" d="M 594 377.71875 L 594 324.226562 C 594 319.710938 590.34375 316.050781 585.828125 316.050781 L 533.398438 316.050781 C 528.882812 316.050781 525.222656 319.710938 525.222656 324.226562 L 525.222656 377.71875 C 525.222656 382.234375 528.882812 385.898438 533.398438 385.898438 L 585.828125 385.898438 C 590.34375 385.898438 594 382.234375 594 377.71875 Z M 577.652344 369.542969 L 541.574219 369.542969 L 541.574219 332.40625 L 577.652344 332.40625 Z M 577.652344 369.542969 "/>
<path style=" stroke:none;fill-rule:nonzero;fill:rgb(45.098877%,45.098877%,45.098877%);fill-opacity:1;" d="M 709.492188 503.019531 C 729.304688 503.019531 745.425781 486.898438 745.425781 467.074219 C 745.425781 447.253906 729.308594 431.132812 709.492188 431.132812 L 596.296875 431.132812 C 576.488281 431.132812 560.371094 447.253906 560.371094 467.074219 C 560.371094 486.898438 576.484375 503.019531 596.296875 503.019531 Z M 576.71875 467.078125 C 576.71875 456.277344 585.5 447.488281 596.296875 447.488281 L 709.492188 447.488281 C 720.289062 447.488281 729.074219 456.277344 729.074219 467.078125 C 729.074219 477.878906 720.289062 486.664062 709.492188 486.664062 L 596.296875 486.664062 C 585.5 486.664062 576.71875 477.875 576.71875 467.078125 Z M 576.71875 467.078125 "/>
<path style=" stroke:none;fill-rule:nonzero;fill:rgb(45.098877%,45.098877%,45.098877%);fill-opacity:1;" d="M 138.519531 489.441406 C 138.519531 505.109375 151.257812 517.855469 166.917969 517.855469 C 182.582031 517.855469 195.320312 505.109375 195.320312 489.441406 C 195.320312 473.777344 182.582031 461.03125 166.917969 461.03125 C 151.257812 461.03125 138.519531 473.773438 138.519531 489.441406 Z M 178.972656 489.441406 C 178.972656 496.089844 173.566406 501.5 166.917969 501.5 C 160.273438 501.5 154.867188 496.089844 154.867188 489.441406 C 154.867188 482.792969 160.273438 477.386719 166.917969 477.386719 C 173.566406 477.386719 178.972656 482.792969 178.972656 489.441406 Z M 178.972656 489.441406 "/>
<g clip-path="url(#clip10)" clip-rule="nonzero">
<path style=" stroke:none;fill-rule:nonzero;fill:rgb(45.098877%,45.098877%,45.098877%);fill-opacity:1;" d="M 229.542969 553.613281 L 37.683594 553.613281 C 33.171875 553.613281 29.507812 557.273438 29.507812 561.789062 L 29.507812 753.71875 C 29.507812 758.234375 33.171875 761.894531 37.683594 761.894531 L 229.542969 761.894531 C 234.054688 761.894531 237.714844 758.234375 237.714844 753.71875 L 237.714844 561.789062 C 237.714844 557.273438 234.054688 553.613281 229.542969 553.613281 Z M 221.367188 745.539062 L 45.859375 745.539062 L 45.859375 569.96875 L 221.367188 569.96875 Z M 221.367188 745.539062 "/>
</g>
<path style=" stroke:none;fill-rule:nonzero;fill:rgb(45.098877%,45.098877%,45.098877%);fill-opacity:1;" d="M 96.394531 703.105469 C 97.65625 703.832031 99.070312 704.199219 100.480469 704.199219 C 101.890625 704.199219 103.304688 703.832031 104.570312 703.105469 L 170.828125 664.835938 C 173.359375 663.375 174.917969 660.675781 174.917969 657.753906 C 174.917969 654.832031 173.359375 652.132812 170.828125 650.671875 L 104.570312 612.402344 C 102.039062 610.941406 98.921875 610.941406 96.394531 612.402344 C 93.863281 613.867188 92.308594 616.5625 92.308594 619.484375 L 92.308594 696.023438 C 92.308594 698.941406 93.863281 701.644531 96.394531 703.105469 Z M 108.65625 633.648438 L 150.390625 657.753906 L 108.65625 681.855469 Z M 108.65625 633.648438 "/>
<g clip-path="url(#clip11)" clip-rule="nonzero">
<path style=" stroke:none;fill-rule:nonzero;fill:rgb(45.098877%,45.098877%,45.098877%);fill-opacity:1;" d="M 500.96875 553.613281 L 309.109375 553.613281 C 304.597656 553.613281 300.9375 557.273438 300.9375 561.789062 L 300.9375 753.71875 C 300.9375 758.234375 304.597656 761.894531 309.109375 761.894531 L 500.96875 761.894531 C 505.484375 761.894531 509.140625 758.234375 509.140625 753.71875 L 509.140625 561.789062 C 509.140625 557.273438 505.484375 553.613281 500.96875 553.613281 Z M 492.792969 745.539062 L 317.285156 745.539062 L 317.285156 569.96875 L 492.792969 569.96875 Z M 492.792969 745.539062 "/>
</g>
<path style=" stroke:none;fill-rule:nonzero;fill:rgb(45.098877%,45.098877%,45.098877%);fill-opacity:1;" d="M 367.820312 703.105469 C 369.082031 703.832031 370.496094 704.199219 371.90625 704.199219 C 373.320312 704.199219 374.730469 703.832031 375.996094 703.105469 L 442.253906 664.835938 C 444.78125 663.375 446.339844 660.675781 446.339844 657.753906 C 446.339844 654.832031 444.78125 652.132812 442.253906 650.671875 L 375.996094 612.402344 C 373.464844 610.941406 370.347656 610.941406 367.820312 612.402344 C 365.289062 613.867188 363.734375 616.5625 363.734375 619.484375 L 363.734375 696.023438 C 363.734375 698.941406 365.289062 701.644531 367.820312 703.105469 Z M 380.082031 633.648438 L 421.816406 657.753906 L 380.082031 681.855469 Z M 380.082031 633.648438 "/>
<g clip-path="url(#clip12)" clip-rule="nonzero">
<path style=" stroke:none;fill-rule:nonzero;fill:rgb(45.098877%,45.098877%,45.098877%);fill-opacity:1;" d="M 772.390625 553.613281 L 580.53125 553.613281 C 576.015625 553.613281 572.355469 557.273438 572.355469 561.789062 L 572.355469 753.71875 C 572.355469 758.234375 576.015625 761.894531 580.53125 761.894531 L 772.390625 761.894531 C 776.90625 761.894531 780.566406 758.234375 780.566406 753.71875 L 780.566406 561.789062 C 780.566406 557.273438 776.90625 553.613281 772.390625 553.613281 Z M 764.214844 745.539062 L 588.707031 745.539062 L 588.707031 569.96875 L 764.21875 569.96875 L 764.21875 745.539062 Z M 764.214844 745.539062 "/>
</g>
<path style=" stroke:none;fill-rule:nonzero;fill:rgb(45.098877%,45.098877%,45.098877%);fill-opacity:1;" d="M 639.246094 703.105469 C 640.511719 703.832031 641.921875 704.199219 643.332031 704.199219 C 644.746094 704.199219 646.15625 703.832031 647.421875 703.105469 L 713.679688 664.835938 C 716.207031 663.375 717.765625 660.675781 717.765625 657.753906 C 717.765625 654.832031 716.207031 652.132812 713.679688 650.671875 L 647.421875 612.402344 C 644.890625 610.941406 641.773438 610.941406 639.246094 612.402344 C 636.71875 613.867188 635.160156 616.5625 635.160156 619.484375 L 635.160156 696.023438 C 635.160156 698.941406 636.71875 701.644531 639.246094 703.105469 Z M 651.507812 633.648438 L 693.242188 657.753906 L 651.507812 681.855469 Z M 651.507812 633.648438 "/>
</g>
</svg>
